<mxfile host="Electron" modified="2024-04-28T18:37:30.230Z" agent="Mozilla/5.0 (X11; Linux x86_64) AppleWebKit/537.36 (KHTML, like Gecko) draw.io/22.1.16 Chrome/120.0.6099.109 Electron/28.1.0 Safari/537.36" etag="PjyjXKj-57OauzuG7Q1z" version="22.1.16" type="device">
  <diagram name="Page-1" id="Y3DvqaDpgJgio3a4ast2">
    <mxGraphModel dx="3987" dy="2456" grid="0" gridSize="10" guides="1" tooltips="1" connect="1" arrows="1" fold="1" page="0" pageScale="1" pageWidth="850" pageHeight="1100" math="0" shadow="0">
      <root>
        <mxCell id="0" />
        <mxCell id="1" parent="0" />
        <mxCell id="O91nQu8UyTGTQkRIEwQN-2" value="" style="shape=stencil(rVrJbh03EPyadyXYbK5nx/kPA5YjIYpkyHKWv08TD5wZFjU1CJCb4lTPI9lb9XLTTz8ev3x/uAX/4/3t9feHv56+vj/e9JdbCE8vjw9vT+/2100/3/TTt9e3h9/eXn++fL3/9/cvHdn/+uP1z/6Fv+9yKi7mLhX8P/d/SS7d/+HXO/756eWIj04U8MLw2ZU04aOr7RwfvQsN8LkSfHQN8VHP8cm74gEvieCL8/N91VVy36wuJcCnQvDNlQh4Jd8vyWlFvJzjq70nnieS89S44hvRVy0uFLAHHwm+ob1lV/05vonzs76aC+S+LTg/24ME+kBNnZ8vIMk1LgAWF7zzTMAsfv6FbtNEBy25Ar9gVsIEsstgpGYm7FWLi+CVnqq5VSfzHaI5NvEzEyhgF2FY7scCplcILMVVLpDmVzLfE/ZKDfWQqwvslRpqugTXSLAQ79Fay+Yfp2ea3bmKE34miF/msenimUCguEwuYQI6K6J5p/wOMt/BnPDCNtoc88xFSqACadacWbyyO5RxgE3AjIn9gvk8hJk2VHkWZ2pEgcQCZcXE2c2L/IIZQpoj5cG8Ps4NFtqXM7Fkm810FoFMsk+ysLIIKFG1RYkAAqZ8xhdMT4oCzL7Vu+xRgHl1JyxgrvabJH4HGdH6IJCIgLRBWQ4CjJRIQafuAkRxlqJQ02XwrI8FdHHqSm1J/PCXg4AQPVQXVzwjPs5nvAHL0wl5mIUARgTiYqlxMI8TvAd8oERMRybYwmqjtMG+P79Pza6R9zFaCnilYXvhbaXRXBWRRxqzrPQ8EXKhjOBxgge3zMUJxwMvtCTCiD9+P1VKbONS58RBOM7ec7YHqxw8t4cZb6GPsULTpsz4QImzYtTqkZKcJ2DQUqX6CqOMO3BOz0LQsMYjqWURyMnCmhkf9EP7W/azlE8yuMeIaLw/UTwQ2kbNc6P4e9nCAvTCA+MoC0/goCyzBQIPWDMKVVUaH9vhgby80UOooCixWXi7DPnTxCKAZ2TR1Bgr4omiJI7sf8CzZJ2Q5Nv5id1YroYqQgbBPiMDFc/D2PR+vYO2mN+qK0ATqSGbNUBil1EAf4wvSHQ9JXB7qbrjGfNWwUDoqb4sjAX8fibvrxHf31PPtbAKidTTCk4bEhNPndEK7bzgGW8ISAR4ERCXbsP2gx/jEyY6z3lJWv0xEv0aPiG+XeDn+4YR2c/wKoBnZVVvGEJipPqNS42klPwb3i8NQMZjFGtbpfZpeMHzBMbzAsbbQHmD4TPilZ0n4PmFtm3699EeGA8wfFvsk9mDoj34caEz/BKvqD1bfsmI5/ZW0N8ZFTB7FsRXbv9QeMk44Kl/ob5Y5RgTtiEC95c0nmPHF34emfFKBwr2nkBPdPQyT/UVAH/hjwUb/rTO0UGmDg35/xPvkWgrr0PaGh88y78F7efi+3GE74O+yPtbvlbUF6vbdeE/PD4b32iIp/yquIbvz+K58aXlvqzO6fMh/D6z/z0d7ngWP41PQv6KtG6Uio2NSNtjVmYB34i01SpL44H3WTqfRzzlzx79MQ4CclKO+OU4RL0FrTPy6LYGH9o6dAljCetxyeiC74dh1E1w1Jhp5trqmr3iZcRTRuv4UFCzRB2WOjDTQB6QB3eiTRsmkCe6ZhkxX3hMvWjQgd3rRWB2GeJOoYWvVeFzXIhCiWoaLeMNn2hgSBg3Y6NEPmEcTPGiYSuztfWGGwkMS+e/N/TYMGLBl4vzhFm/vSHJ8TCaS3w4snyfv2fGvN4btsR7MzasekOY2ENGHlAbLZTzoPmbu3N7Kzg4b5xYleFNGz7RptUyrm2JEmcR7LC3xKcoccy8DwKMCvQAtRyJ5rqCtUJLtDjtzZ/lkZjSegpYjkTbLQnNrs9FGB9beo19e4ATRByNZror0Gd+cIdCn7VPFRcBtvTT55bLRI75ZlEkHX06xdZUBLsQXYDooRZsI/YjMXdYeNDFVNFeXQT1wDoFrSwtbs6F+gFgxhboMtg+ON0EPG1W9qHjHJTs3Vg13Ge5IMDpoglA2jRV0rBUkUVdrWxUbAj1rRC+OwMVVt87uVi2AWKntGPfh7+Qyyst+rpDzkdKF5rOCzW1IMB2PPIyARE6b2vLWF4TN42II23lE7qez4ARxsGBzlwUW5F8ZmUZFoaSfWjFbMkjJzeSzUiJ5XxgnVYfCXnWWnHuWak7GAmBBJRpuWXuCB6d6Nit7yPC3JZaallyQ6Rj6r5PiXjWbs5LmZCu9kEFz8/K3b5vivuRbJUvLmVCvhonKOqLtWs1I23LdONH49iC2PGMRfb2DdBsuomogutpfA3E8Ip41u40PJR1he8re2yvbAvAZ/iKRXjl9Kugfun7e9yfzpSV62JvmWZk9Tjey3wNwSMrT3ScoLL6C1v1M/yyT8za9/95f/0Sb3/sy/Lfnp6f77v2x/+Py/X2T/fFfP38Lw==);lineShape=1;strokeColor=default;fontSize=16;" vertex="1" parent="1">
          <mxGeometry x="-458.58082637475866" y="117.50009064335973" width="172.82119759215186" height="163.30911736897883" as="geometry" />
        </mxCell>
        <mxCell id="O91nQu8UyTGTQkRIEwQN-3" value="" style="shape=stencil(lVjbUttQDPyavGrO/fJM6X8wQ2gyTQkToJe/77qZ41oyXuDNmLPRkbSSVt7Fm+fD3dN+F9zzy+X8ff/reP9y2MUvuxCOj4f95fiCp1283cWbh/Nl/+1yfn28v/79dDednJ5+nH9Ov/D7ivMS/QQK7s/1RcWb/O/N1+v50/Fxcb6KK/Z8C9vnvZceNSCIJwZ8lZyshVK3ASFKMS44aZ4AuvSsAKVLJRZikaSdLk1K2gakIE07XYrUSABNsrlSktS3ATmK7xoQxDEALqABuUotBNClOQ2IkokFXMD4kBBWRwBZQtCALJHkodSR1xmATDdCVidBOx3BX3IlcLNqHyKcJlyq8KFqAGyyK1XpmksoqUDC2tyg2gwANYgPDdTQYQ1u0PFtQB5UG4CpBhmgDzLPAN40epSgw4pEE+71akva0bT1NszPFxJHktC7OO1AksLPZ5007ySRCAHQnQ1pZW3SzR7OWcujYrdMNH0nULWxIHWbZlRPJ9xGVE3rToXWJwBBUxUdoDAL4JnpMY4WQy+jUc8WGmdeEW98iNKZD1mKCSvIyFKdRzXOiUPymQ/gftMAjFAyTaYrGTIlcdxpQ+8qiaWhrFoMHW9IW9QxQtZYiJp4W860etqQFHMOxqTYZLYOUBuqZrN09H18Fs9IMWd0DlAU9w5AZyB6Cbw4TQoiJAYvf29qLVERg6AmTTuUDu0X1c5CFOc7XfuTgGhbGCQGJSp4phOXK20wGG1dR6lAjxIqtVnjLIRYZNMWPVSHFSolMAHdxu8t1GdigDz6z0IQMyFWVwIAbzKXSUX7AJtMAJRVo688D5B6WVtovNFDTJoW0AL1oWB+6ishlawN52oH7qSDSAGBmyZxrQ5ZsCXqTU2Dv46QD2uDUQ090IGLxcTMz55oAYVVI8NwYYvJtFzpmkaVMx8m6agn9KQKiIX1gojWxlrlagOd1BmZVqsNd6G13gS4VYw6pZ4bW87CY9b2MPwMLQoV9M6uSVPfJEl2Q/suaMc2vZXyBK/5fez5OBbqj91nWmk+42+tNMGreNY0dqyP5QtbH+sUKz6g/7JJ+9lPKu+fx8P/7zcPx9Pp+vln+X/7vQevrt+K4u1f);lineShape=1;strokeColor=default;fontSize=16;" vertex="1" parent="1">
          <mxGeometry x="-417.4055482004612" y="165.53071831426973" width="107.23403867398929" height="9.885145250422056" as="geometry" />
        </mxCell>
        <mxCell id="O91nQu8UyTGTQkRIEwQN-4" value="" style="shape=stencil(lVjLctswDPwaXTEkwec5Tf8jM3FqT1074zh9/H2hqlQEyFpPborDFUEssFhq4Ie3/dPrbgju7Xo5f9/9Ojxf9wN/GUI4nPa7y+EqTwM/Dvzwcr7svl3O76fn6e/Xp3Hl+PTj/HN8w+8J5ynwCAruz/RDSRTiv1++TuuPh9NifaIS9HpP2W+v946CBuRCHmzgmXLSgEC5AEClqI+QWt/zJiBEilUDEkWwA3tyWQM8JXAGLjZLMVNz24AYyTsNCJQY0CBp9Qoge+YMAJlc1ACmAg6dPXHTAEcMzpATVU1cyFQBD1lo0mkN+NAlkNM7CPcF8FBif98MSJCHIjQZAFOqANAoah58IA8A1a928D0NtwFSrbqWpKUc6LgqWdflXSmDM7eVBCRKIKAmxa1rVeJB76+2kByOp5HT8TAFvD7pyi6wimS9yY9w7BOSsPmAM0JoBwjZomnAqJugKsYz6JhEc5AkjUkyAKls0ArCQtS9w7WL1CbNujtZgkQ8lFVItYvUbUC2OsyRWoMAp1tBJAk1W5OsG0mKFFBak61tX3q1bAFsMck8xGcwopeJEW/SzVpgQm+nLRb+181HtyF5kbrw2az3KEOVKpt4PO420/2pC+DW+tJsQmFA0muGgUKMyk4AZuzIJMSAYihomOPVYJPCzqjXanc4i9aBmlp6oyyaE+rFpwFMrFvnjiOpQrTmITJ0hrVYRzK6ILRDtEIvADSpxllbLAD6hVnhFgAGxJXZyy4ADoQkjqSsQooopNDlYQaknrctV2U8T5x19jYgW1cV8WQQZ5hWdrgBpsV7mjuAGG40SsTdGs+TGiw+SWLQ5Z1jv0ZsOfSmd5C8IaZ5fVGK3fpt3TJMT5fa99y6xxhAZdiiYltMedcC56cYx6QP3RxkOtkNxvmIIrIDfWGdNgBm+IziDAJyVKNdjyTD2UoVHUR3SddrYHFgJNzOtr/IpgdF4ay1FQIC6M2V8RSG0R3M2VYWzWSYH28qyENFlfzofJZ7+c96copgIi/vuo4svkYg+/XZrxf318vDx6eSl8PxOH1pWf7fflqRn6bPMvz4Fw==);lineShape=1;strokeColor=default;fontSize=16;" vertex="1" parent="1">
          <mxGeometry x="-419.45542901129284" y="205.74295366964975" width="107.50014784120049" height="11.706406642677166" as="geometry" />
        </mxCell>
        <mxCell id="O91nQu8UyTGTQkRIEwQN-5" value="" style="shape=stencil(lVjZUhsxEPwav05JGp3PhPwHVZjgCgEKyPX3acUIrJG3C97Wa7V2jlbPjHZ68Xx79bjfBff88vTwff/7cP1yu9MvuxAO97f7p8MLnnZ6udOLm4en/benh5/318ffj1d9ZX/68fCr7/DniPNZtHZUcH9f33ip8f+br0fA3eH+BBCSlDYDgviyDdAgaQH0n5uAJm0BpLwNiEVamQEq3m0DUpYULODVq7OAnMSnGRAl1m1AUQluBiRxfhtQnYS4AEhYa5JWrUk1bQOaSg4WkIgP3jlxsxMBexButCY6h0kL5UaDEzoBEthHEgEn/OxEruKY1078TKYaeSKiDVODD8TpkqWaRLwH7jybqrTlE5GEKYMcM8FbpDYlJ3FmE+LA4hr9oPNbmJoEElcFwf0MqFKJD103sgU0EiVfRJv1ISpJtf0A1heSaR3sP2EGYzeYNHtc3DjkG+vN6UlRCtkfKZjXax1Z3LC/zfbgDSNFk2QO52D6eXO8qFHVIYLn16vEOV/8FEDfcjHrA6Eo+FCMGvH9FzGK0lhhA7sMQaWS/bHexL9XHeIAANlIfKGEgwfWYy+ZKXYVP1O6+8xilCXM+huyNFJqUTLcnLQAH8ihBIssS6GX5AtL8YcL7BRXSUuMmErAXG+ToEzerQqhGams8g+dfWdRIuY3cTMn4sj5Rk2WYoo47dZgbFkOGUsX+JLMesfWF3HZ2BM4Q6sVIdptQnTn/QvVRKyvM6FBQBbQDjB8yOMQbQGcISiEg2QYLpc5xV25Wc4+DUhnKgfNgi5tF7SJ0c7bZjNHUaYTzfa/GYkm1QbtQV0ALA9oQMzBBEBJAxLD0IVTk4gPKYwh4g2QRok736aF0cWdNKeMGsUP6Xljt6d5KM1OayWMqnVeHYMdXFKjBwg9kNFTTFdsSqg4kLMiaRoSvtXCG8nTSKtan3QMvXnnglnKLwBWmRFEI9oYWgsJK9hven4APONStuOdelrWEPVcLYC1R5iayyxk6qgPsNhwSR31YZ38e0vJRGC5WwCATSEQMlULoD1qXACVDsG9SZ3rSW8I2BeCnSoCp3e/3DCAOGrkFsCZDsmPIvxBQG8UifKtJvXGk5tknEZm6OiyhBWZ8awoRqt8va1iPizU8IHe8Xz6YusDADy836PdHO7ujtdwp//beze8Ot7Z6eU/);lineShape=1;strokeColor=default;fontSize=16;" vertex="1" parent="1">
          <mxGeometry x="-427.29567487514873" y="242.46120470352048" width="44.53120356454269" height="21.755435968119855" as="geometry" />
        </mxCell>
        <mxCell id="O91nQu8UyTGTQkRIEwQN-6" value="" style="shape=stencil(lVfZbhsxDPyafSUkUhef0/Q/AsSpjbp24LjX31eqobXF9Y6Rtz2GuxRneE3y9LF9ed9M7D7Op+P3ze/d63k7yZeJeXfYbk67c72a5HmSp7fjafPtdPx5eL3cv780ZLv6cfzVvvDnYufI52bE7u/lgWbS8v/J1wt+vzvc4JmCwQvlsI4PVGTAF6Wk6/hC7Ed8oODW8Z4pjT/IhRwDg/paRwNH0YMTB0o8GCQmBwykvk6DQWRSFCNHMh46CDYopHEwkEghrhvETGE8NGfKed0gRYphNPDkwR8yUx5d8vUTQEhZybvRwJMToIwqhDISRxEQXQqV8cwRCkOZ2ASVGJCgwSrPk4KQaiJJBu+BjLSQjP67HrE1fE4G7xC+EhAsPkF8sP4wxi/8SdgfDSY+SA/ezee7GiBBLH/AjwJkDlCLH3CoBagYPMqxRoAYPBRQsSkmWNBVQNYfxYJz0eATIjhT8QbPIOMrPo29w/fmsIo3JYUEJWS28XFUUDxzD/cVH9B5a2+yeI/5SosEw/p0/Dm84bf6g+JfO6/FB4wvNuELxuuIr3yBltHwCz0gftXOEkyC8zda/Secj2z1rzj+n8NHktH/gPVcPzfiI4xnm6zGfMywwZRIPPJVA4Za/JIvgRU6yyLha8sGBilRHCt6K3GAslh6xZ8NtCfdfYOaUmNOSu5ZfX/U8nbgDZEyUJ1IF+XMWui83J8vY6/K83wp8AxeexuaeWZItA99Xp0NFM5m2uv+PIRH2DkWk4363tpWlgI3JmZNDTRcepv4rdWiCFndtdIHSF5w3EoN9IeDxSvoHH4xqDg8mzk7eTz4gbPT+oMDuF54bgMEBLHcEhXuG85uQG3WAQQsJrnaO1HrvoePMD7WnwJn189uxY/x9eK6gr/t9vvLBn/73q7s9dFl3Zfnfw==);lineShape=1;strokeColor=default;fontSize=16;" vertex="1" parent="1">
          <mxGeometry x="-242.40544301675618" y="13.71982808661005" width="140.60600410181314" height="109.69524683325722" as="geometry" />
        </mxCell>
        <mxCell id="O91nQu8UyTGTQkRIEwQN-7" value="" style="shape=stencil(lVjLctswDPwaXzEE+MQ5Tf8jM3FqT1074zh9/H2hulRNyNpMb7aEFQhgFwS5iQ9vu6fX7UbC2+V8+rr9sX++7Dbx00Zkf9xtz/uL/drEx018eDmdt1/Op/fj8/X/69NkOf36dvo+feHnFSfEdQJJ+HV9EIU0/nny+Wp/2B9v7CtpGO0Dtbxuz0KiA0CUWADAPPAIKNTCOkAySRsBiQKvA2LyMUuAHlLsrzvAFikAkCOlMWiOVACgSH/dAUoNhFCZuAz2hQRUoTZqaSwbMahyyxTyYB9IFdgr1eLsA4hXC2VXAsrAnsP8vTmjTLEAD0rqPCQSBLAURa+Ev8S6D6gURt4lSxICJNIxSdmiQksSqmPQWSkBWmjoIc60aJSBh9aIRw/VxFYhMcqozukJYobFMDLPaq8gBgOEUTtWmQi40RZasNrHBACW9eQBaEmTevICANJaK1X2gATSaln3WbLCoSUVL1CjI6MlZc8lzZQBWyfAqAeNeGcoxC4GoYg8GNVcpbnXfi2tHhBgH67qs2SNCnV6o4YkD1DEJe5Uu1lSxnoQ8UF/IKDGvg6wd8cFvVPvzqsexlZpEo14ST7oirsG9+5+o4eAJZqiB1TEJe3737w/BLwFmahd+zYXqBDGPp/XBqM2fssiTQVEPUluUQhUagMUF0OihEXttiAVHMNdAC5EGCvX5hFzVUGjqGukjPmdx1KX3DW1tme5tGbjN1pS7Vybd/YKuWRNorjxyjZWwCVd7Fk2RqOpeBoFRgBjLk291ymo8/1+CKV30rlulFBSw6KP9eZ8nxfiBweeJ4P7I3HycwAXuIdmG6/GFdkQina4lH0bsxExgyXFTM15aFTA2G2nJbf/2EyJlsTqBW0+CxCDnSscL2LtbL/PC98njakKQrCTzJgjG3IzCtlrzexhinyVp++jgCkVb88go2FxXlWY0OC/P+UH6MC8L/IZQP4X5xirF4P8hH6Une1NqGAwnLNxQyA0PYc+Zs72Caos+GNVjJBv3Kt5Y49Oqv97H/Gxvf34d/nxsj8crncnt+/9ZYk9ul60xMff);lineShape=1;strokeColor=default;fontSize=16;" vertex="1" parent="1">
          <mxGeometry x="-111.55980686909379" y="-24.725668187695078" width="55.54197842826488" height="40.079961924094505" as="geometry" />
        </mxCell>
        <mxCell id="O91nQu8UyTGTQkRIEwQN-8" value="" style="shape=stencil(lVrbklwnDPyafaUAAYJnJ/kPV3kdb8Xxumzn9vcRWXP20JrTE7/tzkgDutJqeJA3Xz+8/fz4kOPXb1+ef3v86+ndtw8P8tNDzk+fPjx+efpmfz3Izw/y5v3zl8dfvzz/8endy/+f307J+dfvz3/OX/j7RS+1kOrUyvGf75/EkNN/n/zyovDx6dNZQUPVTaGHweR7aLLJaxidyI/Q0ybfwijX8jmFpCAfG5HPQeMmX4Ow3y+h5E2+BCX7t+Wlgnxi++mhlE1eQhnX8hKD7r+f6X5EQi4gH4m9UsOAhAiV7cfCH0E+E3tLDmnfTwxDiXwNTUH+ewBvy49QUL4Qe+vh7lf5RPxZ1ctHsv+WMB9MPhP5GmJEeVJfrQdBeyPxjybvH5afWkJGexvJB22h7/VuDmDyA/Mhh0L83+3n9nqU0Jm8YH3VUJm85dv++xqUxKtr6JD/cUXktsJwBSNByI5GCn23wJp2JSEbsir2cKltieTQqCHtW7KmlUkSjYZN0dqYMAU7NfYqEGtbbEu+LWoQZrTl0Z53s9NUqtD2FYrSTmEK0Bmtd0SyQooRa7mOVU1XS+i+J2sH1E2uejTTdmF+zbsRaglM0tUiF/dQW0WxBmnJVPYV+p0VLF13GyzjByk5+1pAoa58vF1yHXvSOKr2qgkMWGHwos6h7qjlFPzbfc8SvOESjUROBQ/+WSPs5OlYpIP3jZYR2o0SRK4VanM2WOTICjWuGj5yw+AeQwtl7ficTERBBuZGbyGT3JCCJWfBZwByAjAoCIOIJNJ2gOSGCom4dTZfRQVW1HbEtr3PWI2yOBjITskpkC3ZiaN+BeLWVFwc7igcsPR/Koz17Uleic19wbSTfCUmt/XtSb6wYnBBM+RN+qQF2f1+ZEDeOTSHxk6f0ME/kbYLS+sdNGilwD+ivW1QkOHOQms3jfgzIiapZSHpC3vzLm+TgxL5jL9veCGT/cgaiw9A0vnggvljk1Un/myIX2xyYwdIX13qkI8LC1ygkVB2A6wxJWJAOvLxhArpCnVN9odC4gCpry51nJpKyYSZ1HvS2ZpsmrUdN5hmMwV5s1k7OJ/YlsbqCq98SGLzckL5xuXd/FJoWzF5OAt42YiDFceBeCUPIaj09BPBGLd7+x/Qh+7KIx/FJpEpv/tncHwg2BePMeDS/zCtRQpOZ4A7KrAJ1RRE3Arc5NTRBJLSs/EADqSNYsoDmlic0235fCPE3EMRS4Z2akF0U+no6CmyQimmGYAB8oxCNPmKJcamwJlyWMKV+78jxcEmXzmw3qs8O8mmfAf/M0rWyytFo34/nYLRaS+Mc0G5vHqKhge4uhpmk9OPKyQctVKig76ZCDlkxzPlodV1CcNDJMoz6festuOZkUCTSN4R5qRy2RDhKJos/C6gLWryBFkYVWY+AbLSQFEnrcXC1ABFlcUvXqCusqeS6B1UB1RcSSuQF1MEsliV0rOCnFTpi4m4QL3ARlc+WiZkQ2un9O+RxScCi9GzGY8OTZRdysi2Kr9eKWsmOeQ5HVCxalQpCm/IT5h8Y/QyYmq1TxgjiK3R5NmU5cdo5SyRH9TvKTgq4J6CIxumAotxWkTYSaGyTuQIk6nAZj+9odDukD4VFegZWFazPRQGR3VjdbbTvM6AeCnopZ4pzKluAOwct9SGpGZvFMq+TvSHQqc2tI6XUSNS0kePQ+9QyHQF9SvcoYkywvHBO2S3BldxBXZumk/gRnMkit/taxj1p1tZ0xC8FbBIMwRmJnZYIa4x8rbC0UVPbFFnlyeK9Mm8iCSRHu5e07KLDV7DubVWfifV0YbSuJd0HX0nyohexDUEwtIpmTAcgzLHSWZ0ca8Bxqryq9SAA3HO78yGhDU9SRiC8vpACGA4ko1TXd3EXPmVa8Ur+CTUrf3WxDxIAfWE5CznNq23w8SsvI01xNqNVs+8hEcShU14s7Z2+eNW+6oPiyN12NWSe6RQ6YnuH0FUeqD7RxaVFlqV9XMnexn3PrDJ8wl4PkLBeGUmn/FVVeOH//GG6jRhk3iJ6xNKL+rEzUV8aplTE1z30AMnd/T/4NOsez8wBzEGCYu7X020qfhBwZAxNSGhi+aAzdhu9xzAoDQL8myDoFD5NKt402gKrPUaNBcwWhd1djlgq1NgjH3D8cI+YZf7804gowJ73zZNdEazc38eFu74YIxxcsWcCp2Z09FMTqlBh2C/Qqa31tMGQQV2GTi95OqBPbOaTnQc2J1cAnZnssx3cunHXpLeV7A/Xh+uvn/6+PHl3ev5e3zoah+9PJKVn/8F);lineShape=1;strokeColor=default;fontSize=16;" vertex="1" parent="1">
          <mxGeometry x="-41.90955251039259" y="-173.25074354283015" width="289.17852204239944" height="45.881076426624304" as="geometry" />
        </mxCell>
        <mxCell id="O91nQu8UyTGTQkRIEwQN-9" value="" style="shape=stencil(lVrJch03DPwaXVncl7Pj/IerLEeqKJJLlrP8fcAoHA0bw6Z0k58BDghiaSw34dOPuy/fb2+8/fHy/PT77V/3X1/ubsIvN97fP97dPt+/yF834fNN+PTt6fn2t+enn49fX//9/Uun7H/98fRnP+HvVz5nbOlM3v7z+oM1yf73w6+v5A/3jxN5dBO5Nz4w8twm8mBSY+RtJk/0dPn2LHvZkKc0kTcTKyOveSJ3Ip5b0wfjZmlcNInS///1g74Y5xl9AXmayXlNH42181N5YxOj9/C08gvRTzQxzPR5Q59n9ftqHHmuaGqc6ZupxHiSsbP8wZlE5EnGzeeHQOUXW5zlD2loeEEfZv2EbEqk9LP9hGoS0Y/Qz/YQrQkfkSeKPRB7S+O0gz4Mb17pZ5Y/po/pM4p+iH1q+mosPx/kaSbQ84Ofgw8Pheq9kkQ7Kg/4S/Ibe05AH6n/phENDvpDAwv6OvtLyht7a3B+GR56SZ+Nm+0nNeNIvJLoMZ+frYnEPrOJs/9mNyLMgj7P75v9Rn6It5nrP5s23zeL/sn5BeNVztTeJDsAfTGFvJckQ5CnmkbkLyqbWuOJ/gvGkyLggNhzMXGWp3gaDwvmxxKGBS7oIb2XNCxwQZ/h/ONFFvQV5K/Doxf0YA+l0feVaDbbW7XDQxf0frb/6sYXF/RplqcKYiHxqmF+qXFEyGvwZgc8Ohh4AnAeI0TNNKM6QY8RGSoJce4Q4GCQVyQ+IBAMgnqtVKmCwcrM0Cy1IgFhYNbNURjU8wbAVsG9xM/6Q4NIwQTCIDipzGptccTWa4aIpt0SZxDbhi9kExhWdIqhUGMVbFITMlRirQI2IB23SuGToA3wf2HIDB+4Aa9ODIUBhDDy44mBIoSEKVMYGoOYR4F0ZmA5v2F52Lg/SM7WWqJZVvxBfYFpSbIw5MHOwL6QlHkLAwMWZbjLmYH4dL7SUmGpx46w9U6RisdiqDOw5BNHrn+nliT5OWUaDI5LNgO8vGGoBzw4M5CELvkp6zswBgVpdwwFU9aOoWFTYPMOEtyzejhWRUms9urSmZiGxOqsbInhMInV+tKsMJJYrW3JE/NuTd2hUPMWBgwCHNsKA166ULAkDOhA8vYEOgiDvrRjvStrseHSH4K4XP9ERQZqG0cD5ByNuV4LXKKN6LliSBkZWE+tHTX1mYHrFdounYFp6Uhp5zuwS4tHai3xLxT1cCze92fSLkfCxtt5Zw/id6gquDJo3K8ItiQOwR/OKYaNy0H91hm4LWWnGFjB0dTDFdpx7Q6ktLQx76ZMg4a+KwYG+jqDSqOs4ug+DWpttM3Q1RqQgQWm/nAeGTYu+kGGotB6o33+noIqMmTmonHkjzPDJo0WZNglahX5KJxpCsMd9vtesNFoiXIBZxr16QvAtGHQkIwzXIC+DYOGlY3WAxfAtVEHuoDGB0h7L/hutItwAe/5JOKigNgwpIs8XTdFkFYrY/BXL80YrMpAjWKNXioqn2b9xoti9Ii2y3J3fukT5lpW1PoTTCZ7ZX3EXKPO7JupXB7NmxNDYAwB+5Q9o7BWiL2oFRnCCkXFmTJ6Tqv+D8YZPjoITjW90ujWrnpY0LiTDMC+0Kd58NKBQjLvB4g8tdUC6yWqfqikDNoPVQOBZkfL/Johjgx1NB8b7TA7Pwzh1K1kxucchu/KYaWzqildxgbAomkMQ43eoaVDAQAzNdEmf8bYXeOGHsJe5RsIyjurp96ZjZs9QVKqo0MiSCWFx7yMyKpUKn9CvPqWgFf083sVvnKRsP9RIkXcaSD+g97TXJuwFCtuc1+IRJLdAx2yp1k/mReTCYcmmZckCYuknGknUA3ZBQqw5k3CJRNBAp4vRcAQM1D7jNhhyI4mTIXLBTcwXB6xvyCwgQ4CsBRJfOgf0X9TpjWnwlECMiKxz4g9/XSszVxnPmxeJE/jVcCKNjnatg2YY/rSwkfo+1IEp4elkWNMuaKf/T1y+48Y3yIfmkccGcZAh/4Ru03R0XgbsSsiaMpze5vl6Us7XJ75/JBp3zIiSulLR1R+C0tHgfqXss8+DKT2DFVBsHSJSIHXjuyIf4WxMnfQZ7oEEtDfe8Qg9hawSOk4kC8BzvcVGMjey5sE9IXajx+tm4M+0iUih2POPkQn8ugCf3M8wJlCo6GqEdO4/oIcxveBFjIWF0w83ae0CD3tGM2vyC2QszGLxcBvN5pRa7WsVrCod0sHLBbnK5ZuulisXOyIEgtysBleZFvcq9qRF5TdkoBvEXBaitcsLqnxHSaH4dLSdvCHl6U35PLH2172t/uHh9e17vP/4x63/PS6Ax4+/ws=);lineShape=1;strokeColor=default;fontSize=16;" vertex="1" parent="1">
          <mxGeometry x="-37.5099654624064" y="-138.50353543438405" width="278.59831793628746" height="237.17787650846253" as="geometry" />
        </mxCell>
        <mxCell id="O91nQu8UyTGTQkRIEwQN-10" value="" style="shape=stencil(lVnZctNAEPwav07tfTxD+I9UYYiLkFBJuP6eWcwqnpbVIm+KM63duXoOHeK757vbb8dDcM8vT49fjj9PH1/uDvH9IYTTw93x6fSiT4d4c4jvPj0+HT8/PX5/+Hj++9vtkBxPXx9/jDf8OuO6k9AHKrjf51+clPT3hw9n+fvTw4V865KckQ9SM5Fv0oORT9L4+4OVLxIjl89GvokvVN5FI++dxEAVaNUCVOPONW4WkCX7t6jsm6QdG1mfBS+JOUGVBkCSXKkO1Sod6p6bISyiF8d0aOKs0jFJZI6rkrwFVCksMopUC0iOOy5Lt0qnyGM1S7KxlAoHJAyN1PmVFjdNQA5SOMDbE3LmoRHnBRZAm8GyBfin4pKgTnKjV4LgK0E6u1JCT5c8M2QLUIsFLMGy5ThvSaMorTEdNIOtDtVLdjT4gvVDjdwPVbxVumZOfFWaDb5aueM0p22K1jbttsUaxZ7QHE3RvgTCAvDSiR+6lwonqJWIp7tGjvVD4+Wkaz7ACUU8A2ioWSupoQMJja5WhwLU5yuuA9o04gQMu5EreefE2Tup4Ro7oku0juhRAgkm1TpbNlbDBcZkdV55AWR6gkYz5GhXRxAdlCRKRkAnsaFU6mwGqWsYV8Yyb7wAGo0+bUUgR9XQjiSEdytX91ljrltJCvQar76/CsgYfOMAknEB67rKVyKvRbyhPDORQ2IdFiLZo9pVdAG7j5NWUJ5RUpiN1IU881hCytMYaoS2lRtWMVcZvUzvXMqT9/u1AnohYlCvHUNGjT3zcFmRC88CBWBiLt3iFgB16JSDtV+Oqyhl5dlHbJNGWDOzemy5R96waosH7Cdm66sDyI3iVPBSA0Je/orGmSjgrpiUVal1yWmz39iQzx7lEwsK7CJHmFL7oHylRFfmUHeZaCTx3yo/YrQjIDAmSjioaj1jVKHlKToEsJFKCyBWmzwHxa0SiwUw0a5We1gY5rWvYDpow1gzAjyfwZC+AiXs0f8BwM0+d3O6gI5Q7cZ0iNj7j1GUcUXE0fZ1GrgOCOi4MSgyK3lki3FJNl04bCz0TEZfCvCgg6M7iarDggVUThgK8PZKOr+wqjDeZ61UlxzcAkACafzS8K44C48pj5RCBSSrg86ROyeAWQuPpVpWo22mjbkCILzHtM1azjIT8j/n+QGwJ4yNAT8Bhouc95SGLmlsPdgJFdl77FU4AMw6NjeknGgswcpt7IYYoCMJjO0TITIFwHg+9ltsibHa3I4N2g4J2Bo6dnSMyJx0a6WxBWQAj+3w2DMy9vaTei83mRwAA8bYlXKloQKNbSxXGhJob9/rcNWzt1F2OFTtrKxXQ1XZe3+G4KahOkxk77OzY/TrTwZ0AeiRJXkpGUsjB/KR1aqA+rq5BN2qz7BfdHxxlrDVczxt8gzhC3m+K4RdipubjM3dS0N5vpsH/l2K+9beL6L92WpH5Rv6l/HQ+OSE9k/E/m/9RLUvrw+v38M+ne7vz5/TLv+P38/0p/O3t3jzBw==);lineShape=1;strokeColor=default;fontSize=16;" vertex="1" parent="1">
          <mxGeometry x="220.96263333553588" y="-145.4678961023044" width="32.6798036471705" height="240.0215827201473" as="geometry" />
        </mxCell>
        <mxCell id="O91nQu8UyTGTQkRIEwQN-11" value="" style="shape=stencil(lVjbUlsxDPyavGosyxf5mdL/YIZQMqWEAXr7+yrN+HAsn2yGt3BY2ZKsldbeyc3b493LfhfD2/vr8fv+9+H+/XEnX3YxHp4f96+Hd/u1k9ud3DwcX/ffXo8/n+/Pf7/cnZCnXz+Ov04r/DnbNaVQT1Yx/D1/EUr6/8PXM/7p8LzGR8pxwKf+YROvtpwM+EoC1q+F0uhPowLWL0opD3iOJAEYBIphNMjdxU2DbOuNEbOS5ssGKVErg0GMMKeifodYKBZgICRjUiUQJ2DA/d+LgZBigzLGIJWYoUuNx7oIlBswqFMhJWJgkJjaWBmp9kRvGxTSNhhkiwqUhp00j2nNmQIyqBTHoLPC6i6LA93AvlQQdEk+6JJJER8KFR35FiiBkzYDGXeoGTPOjmk8OA3UMON43EFLX2I7rYl0TGsLPQ3bJ63+HFrCBoHqWN4N15JEqmPQzfoSaALWFttYSxwCLCaunZGrLSLYgplUfBAFBFH9ObRMgoLujXTBR1IQwRLfcs4VMtrwY+u2ukgQ70aJZtjEmIJ6PBoN1mCcP8shbp8xteTxFfV5PxcMDweJ71/mP+ryxtspP5DJvaOv8h9Rq6CoHo/yU6ZGUbuHl/x3+VdIgORHjuErGmrUXD4bBYC381WPR32LJ7zCLsRT/pUKmLFLI1/hA6g341fx+U/A/5m/pXe9C/g49XWUz+D7ldVnAv3HhmXy+AD5WFw+E+xXMvEF41MXNGt/0ByjxFO8kL++fgpcfxGJ6/NCg/iTeFNoU/2jIcnBi8aGtTiLH5I2twUwgBeCr0aYAorZmVW3A65pE76OZGYAdex0ATGXIqqi7G9cpzsVCDrPvLG+guou+zuUFXYCWTLV6uRQbZAJJukcNU00XhG+LujKFJHwDZ3qi/CtUHCZFndBm1CNaNoIZbdD6APiksrMY5YynmdJvMAxZRvwnchJQDt7lCWZdrBLT0R8UK9xTtcqwGlrGi5L5iRyyQwc40w7IxUS23RdVjhmZZkai4FAPqTYPV60eIPCJbWu4xaDKzeWSnUsPo5Qytqty2nTBq/XNfnZbA4BNih7vED22CRw2ou7uN1+BuLOrY4PXaxu40tXuh/4APxpE5vx5ampz+eV9dXHG2DTtqsYF4dPaP1G2ftfAS8Nrz7/SOqvLpMfBhnO5g2Dhh76Jo+sonGGXHeM1yLmcX2BvfF0Yu4Jqz+CXayITz1sXsXbj49X1IfD09P5EXb9f//qap/OL7Zy+w8=);lineShape=1;strokeColor=default;fontSize=16;" vertex="1" parent="1">
          <mxGeometry x="21.269691039953614" y="-84.54148316637088" width="60.26101420098121" height="87.31605745326942" as="geometry" />
        </mxCell>
        <mxCell id="O91nQu8UyTGTQkRIEwQN-12" value="" style="shape=stencil(lVjZUhtBDPwav6pG0pzPhPwHVZjgCsGUgRx/H02cMTtau4E3H63dkdSSWrPRq+f7m6ftRsLzy2H/fftrd/tyv9EvG5Hd4/32sHuxTxu93ujV3f6w/XbYvz7eHr8/3XRk//Rj/7M/4ffRjiMV6VYS/hx/KcTl3w9fj/iH3eMCL0oxTfhICeA1kMYJL1QZ4Au1POGZFOBjphwmfCAB50mJWnP4EC7jc6IkDp/BeUqkmJ2/DJ5fmUpw8Yzg+TVTmeNfqArAV+8vC0mCBqqzgTECvSFSdR4zVeByaRTnkEoaQThvoMTzkaRSbSBpmeocJGWKgBWZqc1ZUOM5ekOhwrOBERdEyXz4f4BTngO1CKNUHTGs0ipkRpiPFOsIw1mDxt6HpJQyMMgkcy2nig0a8UyNrKPdnDXgcKrGk0UjBdzor5idsArMIK7mRJrJ1CONDHgkdhgY44uCRKTRIU4GFXPDqDPTtQkpyJzFJNTZIFEABqmRzEdqBRrE5kuuWV8ABaGrVFtmBIRVLOrqDVBYZUVXM2jAgE9sPnWygJu9+F5pb6ig5IwZxeMzxPu0WYyAB8E3SktCAkkw71wOChy2hncpyCMCF/BulveOAOIZ/Cw3miaUsTHKPkhrWVEoYnExsrnEA47av8WfB41CK/zm8agXWfSyj6eC+GSvRSy/DPFRPb6Bfr2aIMa3AuKZRmte8FlBfCLpiv+o5HV0wQ/Wo5w5TwFj36TlqmdFyOe8ig8SX4E4enwA518NP8sXErNhVN+CPxHkN3itb/wsgJ9MiT2eQX8Qiuv6AudRP4o7HsT/s/g+AZJ3AG0T5rHPcBocuTTFfIklOLq1+v2g+4Bqpq5IoZDUqYwFYqEmBDhtatmVZW2wTZjCcuKgGk+RNA0+cSahkDgwCZXmyrFHIAllJw5z6y0F7lGm6pwiMoWekVoW3xxtNWwgDz2I85H6lgHCWrMvZ0slFJrBz7Mu4EEeio3TuQFE3FCz9f+ZrX3fRhNHfIuJikdI8Zqi70WgppN4p23zSmgos5/KttslQD5banTOdN+x0dhUn7g+SZF+r94Ha22oEVvFiduATUsC8pXqa5orvlcQrx0ZR8m2pjD3VryT9yV+FlMZEsOqK8x43ImTVc+c5gj361hGuS+ejxp3G6X1dn4UUBV/HitmNDvTSmzCrs3Fix2WsQqfNzD1uDJAXZvTWGaWBsAFjp7W/UggZ2bgBBLziMLFgc7eACkeM3ArDuNrF141MD5tPZcM3AVkg7zueCeSYCUbvvk6e8fjOJ8HX0xZDoLHo5uvz14Yv4+3D2+303e7h4fj5fbyf3+bbT8db8L1+i8=);lineShape=1;strokeColor=default;fontSize=16;" vertex="1" parent="1">
          <mxGeometry x="78.78833478002025" y="-76.33471931477402" width="51.289547865223994" height="65.70470156885358" as="geometry" />
        </mxCell>
        <mxCell id="O91nQu8UyTGTQkRIEwQN-15" value="name/file.txt" style="text;html=1;strokeColor=none;fillColor=none;align=center;verticalAlign=middle;whiteSpace=wrap;rounded=0;fontSize=16;" vertex="1" parent="1">
          <mxGeometry x="118" y="15" width="60" height="30" as="geometry" />
        </mxCell>
        <mxCell id="O91nQu8UyTGTQkRIEwQN-16" value="" style="shape=stencil(lVjbUhsxDP2avGpsy9dn2v4HM4SSKSVMoLe/r7YZbVbazUl5W4xOZElHN+/47u3p/nW/S+Ht/XT8tv91eHh/2vGnXUqHl6f96fAuXzv+vOO7x+Np//V0/PHycP779X6SnL6+H39Ov/D7jAvUywRK4Y8ehPDv4MtZ/PnwshBnKsGIJ+JxXbxSGka8UOTr4oNKNeKder4uHpmyvbycpAgAjTpbQFP7NwFiXrEAOanAP6lRsibICTKZIzWrgQMN4FIu1LoFZGIUskEpW4BcCQByotAsoKvftgHZxy0H1bkNaEqyGRCpdAAQZiQLECaCwJVEyVIjV4rAraX4wInOhACdinWr6ERcqskbXSoxYGstVC01qiRnAoChVJsBrFZtAppkr3VrrVSA0U3y11JDdKIC0Bo1a3SL1NGVBg1rQ2PNkE1AjzRspKdLArd29iWvVXXDNqBoys+Apm7YBjSN6wIw0JU6DZvTrRMDLo1ANXvAAFcaSQvjDJDAIQBTHR5QEaBQKB4wULEfFFy1Z4ogDgLIlq093wI0a7SEsgO2CmA4QNc6st1QQvBJLaEZoPRNKqzVF09fA3SnQboqKN8CcIVpiBHYTclpGNr2tgF91UYDHhsE4Tr1pAKxqWsOL4xAXW40HRUWbkLVVQC1+0D0GwBr9YjK4GsATz+xAQM8/QqcBabA2shNGQH6qACKjcOUc4iuXdk8AxIuNMPXvn6T386tYnTCdaO7utEoo8ANdeIiR1Ef3QAkHbquXsm2RamGN67k6vfELnwl16nlBM0zU+BWGQcLU9eEXABgPnwYkH1rFy/BDsErDQU2XglTcIHLuMsFyg4gOwWItGSwj3SCGoSb0cUhEoM4CPuzywfcR6f8cjktZQZPTM0lUIU2SCN3O4qUGbRnybjj1kTRiYpAyz7jRCdqKDK5ulFXhjjU5Gr3fVd+AuWDTN/ZpmgdcBCtUdm/GKYD3iDYaUjQS7KjuImpDDjfl9UmN60caDEb2qBmAEMvyVbVbRctUTPk2q7o3FoC5JJshi5wWYYJoEH2XVcE5JIocLzas2S5HGDqk53d1SXZdyuIQ2r+Six+A2ydnlVsTnOCOR1Xw4norPjtxL0KJKaAepy/Uex43dU3hlm+wOGH1b5ZPsFZPeg2cplB4WPRqtKLPBpyg78PrsJBu/FFHM2GwROi6QZ4Tdx2f2E08P1qKSk6fv/fr2c4EwblyeUNEC23K89ESP3gB50Ac3EV1gDzZM7TxXMnvPuHXkdvisvH5SH28fD8fH7HXf7fP9zK0fnRlz//BQ==);lineShape=1;strokeColor=default;fontSize=16;" vertex="1" parent="1">
          <mxGeometry x="-238.41526093709285" y="272.59413640539856" width="186.76799525049296" height="25.937796145607535" as="geometry" />
        </mxCell>
        <mxCell id="O91nQu8UyTGTQkRIEwQN-17" value="" style="shape=stencil(lVhJchsxDHyNrigQ4Hp2kn+4ynKsimO5ZGf7fTBRcSKCmrZ9G43QJLYmmrPTm5eH2+f9Tvjl9XT8tv91uHt92Omnncjh6WF/Orza004/7/Tm/njafz0dfzzdnX8/3y6Wy9P3489lhd9nXCFtC0j4z/mFEOu/F1/O5o+HpwvzEIh5sG/EAuwzSRzsQyLO2wAJpGEENMoIUCnmMYJEBQDUQpYBoEINxBANMO4QmbhtA1KhOgZtSwTgUq6kIyBF4rANKAbQAZC5p+EqoJoDY51zplC3AS2SjFkqTAUE3SrV0aUSYVoDs++lyj0P17cIPe0roFAEW1SlMPpUGwkIoiilMrY3UwJpytoLuwICFUCgJKRpBCgsdQxUx6CtNBHsYN2cx6BbogpikNWBFWBpBXUITNUBGjUGhSPlyR54VHwrmX0GIeepapUayGminHzAKENpKnLuK7zTPvWqb/kz0t9KHEBfW7xufYUHUpnqJf1I26iXVG+PenRpCJ4AIKFBSCaPEshQUNLiQ1YQcohTDSIl0KMGiI5nNkcKBLg5Yl2ERpvFkN0OlQQNW5n6tMFD26bzTDR4aPu6XRzK10/UD26QqeUpAjQ6O28vUwSZI2WqASiaMdP5b0WGzI/uJLIugsz0fa0UQT4nabHwAM3x7u07iVZ7C7/TfpFfruUYUl9Dz/c6YiscT6adopv6VjIwbRJTc0M8Qern4JNkOqCAHYpMQkSgTDCdUkbq1wCpb7Ijjid8SX2J6wDxxDH5VQERTGx5RZhgWnP0rZqsWdDQVH9ApgCneJQu3FcZjLW/ruutyrxQA2y2y4rrJWXokp3Zjg8Sob6zuo0e2W0kgKyafnTXHWtGwH/2kzb2BTbMeSyywtNrEtgCs2POeHMBDcGU3fDAA9avzl3Ybpi36MyR1Bc/yRgqKPUExmMveoHGb0yZ5FdXKF/V+44usNlnJsBb0wdv+G+a28P/jwn3h8fH87eIy//9xwd7df5woZ//Ag==);lineShape=1;strokeColor=default;fontSize=16;" vertex="1" parent="1">
          <mxGeometry x="-64.54111476772277" y="271.45316903761795" width="40.193025484220016" height="47.125261600989916" as="geometry" />
        </mxCell>
        <mxCell id="O91nQu8UyTGTQkRIEwQN-18" value="" style="shape=stencil(lVbLctswDPwaXTEkwOc5Tf8jM3FqTV074zh9/H2hqoxNWN5YN5rGCsQCWGCQh7ft0+tmYPd2Oh6+b36Nz6ftIF8G5nG/3RzHk54GeRzk4eVw3Hw7Ht73z/Pv16fJcjr9OPycvvB7xnGm7CYUuz/zjZCkfxdfZ/vduL+wl0qcO3tmYgAI6iD2DgJFfxsQE9XeQ0iUASAlir2HWKgCQC4USgfITEluA0ql0nsokUq+DajVPqlG8uE2wDtHrs9DTSTYhfc9IFMsAKC8ph5QKEUAEMq1B1QKAKA0VbEAlAhlMecrAIiheMrJAlAMmmphG3RFAE2ss7RWUN85UDAxpMbbvYDYquXeJwVYGgtBa1Ovo1UbAsSwkDiGsjGVBltA4FXFx1TWlbfAGBYaKDSpurtHI6yNBRnI5NGb8lWqP3K5DAhUg20IRgBv9VsB/30uZ05f3PN6wcMyQsjFNS5ybdV5ZxBZFf+qqxFN2nO2XnEiVgN0CJlEKHEJ1EaM5HqxzHguBm4TpAGSowRminAj8WOQ6uADHnSSx74jJJEHtHqVlb5JdXvIQJkccR9CgP1z1W/yiXk0qwk091aSmByi0+qLdhJQCy3RnhpNFurLNsbO5qjcPNvX4J70ukyItUdap8plvy+AHOXODDXXVqZl+9DE/MwmmoFKZ+rfow5BvGvX2s/t9XDeoV/G3W5ewS//tzu3Xs37ujz+BQ==);lineShape=1;strokeColor=default;fontSize=16;" vertex="1" parent="1">
          <mxGeometry x="101.42187826996178" y="214.42410858890344" width="11.296789042844466" height="37.89513492338597" as="geometry" />
        </mxCell>
        <mxCell id="O91nQu8UyTGTQkRIEwQN-19" value="" style="shape=stencil(lVjLctswDPwaXzEkQYLkOW3/IzNxGk/TOOOkr78vVJeyAFnryc1RABEEFouFdnz39nT/ut+l8PZ+On7b/zo8vD/t+NMupcPL0/50eNdfO/6847vH42n/9XT88fJw/vv1frKcfn0//pze8PvsF4nz5JTCn/8PIvX278mXs/3z4WVhX6gFY9+oAPMYSKx9oZ6BvVCOxp6pyba9/jva9yeKddueA5Vq7AO1BOw7heTsQ9i2z42Cf38A8ZdKws6+g/dLHa+73Df3bftaqBZjn4lBvRpTsvHLSNh1+05i8dMpgnh6pmrrG/UCoAC9ETsHjSgixM0VmlOURlG2jigupxX2gF6idAtSJi4wS8mhulEGZW6Jmk1rZqo36mxPyJ0KCEk0r/YOpcBOEAWmzZIkWIjCgxlmB8UG6P1cfe/ordAJOVKxWWpxwPd6N+sJNktNwcTAgSnbkLqmATgon3qHTBlceuIrSwCdIaOqQ+/eIYAsKUV2SwE9DRK/7pCpJ+/QQVqV0+sqpIJOkCtZYpRWGaw4OxTIY9rBjre7DLBsndBcHZSa0QniJ6fyiIAW1SyJBV/vlNFsW3GlOnTQolrpau+wIMMtMNXmj6gITNGzgDogcp0Ehvg0RUBM6hBWhUAjdHJwaVImQ4WIfqRMUwmVOlJzWeKBlq20ysohYhkjq5aDJ2SvqyYH3KMl+pASxnda9WhA6JMVCxRMTNd6FEJDBvcuoMHoBPEDYpIT+NIfdOheCuhEiUhQ8tBrs0OCLcpzAPNUFCiJc/YSsepUBCGV4MEnGYo+Fa3NThR9UpHYKAP9s0OgCkKqidiGpPoHSbLaPWvorK+ggVrx4GOsEiela+ug+BVQh0u7LHQo0g49+rRG3SaQrKxeJcYMt4cJahZ8qr4jaKCax7Z2kfcNFVoHuy1Dg+uY4sYNUYHvz/PsuNgzqIGubx7aEHcc/SpQh9raouHsKIwKeL8WNFp7XbcR5Wl9ukWdPqlAxzQ/0BUSSE5mn9A4b6TXMzS2ioU9WujTGMVLTCNCpcQrexBP9HNQ40GL0kpdqD0DhK6+F+j62UDHhFX8MgT+hn1wLVxuxOOW2xv1DSvAMRT/YeylC3tUrzCysdznQUd+9HvTbXv9cfm49Xh4fj5/G1v+338M00fnD2n8+S8=);lineShape=1;strokeColor=default;fontSize=16;" vertex="1" parent="1">
          <mxGeometry x="100.39109198591996" y="209.73073542973157" width="58.57822151464643" height="49.107646340880365" as="geometry" />
        </mxCell>
        <mxCell id="O91nQu8UyTGTQkRIEwQN-20" value="" style="shape=stencil(lVfLbhsxDPyavRKSKInSOU3/I0Cc2qhrB47Tx9+X7mJjk1pP0NtmrVlxyBmSmfjhbfv0uplSeDufjt83v3bP5+3EX6aUdoft5rQ769PEjxM/vBxPm2+n4/vhef779ely8vL04/jz8oXfMy4lknpBpfBnfsMU5N+Lr/P5/e5wc56ZSjTnY6GU7wNyJrYXpE4x3geURDXZiBTA9wE1UukGUAJxuA+QQLUZgH4igZBEAygGIJFCuQ9oQhIMoCVKgENvnnRniiCtvVPLFpCpgMJdAJZ0rxQaDElcSLLUfh1QKds6XD+xDmDKbAEdcmgj6U69A0ClmAYACEnLVIsHMMiSSkMG0hlpSQYOAuWtgGAd1wvVCgHsKp0X/a4DGnV3g3YFQLpFyi5LcbHUOiCTuEoH6oBD0yQGDxDgaY04tOEG5LhC3AcOCCDUZcgS8sOHmG/qgBwXQ6DgWJfPTJ1cXgU2Jv2ZnfoaMQJoVxkcxKgxxWV+3FoOpEl7JVsx3eRhHcF+ZukVFV0RBldrZwJ5VUew+LwW1Aba4DkMqFonWwj1SAOFKOoIS1qYGrCQDkE3FitTBzdkdbUlraO4o10gEdu+oZ8QoI2Ul4g/Rntc2ue6IxI1G1JsS+tZBYTFkR+cqQAlBd9aC2z2gz0zHOqqOhs8w8UnUrcSSrBbsM+l7jBgsukktGpQeaAGvIjxehytIzH6lQpbOGa/RgY4BKPOSPHho3i6b1tx4b+uTNV+8skHOvvftfnz8/pw3dFfdvv9vOLf/u53en01/z/Aj38B);lineShape=1;strokeColor=default;fontSize=16;" vertex="1" parent="1">
          <mxGeometry x="170.23391528390357" y="209.22195116431408" width="15.053413086430737" height="37.18282581399308" as="geometry" />
        </mxCell>
        <mxCell id="O91nQu8UyTGTQkRIEwQN-21" value="" style="shape=stencil(7VnLbhw3EPyavRJsNtkkz47zHwYsR0IUyZDlPP4+Nd5wNWzOlOFjAN92Z1lL9qu6mnPRd1/uP3y+u6T45fXl+fe7vx4+vt5f9JdLSg9P93cvD6/4dNH3F3336fnl7reX569PH6/fP3/YVm6f/nj+c/uHv684CdU2UIr//PdAg/ZvT369rn98eNqtr0H6tL6FHs+XSwqap/UlFCXra2jz+kT/P+Wg8/lj6O18vUoo2a2P5P+1B6luvcr5+mxj+5s/Q7fz9SUHm9fnUMh5LI3jjvV1GHS8vgWb7RUZETyObw6pzIASjFhcW0guYjE0Amjw4OzSZDTGAMQZoDr2PD5SDdtvewDCyGxI/khZQ2VutZDmMsiVHqngALOXcg+NJGpBYc6B3p5UknnFe6nASyT14BNfmjlkVjsastvBQiZGaxoH2AEKsQHVGReAEkDqoesMKKEVAgBdFQ+IxAYAZHFrJwWEgjR3pDQ49gzgkg+RzoQjAcgyA+Lw2xmgzkfKjaY3jNa5gDKnGcRBZreCCBlAo3cr8rcStyI1/JHKyN9jgPnOAKNZtuYlDihRI7yEctGZBBA4JckH8paZ7JFLRgJnfRDjrh6EHKnakt4tlES4NfkdDA2UAdCg5ziY0jj0MpL5BkANkpqWGJceZyPjj7dAk3OipIwiPAaAyWYjeqIV1NCV5x06OgDhyqreTThkIfltdbj9BkBNkUCYeJ4BIBG/guhcyW0Akq6ol/VISryUU8jdAzKxQaPfYRf8M6JJixGNbLFxn3kAJUsQ11xCvVJmgqL1O9hgwzOA66M9D3I73WFJ18zaoo1GfgPE73nJ5iO1TnljI/zZ6NbGIc9C3aIHMKUL8eBqFACmmCBPWvE2MKM1e/HQJSRCG4rZxXwcOok0ALZEmmljAJyYRi4x9Q0b1NlwEyxnXooLbbCJBo03LwXUmTzpw8Q9gGsyb3Tnqg9dTrzRTOqigHr1bq3MBkTa7YBkYQIIAFdxcDTJVtjg2VhoH0WJpjlwrfPReBn9UEAscChRN/ptJcpS40cBaBBp9hLkBLMBLcjEA5hi2tS8egDVZOJnFACEeAmjX3cAozRTzUssqBPWFTex4WzAJMf0T/TauPEuup14Tr5auJzpvgPVGIwZvdzLQPUxmoH+cZE2LnVtUYmWxwR8nBppEaJpTPFnE3WeCwh7Nj5Rp9lLGPvpvPtzov4G+DlR/y8m6jpKfn9LRlgDP3sb0rjVOgZgXHAAocyHZI5z4LZbLcJLZr4DQUEZuw8VL7AQGWaDLVNT0nHHewzIPpe2O2lScSAVZ7QYVZUoFyewJFNufUuE3a0xkz/aRqq9DXJ03AWRlQXAptdk/uIeR4qspsVftggaAH9V4dgbbmU0Y6Pib3GTMRQdh2F5tSGhMrXk55mURuCPfRqaLusZxSzrhRKGeNWNJyxkMnTULq/ZTBm97JFOcyh6dhF+17UIBkGfIIUZR43s8oGNh9HLBSnj0v/EP76M80jZk/U/9qru++vx4e294KeHx8fra8X97/49Ih5d30Hq+38B);lineShape=1;strokeColor=default;fontSize=16;" vertex="1" parent="1">
          <mxGeometry x="169.98695296085316" y="206.73625970863054" width="47.38454002722074" height="42.050978813232405" as="geometry" />
        </mxCell>
        <mxCell id="O91nQu8UyTGTQkRIEwQN-22" value="" style="shape=stencil(lVvbchU5DPyavLok3/3Msv9BFWFJLUuowN7+fuUNnjPTmukDb4FI59iy3Gq1nIf05uvHd18eH6J8/fby/Pvj30/vv318SL88xPj0+ePjy9M3++khvX1Ibz48vzz+9vL85+f3r//+8m5azp/+eP5rfsI/r34atEynKP++/sfQ0OX///n11f7T0+edfXb2MWRiX8OQo30KEq/tVULv6FAHcaghwopySMQhxtDq0aEEJVuII7SBDl2vHVILApuuIWcSVItqRIferh2KuLC2oIk4bJ+3dyDfUC0NqnNgB11Cc3sY5BxqD7W6Tddrh6ZBBjrUQhxSiB0dEjmHVkJyDkL20FpILpc6W9II6nKpkrB2cVEqK+HPHfzB5ZW/5w45CFygxJdU3I2LYZBc6pb9Ax2+n8y5Q1sYtEOlQlKjj5Wbm4PhCDlp+3V2Diy9bQH1uGn7TnanbYsdHDq903ZMo6ODkJO23Cx6dGghsj20UNLRwVKDfUNbUd8cNCSC3ubwPSbLofWQuUM8okbLNJcmqBzDarCgBIwnRhyRrxrMEKicGHE8h2rZyh30uOliYWAOJYxjWEvkUSqYS9niRu6DOTRw0JVdlw7Hc0h1lclLh+MFSsrT23DuGNbY+AUyh2NYo+ESj1I5wkyUkPiSynEPuhWAK4d8vEAaFx+6csDCzu1TaHB/QmL2isdWub2s67tlXhgkU7ur0VvIrpAegLsEYbidcb95feG5fcQTyyGy2iYLEG/2wgiAFR64BpySWCnMYN/Y5xuSNLBn+zWO1AfacxKmuJ5KztdYnlZcP7liBmyiGB9GO+O6sTf7QfIzd2TOdl7kQua0+NwuHxgz76u43OwZIUzFryeT9RgGAh/MoZDPt+s9cP2M58zrUdCeIJy1dwU/P7NmqoemGB+yX2u+tGP8yflqwu4u07ZF1eMDw5OxSN/OnKRzP0EHkj0VmTU3L9gqZ1qNympzN65Fj6oiklgpYqFxi7eza+RoGyKDDgo9VsyP67E+m0FPCw3sC4UGQ4Zj6bXDzqzpwEYrJZrK3SEzpycdiasxLMal+wKyzb5Sdt8WsG6VVCj1dvEv/Ko3jGfpi29d5A/0DsaKGystiJx1+4SL9M/H+DSh8XHIPLt9VlpCOZ5Xq7RUbECz62QGuV9pEfLt+qZQSL5Fd90rFZUiahmz/yT5EJEJGPej0ByGoj2jhopk27gok9109VD7lp7YC7Y8057gj2AzbPZK8lmQudl+WakWzAeLP2uQBPOzb1zuBz+/0+oiGM++tdJX8YH1WGNMPx/wx+xZF6xYS81eyXp0EZedfSLrUWTCnTeocRGLXXxYU+6YucWf3ZcYEux3UCoTXXwGlUej05CFUnPFftzyP5L6qKtR/EGJTVCdGkqppyDzn+uh+Q+d6dwvXY86vBISf8HOZZ4XwWdZzHGXD4niz8/aV6fFsXhu0dtJcay+xyXvb/WrUX4YsdNvmfKfhPywKeV7yclwnN9m5G+1UDzJWE+tt2X80LHz0mj+F+ykSqL1q7hWZND7W5GP5UKlhIr5b/yTzckqKuTGb9lYwGmUKS9EurCHqVoS2io7vjc7DroeyLeYKT/Mi01t9krracahhloEyHklHApOKZBJD7j+TrX6iO1RoUJFxHlgvHN5QeYSygWMazcwZ6WuLuJ4M2eVqCNzNqrCNEyUEGRt5lJCgEZ57eZKogAifKeObm3EzZ7x8imxgIZMt3v79c2+MsnHSURKccRLUEr7Oi9xbczj3N6NtZT2mVOiw/XTOpGQOCiVwHPz62EXcUqYeL60L3XD/21WfynBFrCnuF+Q2AqXhJ2EzHHZS9RC89lL4ELj35ywIXSUNSV8xCrW180RAcIJ44VGuxwWsjrX3QBSuMbYkQgI5Z2zDXXxZ0Nd1+jw/BkJh/Gcl/upWuISrBMaC9UZ58j4GP9Bn1xMe194+RAbvuDelK+FBFKjLMy7cgBuPtkum0k3LHmx3R2TH5NuTlvZiLmhXJQqnTTNTcNkhNeN+TYA5O1KBVxzAIZYlCpqw0m+hUvW5gClycCVDoA7cgND186+Ybiu586zkeFkRz6SGG6EcZtJnvMJ8UoTZyz2FfjQJNN3VOYAvXxvtNebJwfiGhcX5hMKUBMTRe2R3dOuxFljRP19PhNkd1RO3lExAa8P7BAndLLK5kYIg0vSUyF2D+DYa7NekLsMLoL17enkzoGxF6u2+His0za0i3t92RfhPucLwwm1gzZydl+yOgc+xIdXHYO/0mhu6mwO7MbNJ0ruG5g4Md9GdnSg3X3BQekEEgIbVd2D0EH1fv+CdIc85x7+Ke+gb7tydg88x5pHn/cKFUWKeRBMFBsuTFukzx0iDsTnheDPkRHJGte1xb11rHcGcfgaudKK4p93FtoAqLPP9OmYOFDKFDLEHUGmRMMLyfneIMjZM2HJ6DXkUKJPR8WhRVqfcGWf0Z4JEHLyWJZdAlljxp09o7fiBgWRCquChMRqORPGZN2PnT0bbP7sXyDct7cfbn/u8OHp06fXv5bY/x7/PML+6/VPK9Lb/wA=);lineShape=1;strokeColor=default;fontSize=16;" vertex="1" parent="1">
          <mxGeometry x="50.680893623935845" y="190.19551941588065" width="210.78140498435505" height="88.666165193182" as="geometry" />
        </mxCell>
        <mxCell id="O91nQu8UyTGTQkRIEwQN-23" value="" style="shape=stencil(fZbdcgIhDIWfZm8zQAg/17Z9j85U606tdqz9e/tmZ0c0uJ47xP0I5JwEBl59bp8/1kNwn6fj4W39M76ctgM/DCGM++36OJ50NPDjwKvN4bh+PR6+9i/z74/n6ctp9H74nlb4nbmSKZeJCu5vngmZ6jzzNAO7cX8FVKEsBuBKrgKg9oAE8gkCbLeUhEoEQKSUDZDLeWYRKIl8MEDRmHwfyBrBG6Amyu4+kDxxMoB3jhwgYu7TVAsVkFcWCs4CTBEoF4RctKeOxHIf8IXYpikHikAIf+MNUW94AGSSaoAoFIE3AlOyeWU+p2E5S9yfQZcQILVuQOwZdJNoS9Ls3wA5u2XZTIHECqeJ9kDpSaauRiNVcAY1QhdBzeLBli5WazpkSsBLV25uRaqWRyFawTQzRRIQYirJzq5atkBqLfouwqUxLBepthWb10vrWZY6UOAeyKCCtDV625mm9gmUC4Wc3VLJMMIE1BsA2FW9JraVlQB7n3c9oMKhCLEvIM1zBPZ25/umNQ1tVEC2G+fFCC8g398O2hNQuQlVu752DBfA+q0ptnqO5JFmeuIuo9DY7KjY71UxdJV4EntifPWorW++R/dC4t7V3DlIB5cHx2bc7eb3yvX//QNFp+bHDT/+Aw==);lineShape=1;strokeColor=default;fontSize=16;" vertex="1" parent="1">
          <mxGeometry x="123.8679608424759" y="372.87531245851915" width="4.672539772115215" height="4.665236216357698" as="geometry" />
        </mxCell>
        <mxCell id="O91nQu8UyTGTQkRIEwQN-24" value="" style="shape=stencil(lVrZkhQ3EPyafVXoVtUzxv9BBIvZMGaJBXz8vUte1NOdNZ2N3xZGOaOS6sgs1UN58/Xjuy+PDzl+/fby/PvjX0/vv318KL885Pz0+ePjy9M3++uhvH0obz48vzz+9vL8/fP7139/eTdXzr/+eP5zfsPfr7gUYpqgHP95/Q+NIct///Pr6/pPT59363MogutTPl9fwziuFw06ztf3kPz3x/P1I0jE9aWcr9fQO67vZD8phQE/YEemBFCCdAQ0sqPkTc4hkiNNEroioBEb7JLLQAC7BLu1AkaXkIkNdg0/Dn0HqOkcUOL6eAdgp1Ts44qAzn6hh94cgBhdNAxnwyC/UHPoHtAIoIU8HIBsqY7QFAHMu6tiuNlNsy21FAQAKWgngBK0IoAFaGtBXURHkmGahHg8VksZkfxCjw5gWYGEaM+Y9MScpRJAQRukhUZs6A3TklTqrX2EeswaYq7BbJCgCQGR2DC2vL4BcqjEhpGX92+ARNPMaCE1BCTiS2OskN8AMSjxVvs4VfyFTFLl3LEDVPYLxbmGRQgx2u61DjzWwn6hrfjaAYTcgzlzA1+y3EqSwAwX2FKlAWQB2QQBhWxp5ghFAMutaqfk4oHdtPblOTuAEPfWseJrB6gkgAwApzQ0VOJLtiUwuiutDxNwtMHyiFz8wnFLbVD3njYcj7UZ+7kAHCOullViTgHHYy1W6klMe6PLxqDOAHL8hRvHPANA2Z0MirlGW9xlA1gBYDa4JGAssDL3NoKlCMjENSxEIfOluPL5WRKoFQGN2GBpJjkAzXzGZqIDsNwa0fnmllgFGsj5DMBq3KhIpe1YE7HBStaPcNlfHKuiGjKcUqZVdBZ2B+ica2QwunC+JJiMDVAZoCITSJzoto2w7QBKbtpoaAT3riEx3pqRVRqA8aUiyL0NoMToUteON0BbMuo+IK20tQOweDBJA5zPAIOckokm4Hxpo75nskyOfMkSWSbOlzQkRUAjWcM+BrKeBnU+23EUBLCym5wsm+qUnNItgrd0H2lMq1ufVqI6aQg0V05Y/Wl4CbkstXyyHjSc7ZBljIbEfgpTJn8wwdROs2pfXHCjAH0Vo5PzAdpjKa0TNjmw2WBJtpL9yEq4O1rFzkewv2J1pbM65RpKmdc19/2VBpnbv2wecrIeiaqFGInJsfT4XqwyVRUy7EfWDZ74g7jvZ/7WnfDsYVB/Q3sb1TvNSYWyWnBn60G8JJqBOtYm4e2Fvna7+adQVdtRBU8aQ+8LeNfotBkxkHZdrHfdkYv9CFLTIbQUC7bNLs5TVgfrJ+9LnP9zf3B06MLfxLU5uD9vraKfjBdHxC/jEf2fx3t39vJ8YpSh4fmwfHV3PY1HiC/zTyYLKtajLrRbUVD+NePkZD/F1btC2yfGtkHx8v24rpdxU9Y8yaEdieisIIy5Yvwaq2NNAdeKN2bM7O1O7HL5MDDfTkrH9LrTZJmKuCmoBgIYU7/tdyfimDyZUkEQwELYaLEMBFTic5N4OyGayZYmtT96ReKdzflONhDAdOW8t4YAFpdTALmWA2ubmMSCzKg0UUwNB086tEMxRSI80NAzrY65CnU8k7mgZYQ6dqsoWq2UXAh1qPT0fHpGJxrU6YyXD2gfBiWJqzul1OlDpfF4YCqNvvwO95TLNb3xknKMgcKJkGIfo9CXZeP9qPRo4bA6h4mI9hl9y42/FM+eHq5nREXTitfbelbotWDbJvKuvvOfSO9rdtALnCfLQCrLHW/+TNvhiv4wWzasDavYL7QbY8+lBgCPmEmPb6mBOOdkywD9aMPsn3MbYN6gxUXAzgCQRdug+lndk28voXAAVL/ZBWVdpOg6vRartOOu6BpGwi+OCQcONl515qwKgEazqXbMdgZgfRKtbqShLSp5Fs9YzyrtVGlEKmuAzDKMuNGSQruk4poHcyyD5dSG6mxOirC3xrpy7g5w8cwgYHSiXdL5YOsAtO64XrImqmBN0EBispsR1sKpGA8XQ0QjuVmUSEn/rOUZbWDkqA8315RoG633NWO0uzjW0+8VHzIuXGO+fMDgR6HH2qPzJf5IbAwsu5hm8dD6MnEDdLol44Sgfm9V8j4gO9cQOjlVnZ4yAHtmqK5MKx+PuTN1pFevN/4XEkmVdyanOJW/M5t1Ifr99JfSh+45XxYRwGTwnQk2pXLB2C/mVqVDRJNuOqOFPcbI+r4dgKXK+Q4ODCtyjpi2IaP9TzAlnO74BmtHKLazJl+h7VMUkUqLqGv/TsdgM3h3vj8yYe7mXYUOTPh5Wt5uiqj7bT1z7OgCYdBRzri44G49G8yMdzIkK21xTVLsUjBzakclLcezdqVfX6jK9vvJdLDC28sHAPx5pkVdf/K+Im1He3+IlKb+3/nt6/X2x21Y/MPTp0+vs+b7z3G43P7rdTC9vP0X);lineShape=1;strokeColor=default;fontSize=16;" vertex="1" parent="1">
          <mxGeometry x="55.08352465429789" y="329.346846114114" width="189.08729924833779" height="47.32439985426572" as="geometry" />
        </mxCell>
        <mxCell id="O91nQu8UyTGTQkRIEwQN-25" value="" style="shape=stencil(lVbLctswDPwaXTEkQYLkOU3+IzNxYk1dO+M4afv3hapSEWF5O7nRMpYgsIvHwHdv+8fX3RDc2+V8+r77OT5d9gN/G0IYj/vdebzoaeD7ge+eT+fdy/n0fnyaf78+TpbT6cfpY7rh14zjShwmVHC/5y9Cofz98DDbH8bjyj5WEu7sg6eSbwNSoVo7ACfy7jYgB6r9i1KAHkqm1D8pe6oghlqsB70CPck7R851iOooCHSRpQcwReCiJstDVSIQQJ9kPBRilCamZDwolyBNWYiLBfzjchMgtYW4AqAsCRMbgHIJPKiYsolBxcQAIORjDwjkEwAkKj2gqFpADClfAfQKlCUVZy9XZSYA4iST9BVUPGQ6R8t0ccTgSXqf9eAogrRqTmKyT4qo5CJ5b4OOERaQkXeRdsU2QLXZa6lU8iBoBcSeB5UGoxjEZmkqWpClurShlbwzCHpSzlUBMVBr1nroPaxa1TZCqRbrQgJQX2pZXPWZAIIQfYApOSEHPGiNXvdKD4j4MiBK09oyITKcEKz35Q6gnQcRoUMw9URELTkgVx/afcsczU3xmwBHxTDt2yS+YW8nFiWgCx1nPcuZGJDsKfe1k/DW0BSz7ACwvWjD67PvW21vP0Y3kL7fuVYW2/YqBzH2aIioezOmcI3pCuWKsUftlx0lb+JFA4FjazuLdkiA1jhb+wi1+dWd8P/2evhcQJ/Hw2HeX9f/24VVP83LLt//AQ==);lineShape=1;strokeColor=default;fontSize=16;" vertex="1" parent="1">
          <mxGeometry x="103.87696493337307" y="346.8767660317817" width="10.56150174831464" height="23.721201143745702" as="geometry" />
        </mxCell>
        <mxCell id="O91nQu8UyTGTQkRIEwQN-26" value="" style="shape=stencil(lVbZbuMwDPwavxKSqIvPPf6jQNONsWlSpOkef780DCWm7Myibz404nA4pDTww+f+5WM3BPd5OZ9+7n6Pr5f9wI9DCONxvzuPF30a+Gngh7fTeffjfPo6vs7vHy/Tyunp/fRr2uHPjMueXJhQwf2dv3jXvjzPgMN4XAIKpWoAHMn7+4DqqIoBJN0CAEQoOwOoQpIAIJO3lIQpF0BJqBQLyFQEAFSlZAGVBEQojqSXVXV1QFdHsQuhLPN9QHJUYs8p1PuAGFqOV0CiAgrBZUUpEANvcKJgda2VIqDEmWIHiJSArlF1tUlPpQE5RNXEG0Cp5EGEmzmvgEwM3KcNUa37SmqV2fbGmpLKgDpoVYeCKy1x1UGePOqgupI1UuH7gIWbF6XOKERpLbkwE/KG/g42gtq1Al2Vss99QzBq0kjczQ2hinqUSXwPEJBDYqqhpyQgQkyrUZbhKOPrfovZl3CPZktpmoaoR9XNXaW1DqDSUwT5DsBLH0FPpYIAOittDjpIBFhDzWpV9UwOr7eENGIAs9j3CegQAfwTOdsKqfHb7gQSNssDNJ1P7feVffP55nrdrhtgjhgky6oFd+vRyabHSJJ+fzSyYxPvxh+Jrwdh57fQum57vfrTzonYBNheL+3AuFWXwWz8/pXq/wB9uN3g3sbDYb4ALv/3Nz79NN8W+ekf);lineShape=1;strokeColor=default;fontSize=16;" vertex="1" parent="1">
          <mxGeometry x="135.92121141109192" y="343.9086030793396" width="6.805256682232539" height="18.142029475670142" as="geometry" />
        </mxCell>
        <mxCell id="O91nQu8UyTGTQkRIEwQN-27" value="" style="shape=stencil(lVfZbhsxDPwavxKiqIN6TtP/CBCnMZrGgZNef19uDblLOjtF3tZrzlI8Zkjt5Ob18e5lv8vp9e10/Lr/ebh/e9zJp13Oh+fH/enwZk87ud3JzcPxtP9yOn5/vj//frlbLJenb8cfyxd+nXGVpC2gnH6fX2Rq+e+Lz2fzp8PzypyFUnb2TKVu2+dOQ519opS27aUTc7Cvsm1fGpUUz6Pb9rVSLyHeAc7TSjx/pQry04W6P88gKdv2ylR9/rlQAQ5UqQwfQCIFEQ+hIR6glAGA06VEE1EqJVCEoTS6A1jaOghiJOr+TJYHBm2khZJPkzZYt96oeYD51AYKraS+sZfEgTQ1iyF4aCTgSNU6rXqAkQNkybKuwYMlegCyWU58c69q+T6iUPOIMaiAUhtdQr9aEKjU1p3hTAM3E48rAFMDvWGAUGrt8xNbR2LvwdordwBgEt8b1q4JqZ6ppFeNrtRQHSplf6RuQoiO1Kl6ylnHD1S4EfvbPChoJuHY390qAxgkQuyVSa3jGQLGFanRMFkA3oORmlEMMuu6InVHHpg0ABoE5BFjMI4iOc4XuqwYh1RgmdAjAjqogzVf5nikAuqwjMwcg06Y0zkMuUyKOd18WnXAwi0i4D1opYKCTlErrfkgRTOVwDib1ChLJQ5eIxBaBUyNewA03BofBYjG5cQAHShfNdkKqmHrDJpZShxEQPC+ZELmh1w39QaVtiQ2D7BPIPVWmaJyAaQ5xN4HWBI9oOD5YOIeeskSzQDQU6TosmIB9W45irF1V0dra5lb+QWQp8+t3aH51jCWM6CoXC1MRilBBLIQfdBGWkVzWuL+s+z2qJfmmroKIQMNKJMs65BBFWTeLNbnQXvD1IdVwEhXea6DF3ubuOD75t3nhysc6SlelSzDCvJ5tdYzT48b9tnnZ8w1aMO8BzGaUrCRnea/XvFFMo7NArfIq01BpvK9z6+P3YL/a24P/y7cD4enp/N9ff1/vKDbq/PlXm7/AA==);lineShape=1;strokeColor=default;fontSize=16;" vertex="1" parent="1">
          <mxGeometry x="129.92487269807316" y="338.34685509482733" width="35.6435397084615" height="22.2162947787574" as="geometry" />
        </mxCell>
        <mxCell id="O91nQu8UyTGTQkRIEwQN-28" value="" style="shape=stencil(lZtJchxHDEVPw21GzsNalu+hCFEWw7KooOjp9gZMVbMKqH4t7ppN/K4cMHwMdVfeff/84dv9XY7fn58ef7//++Hj8+e78stdzg9fP98/PTzLp7vy/q68+/T4dP/b0+OfXz++/P3tg0rqpz8e/9Jf+OcFV0OsCsrx35cv0gqz///Nry/yXx6+7uRLmPEgn3tomeRrP8iXHmIhebOe2sJc1+Vz6Ef5VsMYJF+P8j2FiPJtHuV7WCBftt1t8iOHDOuX8zz+/uihz+vyLcR8kJ8pJJCXX0tHeXkirH+GeFzPbCi/wjDrGaGB/qQUlgHM0BIASijVAkhDUw3rqHJzhQRXkOSMsgXUBoAZSrOABoAcQ44OQFotSpMsYMA1ix3/0LIdgO5NFMPvYVYATHcPK3TSbNm0P1ZyLdnp9kLdLmUz9b1qEKCFmiyALk6c1XIAXNIM2djPCIv8nZzJsoABgBo3/7C3OFhSTdsCdoAKqlFLyN0BwERrDX1YQKEl9ZDqmwDj5Am4pHW2B7jpFsNq7ljBHppEnugAYA8SmLxqdHpCt7FEVQNibRvO8w10Aj2GaDYt/h/20POm/TtApvAjmy4WQDct4TU6my5wSn1YRqJLAjfTVyhuSQksbojFuWMlDiAhv7qL+6Es54AaklNvcjOjWRqjAHpCd6ckFgenNKa7B1E+eoJYnIvTxKymWJy/OAI4Lnbjpmc9UY1CTxDl6xZAIevVC+0DClyc/Hu4PVAUXTEk94QO2rrSCV+qYEBLCJaLQES5lxyrc5UJ/NLyjqxtFnIN0I73IOo4wHsLYB6pw0ib4zkHjBCPqiF5ADkyBRw33dqmv9cA6bgkCTGU+SjgeA8SVwvdw7AxTshEopsem/ZfkreFyZIATPYmxDTyputRvYVck5uRizNeI914QtnI/wWQNgs5B8jvHQ0oRcwflNY2C6CURryGyeEE0MnNFEvhZA8RDEhcZYoWQEmTuHujS3qsFFCyZWQCIK7RpwMIbQQTVSaQLID4kpATo3yJU1fhS9NsuqJfasW6GQGQtooFt2gBnWjo2Jz7BdBQvWuzEUgASNaz20PbWOC1/MH4JTVROKUybJaVOm5asiy7pI5LkjyumSUNjNMlbdR8B8Cqj7fpiRaX/aYnFhFyc35pYuFHK2/JAogZa03A7aHSE6LNUARAF5eWTcAFMCCgyKk3twcy0eTYvQKo1FLDWG5JcErqttySyM1oNHDHSgnHhYnsdI8IWbeMT+QpStftBHfWQwWBEpKzNlp/3q70QpW2I/65guzcCnhXxG08j5ioF5uMyQVSIlNsnUuDAp+OUemG68nOjLkem50FjC1GXJFPxcqjPtvbuvH7yZJ5XT+p/9n5wHlGW2LQ8wcDjrbcq/cL+pMsL1f9gfUkV1nFcluyAfxSPbgibrRhbMZ25XKNhx5bNL8i3k2vAFsp2VWoUBOKpYCLa6OhGEWWs0LDKuZiC2bvbjlap+fdereGhtWdYVFCl23ypIZIkcg5hrGVhX5O00SeGMdb5V1bpOHyXd+ooxvstmY8sC4oRme6WJgbi00vU1wKi3hG3nz8qy5TciKqZS8rommJblk3GNFaTphPQtdwwq244HDC3hJHLs8P2YJPGGhCJnPCcdPGtq6yaA8gj7icFScO795sEjJQyTVshSIhx9Vsxi0J059L/2Z/cZTzRdtz1XIAWFv1pCNyz6id1EAy2IPmrUddWvgASYzrMPIFzkgzb2vQ5Ow0tbcOA6sT0dXH8Qp6dX0NXE+/tEl2oZtaCNnKd+QdWr85ng9PQcxoK6wVHapWoI5mU5A2zW7TsHyrhmZK9Ynrt8lyG66grbJt71U+UhGwbW3enTxVGbsNOBH7xMuV9Qt2iNZySWFE9pRidMS4Y0FCHmGYt2Z+VOF2ayoRCxIC6K7+3OmUlh1GqRVnDpZTo8bZ5Fr2nsVzUFhWgJsHWrwH06/v3E1XwHHT4gyw6L5cx4eDpihfc5MZlHesYY91VQwHYg7VhIOO5FfszTQ05ZmTnuADAlfDxGNUB5ikGtEtiU/Jt+oEQBU93wzUuwcv49uNqo5wSuq2qwVgpyGdAKiLK4Ekuz1gZJs20so9UMFkDEtTBUC+eDSbLGgfi5bkuumqreBmfL9e21JwD34iYDWMh37mQABUlvFTDathE8rPTQigvmkyQwHUwHGzH7okmsxw0yUCQBbp5lcEQM7YT8jIxVEz0M/gLI6ifsrntWN5jQkv5yrJa/hJJQFQ88PPQql7Bm3101YKoAq0m+d6DQDnADcxdmtJbiZtcZ9Yp96WO1bK85bNkRYzgTJtAWx1jA86G+h0CUebm0uS+q35RjPVcOOUSraZpE5S0BMurHMHoDidL1F554ypXq9zpssCSPkkc7GucqBv1bqHpw5UxognEYiCojaEzB4WF3vcRPGNKJqqzWc0TlNFzPVBlO8TILlSTOQcSAvvza0JR8dt2OX+ZLdM+pbjc9Hh8vLClQqpjeqRddtNRHec2kvWw8yMw2LOhQ2u8EbrVAcXnlyGKCGekno3CNAWOotoz1ODI9xvtOMYEiYWtZ/tdFKpOMOVLD/PDRurfhBoYuaWXa+aZ46zbUWJGyB9yHa/qWFSlUNz8txemma/Fd1csXRNh1tQvrhhGPIPLsWT9RP3Kq6O2rDV6F6ludH6FG00HamB8v5VqYl5+VtfrbotLx9e3+P69PDly8trYPv/2/e+5KuXd8bK+/8A);lineShape=1;strokeColor=default;fontSize=16;" vertex="1" parent="1">
          <mxGeometry x="289.5333037113601" y="325.77773687869285" width="214.04847854052878" height="48.113645160128726" as="geometry" />
        </mxCell>
        <mxCell id="O91nQu8UyTGTQkRIEwQN-29" value="" style="shape=stencil(lVbLctswDPwaXTEgwOc5Tf8jM3FqTV074zht8/eBqlIxYAmZ3CQKKy6wC5AD373sH553A+HL5Xz6ufszPl72A38biMbjfnceL/I08P3Ad0+n8+7H+fR6fJzfnx+myOnp1+n39Ie/M44bpDahCN/mlQIx/lv4PscfxuNVfKzQooongkTbgMzQsgJEAgzbgFIhBwVIDbBsA1qFpAGVgXgbEBABUSMKhORsIQyqArQAwcm6JaisARGKw6khZE2pla7MKkByNEIIyejVNUPSgKs6rEvXIFS7BTmcMkFmmwTnbUCSHIstk5dEijYJKVxxlEsMNWmpMxSPUrKUKkF17Cfu/O//pYNECAeQE7CWWqRpjjcK9aovACHpCCcESrYAdqokNTFmEkqxOnZlQLNDheIBZKw0W1ZvDIjVitFBespruQbZKN18wNLzi5e4N+E6QCadsbd4yRmWUlYyDbSMzy3h8KapmyNcCZBuWjR75ov98xWl4JhvGr6mSqlLudVAxt5SN/R2+CqAi+3pLGeGYz6KwLqsCV17B/msKVHrK6sAhKZlCLKlk8LNARSCO8YQyJTIFS3YGZb7mbp+qAPqCbbUa910EHU4uVeGcMMmdJevx0vX6P9L9g57+V0IJt471ijZGwn2hNbthn2cf/CPjlYs1dOjjj+zsxmNyb3vfPXK9nm8PHzcD5/Gw2G+Xl5/t/dJWZrvonz/Dg==);lineShape=1;strokeColor=default;fontSize=16;" vertex="1" parent="1">
          <mxGeometry x="322.8255037752456" y="337.8203281155213" width="10.720595564268024" height="20.02719986873535" as="geometry" />
        </mxCell>
        <mxCell id="O91nQu8UyTGTQkRIEwQN-30" value="" style="shape=stencil(rVfLbttADPwaXYldcp/nNP2PAHFqoa4dOO7r70tVkGpS1QQFepMljkXOkMPVIA9vx6fXw8Dh7Xa9fD58H59vx0E+DMzj+Xi4jje9GuRxkIeXy/Xw6Xr5en6ef78+TZHT1ZfLt+kffsy4TKlMIA4/5xscqYbfdz7O8afxfBcfE4VsALESp32AvqEkA+jUQbwUCmzi9Y1tPz5l6tEmRFL247NWHEx8oAAKLpp/dvHC+/E1k4iJF4rg/5t4BQoxiO9C7OplEkBQz5SdYitlfwdUytX2hFABlPZOwQIkUQMcKaA1q3FbqtoDdEtqYUqgixTAVuWqfYWLrjalpjQgQF5KXPs6UxUoXLbCTTSgN8Slce4AqPVao+ZGLWFAoe6Kzhigw9AtrdqOoPkUEK1wuUPhpgRsDTrgXGENYmkVJgY6qK6ulybLQzqoQdiU1AQbGlHtzc2IMpqHRLX7NyBT7SqcnWl1JTiizbuwBFxD90on7d8OFkNYfXSVumJeO2UrRI3vFeGstSXo3UpTdjOqbouFEDdybWF6b0a7Bdzx8J8Qjb2XaYOhpKpWYbtDnQGNhO445zRtXfO7S9S2kyYZQcMmdV/bTi3ClPQY4Na6AgI6ZxQqDiBUgXHEjTWpMxTEkt+jKoOAidiQqvERlbxMy5qP7gcQry7jVM4w/7hku45bpwrGTR3FrVCmDLw+eD5LogT42fqFnkuAYGHx0NWR8IYOi/yr5fWlRXb4Ke7gxtC/9KmdAcYn4c3JWRVH/Pzr0fz9eL348x3wMp5O82fE/XP/3aC35m8OefwF);lineShape=1;strokeColor=default;fontSize=16;" vertex="1" parent="1">
          <mxGeometry x="308.7856833443325" y="336.4394434256626" width="36.8588270745754" height="6.242073324201328" as="geometry" />
        </mxCell>
        <mxCell id="O91nQu8UyTGTQkRIEwQN-31" value="" style="shape=stencil(lVjbUhsxDP2avGpsybKtZ0r/gxlCyZQSJtDb31dpxnSt3ZwOb2HZs5F0LlZ2Jzevj3cv+x2n17fT8ev+5+H+7XEnn3bMh+fH/enw5p92cruTm4fjaf/ldPz+fH/5++XufOf507fjj/MTfl1wkii3M4rT78sVLcTl75XPF8DT4XkJqMQ6A5RYrgNKIbUZkKkkAGjUeQKUTKkCQCaZSxKmBkqSTC1PAK7U+nUAC9W5B1YSUFJuZPNYpZEwABjVFqckDZTkFacJUJkK+AYnrtUZ0Knk6wBNZPNYG4+5bQM69QAosOlayWamm0LiuiunzIBGCRBnibrMgEoKxGdCugI04AerlAKgUwbSsE5pZronqmBKZrHpLtSR+FKiNGujN1KFX1H7BLBMjOba45isjEdcG1OdtWFuCAOAEnPGi8xoTJm0R0ADVPce1ecAlDO9jiEuemAEKDFnvCsFDnJiQ1Z6V0jfDpCZB2dagFwdYAEgI3m2ATqet5BrQU23EUMLQyQgvm5kwdR1xO0200x1BVAkjfcTahEbijzaRovvAKyls3KCqT0rsaltloari1HTRj1II0G1nkuaQ8CzrQLxWYtMu2kVlaSUQkkdasmJKyuLVhSuDrCPAFybPPOwCMPtM0gp59hEBwCtg9hFCqBjsawC3+cqwNTiQbcKV0U7WRqrwiI2UA/s4pzn6q7tgOqsVOboc31XYGpPvvn+2saStnn/6sQqBlv2+2cSfAYM/FbitpTLGMF2w0I8A/zMxRtiOEyw7ETicpWhdQrHHVfHF15b3sLik5kyaEBXp6FXhNxfJaaw94REV0uMC3cGI8BKFGpjw9zuQeLRU/GJXiSmsG+sBrwshbJFADI/+zIYdmKBTfNqyfCtG/HgQsjzlFqGB/RZyRanhMzvaWEB0IZ6rwHCxuop29CPGR7b5jvAqcQADUznwcy1pgMPriW0lXhihBDWBg3kPJSgVoU7gzMdeFC8Q7uWNEcAKunjP+7/D/AP/94lPByeni6vIpb/j+8e/NLlvYXc/gE=);lineShape=1;strokeColor=default;fontSize=16;" vertex="1" parent="1">
          <mxGeometry x="342.66275871919197" y="338.34857444989325" width="32.021736545366366" height="22.992676576044914" as="geometry" />
        </mxCell>
        <mxCell id="O91nQu8UyTGTQkRIEwQN-32" value="" style="shape=stencil(lVfLctswDPwaXTEkQRLgOU3/IzNxak/dOOO4r78vVA1dg7K2k5ssY0UAu1iSEz+875/edlMK75fz6evu5+H5sp/405TS4XW/Ox8u9jTx48QPL6fz7sv59P31efn99jRHzk/fTj/mL/xacEItzaAUfi8vAtXy98XnJfx4eL0Jt7+Lj1dquh3PkZq4+Cgksg3ITKE5gKUovA0o3BPoAFbKoISaqQYHyI00bgMkkxYHqJEY1KBM1ackkWLdBrRA0ackSgxqUKWaHaAxRVDDDGAPCJQTADRKPiUVUlC0fY+jBxQSkFKLpL4GzRQbAFhbB+0x5QwAhbKMgIJqkFXRmQpaQVcpVUqI6UbFy9uYKQAQQ6Dgc7LGRTBytoT6nKxxCsRkgOD13SpxgG0SX4T1AVZdu/yvgIb7mom9XG/6cB+RqITVEkhNgbSORcCZa107N23KeOZERyKQWc5SGFaIfai2AM0zN885WsG0McivQiuzBNIAMPtEU23+PdgAd7/donrgYZ5qYPjW9VrGlCICaLeVG2eqwPtMOTxMtSkeybVRW7lrwjP6MYCmkWkDCACIjCNnbY2A6aqjMwn3Xen+xmsAX4Nti8hnsnbf6oAS8OFBqHhADt157p9OZPRKO39ksEI0t/ZtTUwMmL5K8+pLBdKQKPk9LmYYH7uPXuNtRUBCGDmIEW66q4OGGQIYndXeI5Bh07DPpnS72QgXb3eZAtoKR4EmyG2iOrSyZ7fBbPOl2nkG5F5GYvH2VLtp3oSDr3/wVP7fcHv4dwF4ORyPy/3h9v/xwmCvlssGP/4B);lineShape=1;strokeColor=default;fontSize=16;" vertex="1" parent="1">
          <mxGeometry x="375.139360660522" y="345.14292942418865" width="32.799919339247026" height="22.6107244630723" as="geometry" />
        </mxCell>
        <mxCell id="O91nQu8UyTGTQkRIEwQN-33" value="" style="shape=stencil(rZbdbtswDIWfxreEKOqP1133HgWaLsGypEizrX370TPsRXR9ugG7cxx+pkjxHGmQu5f9w/NuiOHlejl/3f08PF73g3waYjyc9rvL4WpPg9wPcvd0vuy+XM7fT4/T7+eHMXJ8+nb+MX7hdeK0UAkjFcPb9IaFMv9+83kCjofTDdACaemAKNQAUBKFHhClWLeBXEi4A1IlbdtAapRzB+RKMQCAKfUZSqFYtgERqn0Ga0NCgGWIPVAoKMwgfZdaIwU1GJBbByhTQxkihdQDiSrYh7gsYAGsrQKARNkBSgGMBivJCtAIABs18UADo9GouCY1GJ9Imi85oAWt4q0HID5QcAUzFdCh4L9vU1HA9yMlF5+pZSBOCi5eZj94v94wa30BIpxrLsRurk0aALCWurk2oAGpWQ2ZfQ2MtBlW2swUQZNMOU4IzQwJCGG0C7fN4SNtVqdNgftmNbDLUCghMa922pSQwU7bPnhAqSIpZCp9DRyWcd8aJok+hQA1WAb16kRLihT7ydA8G/9/iedZi3N8zfAo5EjcA1mJEzTIVjsg6UeeHXu5pUARtEjM0vue2mgVkMHOYu7nwtpQgRjsLNa+aHNxNKpV5hUvS4KnSF0sbklABSyoqjfhAOPN4bKPD+jMKfOe3sQDGTTbUnbxCcSr2ZG6etHlRbP3bCsI1GvG4PqTiFG8ej/N8xVxQ/arU9BGBKhgNB5ndtB+dXUfZJ7vDe8D/3oJ/gvAHv7cuZ8Ox+N0Zb/939/R7dV0v5f7Xw==);lineShape=1;strokeColor=default;fontSize=16;" vertex="1" parent="1">
          <mxGeometry x="385.8257113263312" y="341.84165950828174" width="14.338174639649878" height="26.121428643963327" as="geometry" />
        </mxCell>
        <mxCell id="O91nQu8UyTGTQkRIEwQN-34" value="" style="shape=stencil(lVbLbttADPwaXQkuuQ/ynKb/ESBObdS1A8dtk78vVUGJlpYY5CbLOyvOcPgY+O5l//C8Gwhfrpfzz93fw+N1P/C3gehw2u8uh6s9DXw/8N3T+bL7cTn/Pj1Ov58fxpPj06/zn/GG1wnHCElHFOHb9CaDyP8X36fzx8NpcT4jSOvOE0FKAUAh5Q7ACTQAlAa19hERYN4G1ArUf6EQUN0GtAKp51AT5LYNEPYcqgLrNkAFCDuAFtCAg/2N/Re0hSopQu3zphYSBhwKVPQADTItON+3AETWMFm5egAGIbUEJJ50jjItkNXLykHiagNyAAINEmcAcaQRSuAlM4L2XhIB5oA0Q3GACiUg3cxL1ANi0ubW3HtJcmg+i7jKzRci8/Hs/gWHHJC2vKJ4lVLgpdHMzechqriEOHttkWqJSAhor6uZiQK76k2fMVqhTHQDkLCoxe5zACu5KHPWGUsHWOiw7qYKyjd9I3BTIyjJk8Ag11YR1MdkwqUgJKu54jLHcxVuAZzBNc2tZyskdDWnn3H4GqBkyL1K45AJANk6k5tBNexMLL4ibFBiQNomu+uuuUKjbYANcuc+jqs6Zag9gOo8KFcBCM05A3KQ55uKbmH8tsn0t5dQ0ORHdJ7pr8vpHWHdpQSG8EtMmsfveiGD9L0I55a8Hjt5M2AofHqvwI/zUZdI6sfgu5nWrcO+0yFooI75hNjJE+XK9Cn9wOFwyH51q/38vD18rNBPh+Nx2sCX//uV215N6zrf/wM=);lineShape=1;strokeColor=default;fontSize=16;" vertex="1" parent="1">
          <mxGeometry x="408.931210977245" y="331.9262869180991" width="13.373310198990566" height="29.02884845843687" as="geometry" />
        </mxCell>
        <mxCell id="O91nQu8UyTGTQkRIEwQN-35" value="" style="shape=stencil(lVfLctswDPwaXTEkwec5Tf8jM3FqTV074zht8/eBqqFqkNLGvsnSAgQWWBAe+OFt//S6G5x5u5xPP3d/xufLfuBvg3Pjcb87jxd5Gvhx4IeX03n343x6Pz7Pv1+fJuT09Ov0e/Lwd7aLlPxk5MzH/CKRCf9efJ/hh/F4BbeFOCt8puK28eLOceM/Af8cyGj/EiBv4z2TjQofqAB8yOScwntiu41PlpxReEfBb+OzpaL5NJXgVXxxZG2DNwbgPUVu4omA/xIpF4W3pma0bpApBn3AktK6QaGkGeVYY1xvIbOkuNTMUQJFkCO8jilmCsggk9UsZUecIE1Wt50UJqOsmbLOQc7MIOsijaRzmIgDOeRMqQkpVO2tGwjtSScdiUGpcyCrK5eYPArJV39L4XKV640GXprprpBE/wEUrk/aMsWCadWC8FhAXd1EP8D/1Bha0JbsXZ2X6kS7sbVtooj12YiHLQVQgxV9+gSHZD8CIhMjkrohk6SRMEvNGMul8nzjnCwJhySDWCd9xcONo/sri/5yEOYcKHZ/+0gWHhj015sMDSSH/v4U5lAl+gtaOt4Bg34DEOLcXSuGaBBNmW6FkQMKOKCbMeI/gbIxhab3pFnBqJf0dDxy+ViUcP26iMGTB/GY2siL2kKleAPfXrcBjqRe/p4yGJFdPOwpAf9dvlKRCPLt+JSJl9EO2dbLiu5APF0/ZHht3rkxfwmXh//L+ct4OMy7/fX3dpmXV/MfAX78BA==);lineShape=1;strokeColor=default;fontSize=16;" vertex="1" parent="1">
          <mxGeometry x="401.8526340434237" y="345.4816379164381" width="31.851900826133715" height="5.0367241671237934" as="geometry" />
        </mxCell>
        <mxCell id="O91nQu8UyTGTQkRIEwQN-36" value="" style="shape=stencil(lZtXkt1WEkRX07+I6823pNmHIkQNO0SRCorjdj91pwevgayHA/GvTSVwTZksg5f8w58ff/7jw0sKf377+uW3D/96/eXbx5f840tKr58/fvj6+s1+esk/veQffv3y9cPfv375x+df3n7/4+cluX76/cs/1xP+/YbL26gLlMJ//v+HseXwv7/87U3+0+vng3zZQjjJl7KlQfKxneRr2nJD+fN6WtgmPj+IfN3SvJa3/Z7X39PWMsmX8/P73EIkeVn/sDeivJznGFuB9dt+50l+hi2Va/m6lazypV/L9y2W83rmNuH5Y4tT5Wn9c8tOPqRr+Ri2nvWAKihETPt5HACkEdEuqCsgEKBuXe6sb5MAfevuDQWUItqZVwXQLaS0xfE912B6lKPqBd1DalvqCqgEsEMsCpjgWUw12nnTM24J3pDjFroCaNM57a7tAKiwpOysf72BrLlstSmA3Gk2XSpu0wToW3AGPcmBjf2aDoAGx1qCuuzlYuANJemSTPkG+fiiF2cADArNqffY3cJzgJn8eQ/LROHiqm1RLK6hTVsYi0EBEfxSzVuXJdUtE6C6PZTd8TwHtK12BQQ41tpV+SxY1QqAoWzBAAkAFrzDcADYQzODzArI4PladheXtwabNn4Q/SnBTbf+BEBeo02nGmUboK097Lp5UA26OOMsdTgA7KE/FOEIgD30qvFh7QFuurctu1Ma9Ibh4nRBr2HES5dUd+16Tk3CrswHQIF7GHGbXQGD3pCdxbWtgG+15+mm2/7O54C2x8yDI8sEMHcfFdAA8B73DwDa9HsIPPpW2PRM+wL+Il+a5iod/SF7mHavnvOB8k3vKsfOb64AXXir2SD4JQPM85I6s8rZ1WuYlZPXMEA6O4HGumSAcnYC5p4H7aHrxdWyu+crgMQHC8TkKufYk6kHIKH3NoCckhGieAM4b9poI9FQA6Tzkoz6DjrWoRFosXEGSM4Uy1bI4uxYJenji24unmydnl8dH9sKHZHZpz4f5ZNjAbu9XrmkJE4PXZjZbhSKy4Gh7ob1Lt8htr1TkMeFhd1/XEWeJjcckeD2hwd9ANKeiF/F55gVQGlAd7mP5b1EoY3FVAEUjG3NuUhLlCMRq+L2UDEuLHJ41rvYsLiy+KrswVwaVUua8qQ40DSN1WfZA+ueJRriUw3QqODjPF4KW4Z7KFVzUANQIClZGUCK6FPLo4R0ABCxykOrVgYgN29p8WgKIFJimbqUWNIjQbsqHoiJLgBVTKZenAEoLU4uu1oA8BqpatXHAMT1UlEGcAdITzadaQ9RQ9XNHkyZ/T2QPZh9VTmliGmAWXD2ukTFtKac2wBkQMttCQMIewB+DihPAMSTVo1SXOVE9bZ4I4WoOJFYWcBPKk+E2B3qej5FBy1z244pXtUnLobL6NObMxxQUrZtT6D1J0fy+s3zy/l8cto5x9V6hHW2vVFxsV8pDpWbUqbWrJcTJ4fq5LmWlNV3lYZthqxkoXQ8/6wFPQtzFEHSHucP8hTT0k5VDvId9C0pAzb5QH5uJ9SH86E2lTGXs/68R+kreVl/3oPDlbysP7GP065K4VQwaZsqT6Tk9nbXViR6mnQ9Js/6qWngxHpW1gKByVN1KmuLp9z5K018E3ZH8u7uD/YY2T84/aGUJTt96+ifswakRTvZ32aVp/UkLcUt+0V79P6BysDR+bdHRLuQb86/kf/8Xnlj+ef1m77R+Qet9eeyR5ALebXHgMmZK/KlRwJ5IS9t4xWv0f8k4Rt9j7BX8VeyoHLTJi/n87TsleJF0fM3ykX6U7ViEjlB6VqLNnnixUMrDjfyq8DQFEBVKNufnpCRffBw0SUPMaPLjdWR1sKNddcSMAB1sU1ntORQMfu25EHM0t4Z6A1zj3IHAE0TPFVsesOKZA5wk8RpYYYL9j5NjNzb9ImonRsFS5/q3gBWMj3ckoiOugq/AUi9syvZrVOiNwxldAagomPxKVbHlMki/BR7aKjei/K58hWZaHEjFEu9qSn96OwfDYg6wNk5AW5V1uo2XbAKUocyO3Mz1PZuUUOPOTJMRV1vMz7U8bJQKafE5LdNZY8GIDbYk3qNiW3yXnWKbdyVi8WNdW5shl3PdvmGQ2CrSX++g5vGqZuIKrjf4do+GbOt6cYIImZb06UrgRsmj5GBd3k6/+mq7wH942xKFwIWJ1enTtdP2eKcWl/N6Inm1PQj3hSsgiOcFhKIQNorpAKSOCNaa5K6XsfxrwWQnDEhH5lTg07mGGIAUYvyGAi7Amja/hhauAIIRTIHSwNmBhDLNH9J01wGkNpk68i059Sb7pm7h0Nzrz4xJBhA5zJuJg66Vsdm4QZi00g7K1Ik+7e0cSYPZy2PMXVJxJ7nY8z4AKAMdQ0OujeQxY2pNVNbJHnJNYTaFNBp1rdp2DEADUFYXJAy8eRpruHyvMl1zeESfzvoTgCX2RqALM6UWVogdjPUpexu4mBNmVI0b075ApLhNZwVFIBvcFPyBiD1XgNmbtqXnHEPGlFWzIY9GKfyM6DkBNqzyfRO3WIXpO8AWZsCa0mw6Ra1KzAe7a/ngODG8Cb2rlYD24/XUx2ja1BcAHpD09TNADgDWndqdDwlArjewwzIDqtrzix7IMBDmQ8WRx91rGKiABLPEzfNk2bG+vEq58qmC/olyyaji0C4pOAG8huXnIcmAWvkjGrI3X1rctPUqZrrrchNgKJMYI2cURkwO+/Nmc+ihM1tmhprj8+NDseKnZHpXGXjNn93b+Ba/vr0IimAiO7KvhxfovwneeUre458VUeTeuks6DXiMwqHgKodj8kDyDFrZcJOiZzAqggLoO1dq6ua7HTaimmro3wdRxuG+9pkYH2oOy8294t/Hn60KTe5CVZ0Fv+QBl5U9VUr5k3XoDtbo/wqahlgsWpQ0+CiZ0eCG1145i5D1OxtZT40iqKFWCNmVAdwXWkjQdxFzWdH0XhO0VlA5Y8h3fPLY1TmQl7o/+qCYZdQ5XkqO+mcaO44iOpmIHND/UkabSzCUVk7aYTNXH5NOp6Y600XWLt+FZsRjtCu5+OUSPHrp6k7DX3rfFBe5obX+eN+Zeojcw3/ez9mvpe3H96/nP719dOntw+vj//XL63tT29faeef/gs=);lineShape=1;strokeColor=default;fontSize=16;" vertex="1" parent="1">
          <mxGeometry x="536.39005960449" y="311.07583806760044" width="253.65514708473938" height="59.193252458894676" as="geometry" />
        </mxCell>
        <mxCell id="O91nQu8UyTGTQkRIEwQN-37" value="" style="shape=stencil(lVbLchNBDPyavapGo3meQ/iPVMXBLoydcgwkf4+GrTWW1m7gth6rV1J3SzuTPLxtn143Uwxv59Px6+bn7vm8neTTFOPusN2cdmd9muRxkoeX42nz5XT8fnief78+jcjx9O34Y7zhfcalTNwGKoaP+aRQl98Hn+f4/e5wFV8iMZv4GCmX+4CWKBQD0JQl3Qf0RqEbQOsUKwAIJQvQk95BSYWKA1TYQ20kDtCpBMBSp1Q9oCNAoGZZUhoS0CFr0w6QSfJ9QFJaswUE6oDW4QynQ6YKWFpbqQWKCKAliQHUTAFYYzTtAIEKyDBojdbdWOkhnAOUxY53rZE8QBo2n9WhqNKM7W2VrgyFGwNkzVc1JyiJQ6AQrHJxmdrbKfqi0wWgvAK7DnPaDD1CgM48O38XyhEAeFkSVyPHgNcaKVkhrni4bQ5ZFtc/psg6MGnVBDB46pT7iiY01ZmarIRAgOQXzZAamCMVqnaq1U0VND0AK/shgJTVzIVlMdz2q+5S24N0EpTBk6QnAuytVrKyxQA5Wo0Pq8zASMFvVo7UgGjsJdB2AT+Jqi2nEIO3N6+XwOJZlq/ApXo4mKqW2PgAq4/ZDzKeSmFicfFoAtRuhV39HX2leNnnlwsMMej3f29Uf4/Xhz/Xt5fdfj/f/q7/99c9PZqvivL4Cw==);lineShape=1;strokeColor=default;fontSize=16;" vertex="1" parent="1">
          <mxGeometry x="612.8693032120423" y="335.86176103927073" width="8.695728938248521" height="14.11660853380181" as="geometry" />
        </mxCell>
        <mxCell id="O91nQu8UyTGTQkRIEwQN-38" value="" style="shape=stencil(lVfbbtswDP0avxK6ktJz1/1HgaZLsCwp0nSXvx8Nw15IxyfYm6LwmBIPeUgN+elj//K+G1L4uF7O33e/Dq/X/ZC/DCkdTvvd5XDV1ZCfh/z0dr7svl3On6fX6ff7y2g5rn6cf45f+D3hAmUZQSn8mTZKoT7tfJ3sj4fTjX2i1I19zpR42z4m6tkAdIczcNCoBuuBStq2L0wxGvtAIWzbc6Vq7SMl8P2WqFRjL/D8vZLYCI0OUITCcuCFA40BcNE69WKPFGca7wKkUE0G0DJVAKid2HrogSJioVOxNHOmCO5QEzW2AIYe6oo3CcQgrlUoNAvgOXm3AO4OI/cRANgfqTXKyEOZU3kJq/KAAMqrvUPXQzbAg5DYXOoLlfcBmaR5QKsAoNnq7tAogDtkpmaj1AtM71y8AmjCo2xVCcqr9BZAnAKK9SBCFeSSHklsamjFCeAhC0Wrq5reHXjQsBZXD5kY3EF1OjlAgjyoqMTmARWkhiafUzIus5hvpbeLEneoxVpAbD2oUmXkQXyUmjYwJAIadavejedPbMlMsnfokTpgWoWsuAJieCTlodvU0IpDUlnqzOvSsQLucSWuLtGoIdm4C0DCpBVkz6Q7SI217ToiHjQ5qb7vaokIUIGx4bjRRLkEANVKN5qoLqDWPuqMeA8FRElHEbHCVNLclO7PAkv/uAlrAkxH8VpZcX5HnnNtAXTYFWPxLYgjJE7nu7waBQLQmbiMFjcAAQCZG9SNPeyixCvhYxDU7FnjQA2MJomi46BBBQhzaS329YG9E27VHFT+9+bJAgrhf98Aj+118e/B8XY4Hqf3yu3//oGiW9PjJj//BQ==);lineShape=1;strokeColor=default;fontSize=16;" vertex="1" parent="1">
          <mxGeometry x="610.7821220978203" y="327.5849926899323" width="23.65025811323312" height="15.10508387206005" as="geometry" />
        </mxCell>
        <mxCell id="O91nQu8UyTGTQkRIEwQN-39" value="" style="shape=stencil(lVfZbttADPwavRJ7c/mcpv8RIE5t1LUDx+nx96UqSDEpeYq8yTJHy2uG3CE/vO2fXndDCm/Xy/n77tfh+bof8pchpcNpv7scrvo05MchP7ycL7tvl/P76Xn6/fo0Wo5PP84/xy/8nnCBQhhBKfyZXnCi1P69+TrZHw+nG/tIoRj7KtT4vn2mFI19SdT7fftGIsY+VRJgHzNFC4jqYr0PUI8kGcCSgk37Er19ppyBfSdh61CgBg6odU74AtBPRJCiODuw5IhJCgCwB2SmCpLKmYqNuTAlEAMLFRt0bcSgCl2IXd9FKiBo6b4MvVIBdRBZATpVDOi2DhKJBbrElgtS5k9sAxq1bgGMg87UbXOrkxG5FGYyfjQfbu+uvdH8EQyC6IWS80nzik6I1G2pNQ8Z9Uag6PKaqSbcfc6lADmqALGqpGmIOAaXJU1DBLLXMzXr0pgGFLT2hjtBYwAcVQZJtQwSKBuaxJT8CahwWqZoZaMnCsAlbYTMPksFtetKBbQOBaT1pptvSs0oavFRj6RCQagHjhBaGqCuI+kdq/sc1jZAZcWmaZQecIIKV6keIIijq5GigAAIoYWt7gQlBOZodZQrkKOfBrTuXeI6C8k2QGOwadW5l0Az1UWGlqHF88zYHu3iK63DHu4CeS7TMngFkjp3StalHOE6lgOJ5WjEKqDrVE3+hIAA0YtrqfNU2uZop2ZPaGFe6rYB7IeW7h8VA9KqNRBF46rSrAsQAtTVWqyDF63FuhQ6JQtwPYmrJa7jSquOrezRWrkMtBv7AkLWiNkHwKhVvcQwvgisRI87nKBhtSC2eQbfsQ+2TbnALeOzF5//2+vDxy3r5XA8Tpe02//9rUxfTTe6/PgX);lineShape=1;strokeColor=default;fontSize=16;" vertex="1" parent="1">
          <mxGeometry x="639.79786143416" y="331.4514982045466" width="24.919518657251956" height="25.435185594120867" as="geometry" />
        </mxCell>
        <mxCell id="O91nQu8UyTGTQkRIEwQN-40" value="" style="shape=stencil(lVbbchsxCP2afWUk0AU9p+l/ZCZOvVPXzjhO2/x9cDdSDPXiyZtWy5E4wEFMdPeyfXjeTBheTsfDz82f+fG0nejbhDjvt5vjfJLVRPcT3T0djpsfx8Pr/nH5fn44W55Xvw6/zyf8XXAxAuYzCsPbshMghH8b3xf73by/sEeCQso+QXbsEwE2Zc9Qy7p9QaCq7MXDxusAZsgGgBDrOqAhYNIAoeC41DJkVACMQA7nxhC0SxShOBxagxJ1UFPfWQM0HdUsYc0uIGqXKvo3VEBNmhNUcgDJJq4RsBfWAC1oQIPg3MDVchBAdTgwQdZRklQyOoBgMy13VqeWKgOyDmuB5JRGFQ4601Lw7QZAV2uSTHsABtKCpgzo5EFIG0WLpL0WIGGtGhBLZ7WWONJhFYl6UWoRgpEouRzaaEIDwLfK27iEFdiXqNFDChAdDjGMRjo06sdVrjCdrDBEp1yFRNPVJ7lsXuvLPexDELHTWuuV0QAkTF5tMCST6uA/KF9HlEHywqmPern+BsWumAEI7iMk/T1plbJ0Sy+wEIptAx8N+jqF/hwM+wTsnP9feVcRrcMY+99RSXKC8zxIFWhFZ/HfOT8AmSGA+xixYm+kQM1NcehqH+qUTu/UabRlKic0xx9pP2ZmkP7iTTG2zUt4HHfkDTAdtd93XQJdUp8jmCf7r45st+1l8TkfPs273TJeXv6386RsLbMo3b8D);lineShape=1;strokeColor=default;fontSize=16;" vertex="1" parent="1">
          <mxGeometry x="636.8154546933688" y="344.82792344559834" width="21.511610315038524" height="5.642616681494246" as="geometry" />
        </mxCell>
        <mxCell id="O91nQu8UyTGTQkRIEwQN-41" value="" style="shape=stencil(hVZJcttADHwNr6jBYDacHecfrrIUsaJILlmO7d8bDIuRBpTaNy5oDpbuJgZ5eN09vWyGGF7Pp+Pvzfv4fN4N8mOIcTzsNqfxbFeDPA7ysD2eNr9Ox7fD83z/8jRFTld/jn+nL3zMuJSptgkVw+f8pFHifw9+zvH78XAVn5VK7uIlEJf7gNqoxA6QM2W5D9BGMfQZMUm6D+AQKDhEpoKOUGLpAPr/E7cB9r2+S5owYJWS1qWsm4AWqTqAUmygr2np4gK46sNNRCkkxR8hAGCzDrIqIgOAkMRVm+p9QFJqcTUIUHVqpKtRV8TXQKUv2tgECZ5IuQPUSgXQr7Dnq42mghpKo9aTqQoxOMES4F5zNVJTQKbs+W0pBTA4jZ6utVAGXTIiOGq0bxRkvqE9IBEDahig9tRojTICWEr9CVZVBW211+wkVyC9ra3RCahRBT5jg4suJSWNgBqmuOgBBUzayCfiU0KKM/P1xmRVgRpMQLXXg5qA0AnBD24CAD0Ik/Y1lAQVx9m7hjTolabQvgQuVEAJK/NmgSYTvD45wKmx96QKDSNRSl14hnbRPCXi0t/byYiXAeNmtmX8S3yA8Za+MyPsFNGEX1x8AqqU7K2IKYPmi/qFxP5aqPuylHdpPxrutFE5p4M/nO83MLu4rG/bcb+ft7/r937ds0fzqiiPXw==);lineShape=1;strokeColor=default;fontSize=16;" vertex="1" parent="1">
          <mxGeometry x="669.9661967604366" y="334.95792386698326" width="8.654961061083213" height="16.289499293423205" as="geometry" />
        </mxCell>
        <mxCell id="O91nQu8UyTGTQkRIEwQN-42" value="" style="shape=stencil(rVZdb9swDPw1fj2Ior743HX/o0DTJViWFGm2tf9+NAx7phozGLA3xeGJR5F30sAPb/un190Qw9v1cv6++314vu4H/jLEeDjtd5fDVVcDPw788HK+7L5dzj9Pz9Pv16cxclz9OP8ad3ifcBW1jqAYPqYPAWH68HUKPx5Oq/BIKMXECyhsx3MARRNPjNgcQEMQC6jgvA3IjGwriBlZtgGlISUDYEagbUALiJYSa4a4DZAI6TI0l5JksM2QCOS0QSoyWUBBdfoggmD7lpNPSdAspZIQvKIFYjtdFeBTIjaAxkgepYpiixZC9jJom2wG3YKc4RPuh2+sKjmAgJx7gFdDa6AuQ0ZzKLWCaGep3cmQIPaUdH7Fy5DANkMlREdxCijBjgaBndFoGcVmyBHRA6jkrabTUtVtgPSUkhqPU4NKlCyAF1u4DfhUNOtoeBItaLmvIRcH0FCsgDKhejXILPmlD2F285sACmFW5NLqgOIJQmet9cOUPE6f5ltbEzyAzrdttfj2rRrtfEZJstcI6s11dQ7/CVHVOOw5jTSdKnKDWD9WoXsaSoza2WtG5W1AbPMNsjLw6vSaZLaJZf7EvYTyPP9LvHJ0RJp6UasLBIdQ7I0sNfdMaR7lleCKwyfM6lopOrrxZPfn5brYiO/EFsvsIRvx0XZ4zOhYUkDrnlZpvuQ3zqd2WkZ1ttfi7OWZkJzd03wVL2zca6r078I7Avu3Z+rdcF38fRG/HI7H6UG9/r9/Qeun6fXNj38A);lineShape=1;strokeColor=default;fontSize=16;" vertex="1" parent="1">
          <mxGeometry x="658.8541198814573" y="329.86703081543146" width="31.22071680166664" height="7.932733939342597" as="geometry" />
        </mxCell>
        <mxCell id="O91nQu8UyTGTQkRIEwQN-43" value="" style="shape=stencil(lVbLctswDPwaXTEgQYrgOU3/IzNxak1dO+M4ffx9oaqMRVjeTm8yjSUJ7GLBQR7e9k+vuyHy2+V8+rr7MT1f9oN8GmKcjvvdebrY1yCPgzy8nM67L+fT+/F5+f36NEfOX99O3+cdfi64HGmsMyryr2VFKYc/C5+X+MN0XMcL5T4+BpJ0HzAyhdQBpLQtNgElUIgdIGfKch+gyadQhCTfB1SlKn3OBSYdmIm5Q1SmsYAjClXtAUIFAYS4T6KO8E6aSfskLK0MTigj1dIDKpURMFcoJQ+ooK5ZKUYPCEhMTOLKWkgA1SlRclVKpOCEFCi5EwIpQ4D0VVKlMcIrSc+0MTOCE/JNQ6hxD3iwsnJfVg0UAdNGnONBuZXhnjT+CmEFyOBKc4rJX6kA4mpsylklXRQ3UE+cWj+AHGZtOiOrkIfZBZyWIm7RTBx6gJUBVUkpuY4rrQe3AWYzNx2XUE9z02YDrKxqWxvmrtUfgepqA6K4O33ocbshRq9vK1NBgEiBPRGKXGATAGaQzTTnlcWoAVcKmVIv12xOBuSavS9JbQNg+wDi3jRspYCheDN/TLxAedyU38JHUmDcRnEfbqaKBkMrxUeybXbdmZ6kTqTNPbbjR2/Blg7weLt+ZhfPKFttxVjFgw6Q3Oz5Gp/A/om9m9pMAfVJ2Tex8YH2ryT9/jYV0fwIzdauakDi/+8n4T/j7eP6/nyZDofl+br+379XbWl568rjbw==);lineShape=1;strokeColor=default;fontSize=16;" vertex="1" parent="1">
          <mxGeometry x="696.8090513557813" y="326.81826552848565" width="8.31603684874608" height="24.977113911665583" as="geometry" />
        </mxCell>
        <mxCell id="O91nQu8UyTGTQkRIEwQN-44" value="" style="shape=stencil(jVbLctswEPsaXTEkl89zmv5HZuLUmrp2xnHb5O+7qoZOlo7Q3mRpYe4DAHeSu5f9w/NuCu7lcj593/2eHy/7Sb5MIczH/e48X/RpkvtJ7p5O59238+nn8XH9/fywRC5PP06/ln94XXEBLi6g4N7WF1ng/N83X9f4w3z8EF9QbXxMELcdHxyyGEDwiGEbEB2kGEBCIvHVQ7KJd3AkoVp6vj3eI5H4FpDDkE+LJD6jVPv/ATURQIOEsUOJjMC7a4UdIZ4OrVUUO4SlyyynhJwsoCJlAtAEmu1SRClkDKnXeAVUmlJpnwAaY6qgDIAMaduArF0aJq1VkaJz6p+vXRLESgACb1OSiCgUMLQ1RFR2QkQb2JdQSZe06Gy5VOHJAdrVZOUZOt+3xiaWSQ6eDEF5cSPnzIjn0AamwrN45Z2N967rb0s72RbsKyKpQPXchpkVOoLFAOwJUnhKGXXgXeb61xnZolNAY+osiNbmU6HMrv5GnQ2OneC7q/8nQP1EBoepVAqSUGyXius2+PlV1eCtS2obMrvbck+gA7TRzGGCjOrUUTI1KPmTLXqxclK0z90T3+nN70OvnmS5oXwsjN9IcUzJE+POCJbdKkHmMDIKtHEXViINU1MxkDG78bqt141jI364bIt6NhHbzcjUYtl1rhuYrXcxfca6f25s+vC+7j3Nh8O6LX78Pq6H+mpdLeX+Dw==);lineShape=1;strokeColor=default;fontSize=16;" vertex="1" parent="1">
          <mxGeometry x="697.8373439892821" y="337.4252013785251" width="13.875157520917128" height="8.73104125267946" as="geometry" />
        </mxCell>
        <mxCell id="O91nQu8UyTGTQkRIEwQN-45" value="" style="shape=stencil(lVbZbuMwDPwavxKSqIN67vEfBZpujE2TIk33+Pul4XUa0skUfXMUjSgOZygOfPe+fXrbDCm8n46Hn5vf4/NpO/D9kNK4326O40m/Bn4Y+O7lcNz8OB4+9s/z77enaef09Xr4NZ3wZ8axUMoTKoW/80pdFh7n/btxf7E/Jyps9sdKuQJAJwkGkIR6uw0ojUozAI05/bwFqI2SjVAKZRChVQoWoEfEchsgeTlvAegRCUTolYoYgChLDACdcrSATjFAgHQD6JG6AECjXi0gUwOF60ySLEBZAkmLRrA5dK00SFoCibuSZgVyaEwsHtABS1XLtAKECACBUvdJ/1+5rlbVUva0dhCh8FKmMyBRBI4rmXgljQQKpwYKDlAXS11POnqLquAZRKiyCOEMSCTAQE0NWTwgAZam88QDMqiDclJt4YSpIj8UilZ8UqiCOqiYm/WDKA0gQgzB9xn1aACdTEN4Q6gJUZ9RXp1Hv+gzYSVXgQBl0RtCmQba0FKL1cYFD7fUVFZtICOTqmFWnakjC6mH7aOlxKHe921AjsRO4BG+cswUrUlbpAJYSoWKBZRODVRO3+Vi1ZcLrFxcyZVxDvoqWo9G1S8oQ6DoLEoVuGF1nUoC8g3LW3PmhwK4fPLbeWlR1xXhVZ3g6d2//3o70L0ie+MH+Ooo0a6fYotpcsHfBw08qS3N9nN/A45UobjxJVJF6s9U2dEJ3VKp23wzFSCd7061X+/Xj88R+mXc7eYJ/PJ/P3Lr0jyu88M/);lineShape=1;strokeColor=default;fontSize=16;" vertex="1" parent="1">
          <mxGeometry x="708.7948064487091" y="330.78932833525664" width="11.476871199377456" height="29.742252201355086" as="geometry" />
        </mxCell>
        <mxCell id="O91nQu8UyTGTQkRIEwQN-46" value="" style="shape=stencil(fZbdcgIhDIWfZm8zQAg/17Z9j85U606tdqz9e/tmZ0c0uJ47xP0I5JwEBl59bp8/1kNwn6fj4W39M76ctgM/DCGM++36OJ50NPDjwKvN4bh+PR6+9i/z74/n6ctp9H74nlb4nbmSKZeJCu5vngmZ6jzzNAO7cX8FVKEsBuBKrgKg9oAE8gkCbLeUhEoEQKSUDZDLeWYRKIl8MEDRmHwfyBrBG6Amyu4+kDxxMoB3jhwgYu7TVAsVkFcWCs4CTBEoF4RctKeOxHIf8IXYpikHikAIf+MNUW94AGSSaoAoFIE3AlOyeWU+p2E5S9yfQZcQILVuQOwZdJNoS9Ls3wA5u2XZTIHECqeJ9kDpSaauRiNVcAY1QhdBzeLBli5WazpkSsBLV25uRaqWRyFawTQzRRIQYirJzq5atkBqLfouwqUxLBepthWb10vrWZY6UOAeyKCCtDV625mm9gmUC4Wc3VLJMMIE1BsA2FW9JraVlQB7n3c9oMKhCLEvIM1zBPZ25/umNQ1tVEC2G+fFCC8g398O2hNQuQlVu752DBfA+q0ptnqO5JFmeuIuo9DY7KjY71UxdJV4EntifPWorW++R/dC4t7V3DlIB5cHx2bc7eb3yvX//QNFp+bHDT/+Aw==);lineShape=1;strokeColor=default;fontSize=16;" vertex="1" parent="1">
          <mxGeometry x="38.867960842475895" y="158.87531245851915" width="4.672539772115215" height="4.665236216357698" as="geometry" />
        </mxCell>
        <mxCell id="O91nQu8UyTGTQkRIEwQN-47" value="" style="shape=stencil(lVbLctswDPwaXTEAXwDPafofmYlTa+raGcdtk78vVA1VEZbQyY2msCYB7C44xIe349PrYQj4drtevh9+j8+34xC/DCGM5+PhOt50NcTHIT68XK6Hb9fLz/Pz/Pv1aYqcVj8uv6Z/eJ9xGYFwQgX8mHcKVPm78XWOP43nVXxBKLWLV0DyAAJMHSAypLQPkADTtxUgM3DZB9QAlTsARyAHQIiAfdJSIQbniArUZ62H5ugAMmTpAdktk14g5x7AIE4SQsB9mfSSycmBtUw9YFWH7dYlwGKPyE7rcgE0WUvb2QSkCkK2TOwBMlS0jRAPkIB7cmiliwcoLcUFUNxWZwLsc5AI7FVJ6Rx7AEEhpw+5SXIBIESHG5ygkgWQk4PeOLMFVI/fmrQBhGYM24DSUlwAuel8T3Klp6sIBM8GamPOQg1yJacCs2xNTYR7SbNxAQZyAJLaBVYC8hTH9/SuTbXb1FC3zhYgDpey3BmTQGGX3sWYgLbSoYYKyJCvRhCHGipR6fVQ0TX8zwPU5/rGMbvUiGRHSiEITpUCNRdqgKTkc/pAOg76skbVtFNWbK61uDe1mbQTb0aczzwEsc8Aj0YRsBdnchtQ7HDTWeQNaE2tLz9B9op5Zy7oxuvxxu78QRjEPnqw5b9dnWS9C9uBu/wkk683EFQA2ZCnEXw7nqH290+uq3z2Ufj/eF38e4G+jKfT/IBdf7cvVt2aX7vx8Q8=);lineShape=1;strokeColor=default;fontSize=16;" vertex="1" parent="1">
          <mxGeometry x="132.8624750511408" y="406.8755846076199" width="8.418682111194357" height="23.38385369799471" as="geometry" />
        </mxCell>
        <mxCell id="O91nQu8UyTGTQkRIEwQN-48" value="" style="shape=stencil(lVfLbhsxDPyavRISqQd1TtP/CBCnNurageP08ffl1tB2RdsT5LaWORLJIYfSJA9v26fXzcTh7Xw6ft/82j2ft5N8mZh3h+3mtDvb1ySPkzy8HE+bb6fj++H58vv1abacv34cf847/L7gAjWeQRz+XBYkk7R/K18v9vvdYWVfKNfBnjOVet8+MqXxgFipgQPmE2QAFNJ83z5FaqNHgTiBAIJ3KFAI9+1r9hFHOxEBCpU2pogpgAiqUEsjB3aCgBAapdElS0JWAEgU4wDIkaTcB2Ql0ZGEQBUEnbl7vAAaBQa02QmjS9WiAkHnRnwFyIDombjRJbViBzxoozgSp7E7eRPQmCp7gAIeWu6lvACEBHRPU2IHsHYDaW2NykicKiVAnAFc+7RICQVtWQojIJGAtLZKsYyAAhto3s8BlCqQjGa8jkGbkwpKQ2vXuBWggbQaTS17QADVaoUQxuKzNDDouKq+gSwNCniotZfairiGAY5pKw0Faa1XHacFCpkF7XTJ8lbACZooj7WkJpUgS7rMjnWLAh4sJ069FUvlnHX1LlUEqJRdi9oWuOPEqUaFyhfDMqEWqsNHTZ1H5ppgQO2ls+rRiFQgd91a9SgjFWCKVx2UUW1o/3uZuwFP6s8jbPJy9U4JIDtb2I6J2mfATYAUqq6tGU5ebr3aVoqfwIhg04FRLe0Cgka1pK6+69mOYmhemuZpj2Z78pdKW0HFMe833oAsKkHXjex1wG6VESh+Es+DAZAOiHW9u+iak4g49iPCtkCD1ByQEZCsR0BaY/EtZFEVEENMXppmZgAPdlkvY5ZS7tV1R5q80KQCy1t9/5g9StJ1yAVfKylWHwCD/Y0i9RlC+8er/bnfMm/ahz6dFvtACva/UnpR+Fqyt46zx33w2efex/b28f9t+bLb7y9P0/X//i1qS5d3rDz+BQ==);lineShape=1;strokeColor=default;fontSize=16;" vertex="1" parent="1">
          <mxGeometry x="127.78397511849562" y="454.82062723627996" width="24.264281976648363" height="28.84421964508533" as="geometry" />
        </mxCell>
        <mxCell id="O91nQu8UyTGTQkRIEwQN-49" value="" style="shape=stencil(fZbdcuMwCIWfxreMBEKI6/68R2aaNp6mSSdN2923X7yuUkuJubNlfxYcDlgD3X3sNu/bAcPH+XR83X6PT+fdQPcD4njYbU/j2a4Gehjo7vl42r6cjp+Hp/n+fTO9OV29Hb+mL/yZOS0QeKIw/J1XuIDi/5XHGdiPhwUQQ4AQGiIbEdYJFVBpAClQxAEQYm6AIiC6DhSCqA2gCSSuA4J9DqaD0jrACtLKpArqhJQsYmoBWynrAMlVDgic1gFUwDakkqA4lcPUhyQMyVHJgNhVmoG8HQRSas3EwI5KlIBKA5hu6CSdEiC2QITITuG4erMCJrQ6gJm522ECnBxEoZQ+JHR2KAo590mTs4PmaoSFrJ6XzJvSeskKx469DQhtDmaN7FTa+iu1QOHaUreTzj1g9s5ODnJVOGugkp3CUX1cgcWouu2NWHNcTAFvMKUAqd3CdMjODhSBux4VV1fk2sKLWZmdkG4Djq6Ra4oXAKsfbxein97Zxoxjb5tabaEnszreu/qdJIvQmUqh9sqlP9lViPqph+z/rnpBo0Bwvh8LUGdUyE43Y6mPLwkDOvGY6boZGdz4GUFC977XBVZOjW3C7n9HMlArKNep//O+XfweN57H/X4+rSyf98cTW5qPNvTwDw==);lineShape=1;strokeColor=default;fontSize=16;" vertex="1" parent="1">
          <mxGeometry x="143.2966217904418" y="506.28719531702086" width="5.293424610790225" height="6.450276027822383" as="geometry" />
        </mxCell>
        <mxCell id="O91nQu8UyTGTQkRIEwQN-50" value="" style="shape=stencil(hVZdU+MwDPw1ed2xJcsfzxz8D2Yo1wy9limFO/499mVcoiQVb67rjbTSruyB7972j6+7gdzb5Xx62f0dny77gX8NRONxvzuPl7oa+H7gu+fTeff7fHo/Pk2/Xx/bybb6c/poX/g34bxzcK7ByH1OW5HB8f/Ow4Q4jMcZoiRIUoAkcMkAOAgrQJb+iU1AKoikAIWR+DYgCkrWgIxEtwHi4YICzOqwieDYi3INkRDkNoAYoWiABxs5+cpRR8gEMsqUQbpxyYOCUVawTkhK39lOyCN4BQgJxaDsC7IoAGd4gzJ7ZB2BHYrR6BDhdITKyhucY210XgEMDlXLTKuUjAg5gfKKtMGhCNK6rJbhShf/rHHB0GoVf9ERmjIM0tVerO3QpJcN0oyoIzRxG6STQ9IRfrCP1E5rN/zk0OC71uZDwBsOrRkspgabU8NHiAa0QWZ1DqJJt0lpnE9LBm0UW2LdOm98n5Y1FTaVt7oaAiMbsvBLd3ItqNEy6Va8mjPAWQ2gftFcRSGmE2pGQTPIpkyZIHpGMsiaR7Wf2gfOzEeq02lx3tJ0tc1CcdRLvO1L6j6/KgLBGF5ldb6WuBgJbTwXWtfVLVUX36+N5/FwmB4r8/+Xr5O6Nb1s+P4L);lineShape=1;strokeColor=default;fontSize=16;" vertex="1" parent="1">
          <mxGeometry x="142.69842948410633" y="542.704279049899" width="4.297422640289824" height="5.438557928087903" as="geometry" />
        </mxCell>
        <mxCell id="O91nQu8UyTGTQkRIEwQN-51" value="" style="shape=stencil(lVbbbsIwDP2avlqJnYv9zLb/QAJGNQYI2O3vl6oq4LS14C1tchL72OckDS3O2+Vx3aA7X06Hj/VPu7psG3ppENv9dn1qL2XU0GtDi83htH4/Hb72q/77uOxWdqPPw3e3w2+P886Bcx0M3V//K2bA/s9bj9i1+zuEZAikANkBiwEoJ3gFYAIf5gGZIeqQBCHxPCAF8KgB1y0mAYGBkgLc8TCJIARmfUQGh/MAL0A6CRbgbNAELmharztMRwReB5QSBD+/HoE0RxEhJoPUYXZYT2L2hY8QNAAzZIMhZHA6g44zMqpWUtaU+gBihBQZJD4DyASSRyEZrcqFJR4lbeQghSUe0WqUTQSyVk9XN6uPGFgn3TWGUYciLtEhdZ1nhMQ41PXB1k4y6P1B8USC9KQ+81DYBy2g6CdWnlFMxkjC45SNWe0KUUY+aRxQ9te+WozYG746td4S6Mjow7V5Z9aL3p8isJlv1trBCMkyDF87pE+DhUwn7Oo2Kvo21pOrIyo1txLAWswOglGAGOo7we7RokOpHHIwtLl7sPK7ZF6DnIfpK6EEIZpmVN2bt6aaLtn4tUAeRCm5DG6PjU272/Vvlfv5+nFSfvUPG3r9Bw==);lineShape=1;strokeColor=default;fontSize=16;" vertex="1" parent="1">
          <mxGeometry x="142.96952892736772" y="579.9732851716287" width="3.980041732513655" height="4.548395013147228" as="geometry" />
        </mxCell>
        <mxCell id="O91nQu8UyTGTQkRIEwQN-52" value="" style="shape=stencil(rZbdbtswDIWfxreEREqidN1171Gg6RIsS4o029q3HzNDbUTHZxuwO0fhZ5Pi4c8kdy/bh+fNxOHlfDp+3fzcPZ63k3yamHeH7ea0O9vTJPeT3D0dT5svp+P3w+P8+/nhYnl5+nb8cXnD68zFECiEC8bhbT4qpPn3wecZ2O8OV0DL1GSw50BaABAolgGQTKrrQG0U2wCkTLUCQCmNLmWlIADIPcT3mJWUAZAoj4AWqgEAgeoINOn3dhNQpcwjUGAMGkjiCCjVtA7kRq2OgF00uNZkLjUPNBC0JEplAYAYOFJLHmAgjRhJ1AfdQAxCVfytcly3N606+9RPVuyLS7OFBIohk4zvr/iGolAZk1YrMfgApy6Cd0ApgohFqYzCq6Wf3A7Byj14oAKgMGn0LinQkTJJ9bcUgSy0epcsDQG1GPvbVZsQI5caBVcLlkrQJlUoOpeUGCi1yCIGi6qBPESqi2pToCWpPU0duGr+t8VkvT77T2RUn4nKIogEgOUHCmxigZpreukP9m64Ne4F9V/sE/EoC5sLSEeVwpgzGzyM6t8a3pizXCgDhywDaQRseCbgUaw3xrMgoHUHrhaABOr/0lT9hiFA2DYV3ChMsL+YiOLokMDSFJvN4xDhnpW1uuFRpNY9gOZS6VOy29uoRoO5+EmOq7JkPzUD9Edzl9iHParJajMnuXgZvN8WvOLvU4CmlxukfRAtkM3rJ3fJ3hbov660fwHYw8cG/bTb7+cF/Pp/v3Hb0byty/0v);lineShape=1;strokeColor=default;fontSize=16;" vertex="1" parent="1">
          <mxGeometry x="119.99143022847375" y="615.0066184241689" width="5.010015279231084" height="30.347918559105665" as="geometry" />
        </mxCell>
        <mxCell id="O91nQu8UyTGTQkRIEwQN-53" value="" style="shape=stencil(lVfZchpBDPwaXlWaW3p2nP9wlXGgQsCFyfX30Yaa9Y4W2snbsqh3dLRamk16eNs9vW43kd8u59PX7c/982W3SZ82Me6Pu+15f7GnTXrcpIeX03n75Xz6fny+/n59miynp2+nH9MXfl1xkWKYQJF/X18EoZj+vvl8tT/sjwv7wNTiCLBPxPuAyKRlAJT+hZv2KZHqYG8fAA6V0P19t2e+b18LsYuYNNy3b0Iy2lcS4L8oJZegShkEoMkDolIpEKAyAFIlBS5ppjSWIOePAK7IJVJTACgUeEwSU0UnFCpjDFWIUdCVQhsAzZzMANBI8wCQBImkSnWMQQOOQT1TrTKtQoDLkqVBGoyBxxjsTQPktsLxWDg7kwUAmFL1AAExiJE5e4CCwkmkKh6QAKAp5ZGtKhRAHVqjMHaokSUBtrZC6upgHQK4NAFc0JECSKu55ETJEh3QCUY+x1bpib6XVh2DFjsT1aFSc4CKuTR38AIgqONyd2DhUkX90PzwMfFk1A9KkX1aUU8HnofBokcZBWHa6ypn2oakr5E4uhofkc6UzuYFvyvqUZMh55KxBaTJ0t5GlxZ5uI1IJLo6AgQhvJIB6fJ5ryNa82liNHdXgm+JQxPi/wG5F3amn00lJDSrnjNhSKAQBkhudxA4UlpYjcWAhYZ9qUuCLlXtPTzvAhY0Akhfd+ZtwxgPqFFbXxVmQIB1sI0sj4BpJQNZKsZNx288R7P0fpkBCfaoLVRlHIshw5ESm9e+oH2y3lYm8THYXpyQlNU+l2dA7ey6Dche8M1JBmm1RT6xB8DN1Rfa7GH/+G6YsgZytNrULeIKimDKnnxK0cAKlMdmi7l300179ouJnZhBc65mj9220CJjK4KrMMMVl70cGecyYMR8UfvHu97Hd0N7eL9YvuwPh+u9dPm/v4jaq+slNj3+AQ==);lineShape=1;strokeColor=default;fontSize=16;" vertex="1" parent="1">
          <mxGeometry x="120.79605440687237" y="611.6321257670702" width="21.127755075991445" height="38.4197135706745" as="geometry" />
        </mxCell>
        <mxCell id="O91nQu8UyTGTQkRIEwQN-54" value="" style="shape=stencil(rVrJblw3EPwaXQnuy9lJ/sOA5ViIYxu2s/19ihE4Gla/V88CcpNGXRo2e6vu5kN68+3D2y+PD9F/+/7182+Pfz29+/7hIf30EOPTpw+PX5++46eH9PNDevP+89fHX79+/uPTu+ffv7ydkvOn3z//Of/D388470KboOj/ef6ge5fzf5/88iz/8enTJj/KJt+Gq/5cPqy/3smHdC4fXQ67fHejnssnl6qRF/8/uxxfI19cSUa+nMtXVyvrG9u5fHOtsXyL5/Ld9f0+Ya8YzuXx3xLLN6Fv8K5UBiiFQ3Ap74DgvAJEFwID0pCA4RnQhY+GtK7wBojrkMeAzF7akwtKB7gFKZ1dUGFQ2Y96WddwDGiujB1QXVA6dGPp5kIXgMGhDMAQrodYjqR0X9dwDIiu9B0w5C0hmkdigDIcwjMFBqj0hfjkWwJAOB8CjhPkcEXpgHxojlSEpRPCxRypCDsk5MjXAZLr9VUAXKtVWgHqStI/CugHtxQFIHuXKKa7dO8cnTcBpLw145YIgLSgAOUgzVSlA2LaFNsiilsebGlUnyyULsikBKgyt5bkItWr7Lxw71LWrd8AYZWwY0BbIb8Adcg0U4bz+5Eqip4oWRUBFBngxZFq5MxXm8waNbtGR6quCzvgzxRA8xOlQ+O6Xsv65BgwuIoCUBTR8OwaAChfgl3zbmlcgyq77eb9N0CS3K2hTtM3wDLCW1txnpQGv1RKV6M06JK41tb4SHDHqG5pcF4qfVW9YwLnXd9dAxFShdKTu9CRtGuAu7Q9kSHKg/qGwr6ExDOUDpU5X0Y8iBoHZlHoG5KrgmB1Ux+yNhzKBzkfalIVETeQevckgDLpFZO+sdQbAEcSOgwQ3T1rvJCJMwDV6dlOCDuM5PKuAwhRFJYGYOy3BMolvyFzfQCpU/EAQN29FS1jUgDE9O5L4Vb1zgB5T5WgvtJwhXMr2HhWhqtc40LWt1QX2bkBoiy7AIzdvdF3qTZ6tGXXBRgyHCBf91tti90cy3cmoXV9cCafd7/Isp2BPLu2ZD5jMFXS4Q/5OkhenmcYn1iOfiZPPWhaDd2pPDEG6UHB+0W77jxCutBYpfLOSdWkYZh+Dz3muLgjE8qKuQFAxRO3pMjktFpjgJrGTLcoDJBxM0yGjItengFooDTT0QXAZBevksWNUNwliwvD0Td0nSAhv+ucJQ0bpsvAeS6MsOcWLxvcaeVC8hde0Tj2m+Cd00/Ji9YQ7gcDoSyv+sFIA/cWYXAUy5rXzm/YNYAPtYsj7fVj3ulFLFPhj1dO1Ogb0mqC/idAN1ykylEMADRDQ1EbypH6GjXfANpyqJqNsrxf8+gzABHhFOQYYxb+3dIpru71DMC8NuqsXZmxpSznHpMekQ5F06OymuU7gOqGLcUDQPUXIJHkS3MipXwpMz0CQObUxDlgKq3iAVSbDFflkGGS+T3NpyYHuLNdIB26HCehIaFdBnokSVM9z5TRhWXxDbOpIpbXZPWcbdtu6eLlDG02hnuIFj1In63nfiS0z4q5zebWjADUsAftc6chQ5L1BA06NSS1yh7JjgCqbgztkKEOaYc5xhgMUMm4mY6+aV+ao5j9SC3KlYkd9uATRazsOKllabg5sNqVxiGTcG87EgNAMSU7dMO9KTvMsZ4BKNeYY8LOgC50sKNJ2F6lSjv8bHrtY8errUu+ZAe4039FyZojYloG+BVSp0NoGtVHOYqZY26avOeVz08H6bTrqitoT0f1ZjmmfGkuA3ZLI5/7i3XD7q2oSSpVIrlTz4pCrOhPjjyqB79R5CSbAALlUvNYu/aZtFHoYBdLd+z6GGF2V5cIsx67RJgN3CXCLPmuEHaP+NKHHAPMpvIKYHahL33IMcBsWydAPeYw+9yXPuQYEHnsM5tNkS/tThoA5bJz602ALnPN3Kvv6W/O1kRgBxvYVfK4YKaHiNOiHkSYRyngv+qWQmbih9ShaNl8QUGWjnIHhwaXlqfj4smFzTVBNnP2nQkAaoRoX7JMwqwYuwmHIHuIzhwL/FptQhtXasgnteJj8t2HvCHjFZO+v+YpVB9yEWWeWkG+qfzCT7m6Ti/BJDwvd6aeS8MsoCIKPE/1p4uK+/SrXbuTV2s0f+DR6qmVZ5oEfdX9eO6i+y2XncnT/XdZa83UCs2Zos9Wvsgdgz1PlvMeb97FJLkD8OvZ2R0p9Pr/E4kMcu7puZEES1Vk5/VPK6/k8cPLO873Tx8/Pj8Dvf87v/vER89vRtPP/wI=);lineShape=1;strokeColor=default;fontSize=16;" vertex="1" parent="1">
          <mxGeometry x="55.58954220861597" y="649.4007341634217" width="794.396003942601" height="23.849250792813564" as="geometry" />
        </mxCell>
        <mxCell id="O91nQu8UyTGTQkRIEwQN-55" value="" style="shape=stencil(rVrbbhw3DP2afSV0F/mcpv8RIE69qGsHjnv7+1JYaDwiZ846QN/Wa3JG4uXwkNxL/vTj8cv3h0sKP95eX35/+Pv69e3xkn+5pHR9fnx4vb7pp0v+fMmfvr28Pvz2+vLn89fb39+/DMnx6Y+Xv8YT/rnpBYo8lFL49/YFB2q3b369yT9dnxf5nhf5LsTlXD5Sa6s8U5dz+UQlrfKdYjuXz5SNfKWQzuWLk0/U6rl8pdxXebVYP5dvVMoi35gysGenGlf5Tgncl6mu529tWuxQXqiwkwf3jcEpdGoRKESqRkEooYhIxCaEIgVg0limRXY+E2DTWInDqlCg02J3UadRBLwQhWK0CgyspHnDa1z0RhFYSRPBmFUVErjDiGzzhk4BZVpzd2CKSKGTGAWNLnRpob46boALeEOO89+bQiRBCpnamp6sgBCAQnVvKDC8c6deV4VKAhIuywyETaHNlDpGpEhcrUIHRyqZuFkFRphXD97AILxLJ2arENEbhKRbKwUEq8kGnzqugPCuCgIramhoJGDW2hxqMKxUlSkZENBHgOBrWgkMzGTqIPiaBrNBvkA5A4XteTswzuhI1QJZ0/BGb+i2/ushKwgNLWeyJpDarQNP6xV5DY1aZ9IeKyTq65E0WBCQKbgbjqHxW9GRthK4KShqIAWeWD0VMk9XHivIzOBNoVABoaHBHNfQyIEquDSnCb1TQfEcBZ/mV12tpNwJMasBjKuVBlkECaQp39fgizwz5FihWU/HBkGAuy3sWuqhWdmCccwQKlkmO90UNPgAGEtwl1YGBRwncdabqSAUAI6JOtqAxqTgx/KZksEMaCKVN6BU8Xk0LNYLK0gBn0mlVI08CgqVN0xJyR6IOtmu9/78gOzT7H3VYMjB3do/Q9Kj8gbvMgRU4VnGdvZE52dLeTLkIyIzfjewm6X3TL6sGdCoIfsL1WLPj/wr1EwOQ3o05Ff7hMkEzuR7N/Kou1B5Q44ijh+Z5t7FG76voUYV5ksMYT5vBxCoF/EKilkVu9gcSWG0Yx+YO8etD/2gUdUL5Y7XTHWKkBr5sFCFO3Ft405mNTkN7DXxtU2s+Egmc7RzRTxkKBg/RNiniuvm79QCsdMC3OwMeWNUSPuHTVc3h3sW6sXI38kdTvb5qLZqnAZzfjSKGPKGOeJaJpb8dkgDj1IzzoHS6RsMJSrTZv+TAluFURBQlLLjgXcqLM9BxS415U7JNMkfMB51S36jwCneKPoOwGAmOFahyd9QGXe0RbksoztU25/GbXZ4SryyewPKhjyJ0+7SkOpsTGhnVpjPyU47x5wLWSla8jgyFCFMsIihwdeAArvxi9Zb2LWwxRglPAJiaTQh5g08KdBpm7OihlZ0FHyjkTKUM0IrjVbNcMI8WfdpM2hIJ54usutC3udcpw2t67ERLxwt8/qG0iGLGU35mkBjTgD80JsttxW3m2OwYIYj4e7ownDnCh03hiNGgSEpaWILSo8QZsaAx5SsAmewY4Tk5sgdTYSynXVwgORwjMHMOFJbKvSG4IaFbe4QTkd5ZlgokH7WZkuWIhVaMfhxpMIz2sP4gaeWmAY8XVxhFzye90Nb5QZoleTHwju+8sHJ8zuD+uBse1A6tM5z8D04JrCrn88Lbpf8BkA6HGCOHYO5NC7UfouhtT6C6PN7Eq3EKL4H7TQtYoJDBr/rEdxe+W2S4Lbb76tGygHH+Y2YKqBx+9i5rZfW0i0/tdVjhmg8umCzHOrTDMcKxc62xp4EbVeTJRtcYKGO0U5tOcHgG9NHs4kJcO3hW0qZE83jwm674i6w3+i2BR07QHBjN5vnDUOOgXUuRHbFBJUrF9iMF+jZyQtkGY4Sa6ahahgtx9DcR/ZxhFjBJYP7Blv/pcKZQbC8TeURtLglmBZCVBK2adzuviiLw7T2DuqwfYJDOlQPXIeu/s2Adnp5jXBQM915+J79g6EuBc7Lw7zdDiDQ9jjMXdouv9CGMNjVl+Yvao9+/gdF9+T1w/uvl75dn55uP37a/9/+2km/uv1SKn/+Dw==);lineShape=1;strokeColor=default;fontSize=16;" vertex="1" parent="1">
          <mxGeometry x="59.57397970198099" y="580.2200656940331" width="769.8517867326309" height="19.02392591470175" as="geometry" />
        </mxCell>
        <mxCell id="O91nQu8UyTGTQkRIEwQN-56" value="" style="shape=stencil(lVrbcls3DPwavXJ4J/Gcpv+RmTi1p66dcZxe/r7LqmREQGelvMkyVofEfYFzSh++PX76+nCK/tv72+vvD389fX5/PKVfTjE+vTw+vD2949MpfTylD19e3x5+e3v9/vL5/PfXT0NyfPrj9c/xC3+fcd4FGaDo/zl/0byr6b9vfj3LPz+9bPI9a3kJx/LBJSOfqLzY8/hj+eiakZd6LJ9cS7t8cOPPI/nsWtfyvR3LF9eVfHS1HMtXJ22XTy73Y/nuvDp/domcX5xX+i8uEP2Ik6Ll/7fIdXt5Y4DqOjNwmPZcgOYquUGILmcNEGKCkFxSNugusCdkl8UA2KXLvOICiAuZANo00gR07zJxiwC77VrqiAxyBxuYHY5EDI3I6epImWoJodCreQJx1eHbux16dInF8lLihZY6sUMK8/cuDMcunXBiFW4IB2KHVIy3Bv6E5cwTUKtr5NJJXNmPVOHwBJDXASagCPXWnFzcn1AqvUMuzu+GK8kJKQoZlt61VMIMqeuA7tpu6Qw1kAAqXqs1N9eJlkp0ZQ9RHJIVkpJ11oAaWCWEEqN6AooFKw1d52JYRtilRRcfAAI5Ug0zqSxAnPX3OiCZIwVqh5pd2VNl9tOU1wF1JpULQCb1obZZLy8AkXhrFRezBlQCaCZV4tKRJDKUcKtWT3wJNVlVaQCYayALlT2mYelC8hJKoFeATC2NxKjjIbvKjiSzj7oAsMKOApW9BmRSUFANtB3SbCauA/JsHS/UylqHXkwAwdLEcL25uFs69fkT1wF9KnEBCk2V4rVrpEhrnASdvVEmmS8JQl4BEIMMkLRa4/qJ6wA0CrulQ+eXzjNXL0ChdpDi8q4ldIGeuLdUHQ9Ck4asorzqOm+Lm+YxhdIYyMsun1wn8SwmPOPsVK7Loz/c83CgsQZ51aZ7msEg34uSZwUd8hLUeYTEjdjs4hLzIDG8kKbs4L1uoMFUyk89ISyueAjYVRTqzOKHABM2jTmR6AQZhJJbWZlheRH4PTeDCgM8gZURAFR1BrVhDcMAqCdkyt4AKHvOBmPs/A4KgJzMtapOVG65dt2tECcRulOnnjLoIV+VvOcK6knJR35f7Xaz073TrzmRHPK7/ussoveGpsxsf29kouzfSEZ7GKDc1BtX3ptURKbnAMWFg9Axj82/w2o/lbBvA3RRFu6nKDlRP4GGctM5G54UeBFMChC5a1c9nRvzOl7GVRlEMNOkXTR5RragnUjWOTh5nr/ypGgLkPmRkm4tEp8+jQZPcTColdkBLaQCFNo3jyZVEZ5OWd5og/cnlMBb+TbbswXIM83e2cqXRn3JkgXwb5bnLR0B/2YMyRKe6qei76RUALBEZkkbALdoYTFHIq5hiScuzRrJQW2jVisznCXPMByr55aeF96bjwHAHnGl0lbPjhgAYONbO8QYwx9yBzsmAYBFnB3E4NJ0TGJGPbADs7QdJuEbljXsuAqATu5gB2LDvdl8y4zccKvCjmSGepXTJDs2hKJZTI88pwKoUDvY0WddVe9wuLq7BvyXTTLH+NaslBhXGgNiM+T2bGYt2luReFgLN4bcalAfKfUZY/TdcCgA7A5prRZWjxhm4jlcBexPEM4o7bJhdB9sYWLWGeigGLmyCxP0aMw1BrFQJNpzmm63PuMRrPnuupdGk0bXdc3otVKGaHdj6LnY6MZu337Ml64DzH4PAM8ubTaI6LnYMs3uKAEoN7ag6kiR5krDsSDPQlT01FACnT91XaXR0hVWsDRj6kKLdJlL8At5ljHMGh0dI2uKzZoe8izRm9cAbvy+ec0A52eEz7zGAHk2IrXb2E6HtuY1jHEe4g/ebEo77be9JoeQZ4nF63Fqr5QAmKl2L1SffrYeSz5RKmlGBt3PCLpPvnF/MOdpda5l77sv+mI2dDL6RA1nqz9jrxboBMP4Q+Ob859/7eeWPD78eMfoy9Pz8/kVpcv/63eS8NX5fab08V8=);lineShape=1;strokeColor=default;fontSize=16;" vertex="1" parent="1">
          <mxGeometry x="72.55922020545177" y="484.42586236604666" width="754.6578264009045" height="15.748667995533424" as="geometry" />
        </mxCell>
        <mxCell id="O91nQu8UyTGTQkRIEwQN-57" value="" style="shape=stencil(lVpJchtHEHwNrhW9L2dZ/ociRJkM06KCorffO9uIHkxXATnADQQrZ7q2rKVxip9+Pn/58XQK7ufH+9vvT3+/fP14PsVfTiG8fH9+en/5wKdT/HyKn769vT/99v725/ev579/fBmS49Mfb3+NJ/xzxjnxfYCC+/f8RfFS2//f/HqWf335vsjXoOVTvC3vJXojn2/LB/Hm+S3clo8S1PODOHL+JLlo+UDkizlPkETOU6W5VR4nJPbpkvMqnySS53tr0CyZAaK4ugKK1EIAyajQJFYCKJJXQEVUsZhoElalq5dOjjSiNK2AKM0TAMKorYAknYUdrK4AeZrhOqDoRKiVOhqeVpFUm3SiQ/SS4wJoTiJ5Q0zi1tBoXgpROpYZORsgSGdvgA6rp1ua/HE920Ama/C1TOkiIT8VoEhh+VwlqSPBD8Rx2TAeAOxIOUgzAJZxOV85UiYJlKuUagBE6dylRgMgfgCJlscAcdrkXkCeVr8XUKQrsxZpjImb1JU1EEuNmBUslFauR7RWxt1h0tYGiNTTYCFFAsi4ngggG17q0kiK1iJptRJoJpNoxb+Vp8F8lVmpSVHcGrjSffp1T/dEadBWViWrSiRKt61F2BVRRgKgLcXeyBBW1eHXsOqQt8bgOiDp0EhdIgf0NTRAbZHwEoK5rlaKjcYS0kW1MhHhSDJu8NwKQE1yDNBmvdkASQrTAfVhJTJU7sw83WfdnwBfxRGlu9NWQrviSRXtXiuNDiqxN6AfXB3XeQMXppe2dJgPuC6PUF6fn2lc9DQjeQskcSTwugm8SBvunnXFjZOjrsuXaY6dPHt+mSR9kXfMYVVXnkDrCOSVvmE2vNfl28zbLSAo3UG+rvJOOrNP10zhJoXfkldlzYlj8YCC8eDzu1P6sh6vm5RMlN2HvJogp0OuN/9u0++SYKz5Hy9YE8AHSowDsGakz5Tch0nVG1Bk+RvUiISRprCg67pRAKBxL6iqDIBjYdp1GmMso7zSdfOPSZG1UwOglEYmPASoNDLsifKDKh8whbGpO1JYOc1x5jVR4XglsGFH2yIb15HOgzZxMp2Br2Qm70Bs6qO2HkSELvdpst+95FWO3qDYEXmTeBoo+h2Z+RBfHwP8Y0cyFQd0xDYFV0papRsbWzNhVkpHpigPdmGxbao+OJiWHbQVhrRpdpq+BUeidJHmAXYA2ukkPSSMTRc7Upzrlp0faFkIM5g3QOcUFrSVwBmsIx/t76pD4EPCaLBXHVDPaf9oSCMcTEZdN9gx0Bl4jCErj8VCM25sHtYjJU/zYeyY1qkiIZZItI5hbXVc9rQLHuOg4uJC287LYm23CKezF4rBGhoFVmLz47bI3m1h2dZpjOVqecEzbgz+ajTqfAHTtR/awS4CbZdZ8XRipbEeUUukSh1XzXJ7zKzsSFk77pK0N5dIKy+BeCIDBL0NBxfSI2FCWKMVfO4JwK7aUGICSSC7zEPVCw+tC3fdx50byUOEWXoeIexe9RBhVreXpujO5fAAsOWwWT8PANtXmwX3pSm6c4Xetzy8uaQvGkAv3cw1AAKQcVPcFlMboNDCaK8ykBMsicZliVI60b1B9OYNgfau48JnJTMUY9avjyslxX6d3t/YSyuUSnoHZa7FwH6RmDU4sxFHn8YuD5tuUEDI9H7YLLhB+YU4bkwMCuD4wiHOqW1Xheh9prliRZkJrP82Za7SnaS5I0aR8Yxdzc0h32eY9IR8JSRm7tDH3SeLCnMenJAFhbEn733MbwyGPAkJQ3iQZ1eAblb8nb6Ms52+9YQ8CyBnAm5L1Fvy6somUjp1+p53NG7UPorqCgoC8ZeVb7RdMOdBO8By3uhbEo03Y0/0AqwYGH+VQOuZiQd0Dgfx8OBvZo7k8eHyA51vL6+v59/37P+vf9CDr84/Boqf/wM=);lineShape=1;strokeColor=default;fontSize=16;" vertex="1" parent="1">
          <mxGeometry x="68.55814846157818" y="428.0965750085047" width="752.574708959593" height="20.15335381023374" as="geometry" />
        </mxCell>
        <mxCell id="O91nQu8UyTGTQkRIEwQN-58" value="" style="shape=stencil(nVvZchw3DPwavbJ4H8+O8x+ushyrokgu2c7x9wFK4eywsdOzmzdplz1DEFcD4D6kD9+/fvr2+BD99x9vr78//vX0+cfXh/TLQ4xPL18f355+yF8P6eND+vDl9e3xt7fXny+f3///9klX6l9/vP6pT/j7HeddGAqK/p/3D0qan/z6vv756WW3Prjk1/XF5Xa8ProY1vXNhXK8PrmY1vXddX+8PruUl/XVu5yO1xdXYH10nqyvrrV1fXI1HK/vzq/y1uwaef5woa7ri6uVnL93cVVArc4TBYTgQsY3dCJB2A5kB4hsS9H1jjJXorOQXPN4qP894jogu2IAgZxqkB2D2qJL7A3VCB1cjRTQAeBdZ6fUjNDeDaa47mrBLWX2huFqR6ED0bQ4fysI6ORYxft7QT0U5v3RDTA+cVhyrOLPPqLxFQYozsOWqhtM6M1dNoBEGPaGhoAmiiMhTGMAAMRa2SkNlKEVGsSSx1NqYl1E6BScX42v+/nJEWCscamL7jMBiKbXLXUxDbalNOP6BsgzV1wHbEFlB6BvKJgbBFCZDMY0FECSoQB6RADVQ3NlGAAxvtRdsgBmGgPzwwkge8xY5wCrOAoIrvS7ABKry10A8S+rBw4Y970h3yv0lsZvBdRpzLcCmkvpLkCfOfN2APq0uCjxhywZCBwozU+uszE/s/IGiDPwXAcE46LCMIkDCaCZQMYIa4nINSRUMp8Wwgxhpkk8J1yjbIe4i96eCS3ZYN2S5IfESG5FPUgGojJ0dKAWKU0vYz5vlxQZ51PuAvRnUN6qDA+YcZvc/Togo7UKE+jEWuXrmhHA8rQQBSh+Ks/TImIHrpGpP7SAPi3HkIktiZqQVQp9J0K3jExAVUk0LaYW11ApFRyjDq26DIBMNS3WD0T34uXXAR1pqEQqT0xDyc56rBKemQwSI8D4NImRMKNRaN2SpHrGlyQwQo4TfkPfkGfY2gBhPuI6QDLQKrQQ08gAFXOckGta6zZk95ET3T6Qt0oJwrj38BjupchJ5A0jzEi6ATotOAQAUUMKtc7eEDGxC4Ad60izet4AlUZvAbQ1KUr9O0gQGBmNTypsFozHRjo3QOSnVLCNE8LkmUcAiEvBu8BkqPiGwXdU8ZA69YbRkEg3l9nzO8ZJ2SDbf8dkIkdG/H+M+fXmClzHEqXX/fMCTtZDjPTUNWX9AA1zqx5YIPKOjK6HRiPvr3hvStaZV258QQjczcZsv+y8hnFPBawBVbtGfEuQ/iVU5BOlBQSwptIY2MERAOtzKcAbGZgfDBPuEu2vKCChHiK3vLoGo63mPVyPnlb4GQEZTpSe6xFBcKQVhq5fn+8pdVYlJ1jv+YF29PzGzwezMiWpun6NpJIdSOS64pli1WxkYAGSDE5UDFsK59FllTlwZm4PVRznzJcTAlgb/f8A4ip09NyXO7qm5hD2hm7oV+ZcRxS7xqNYaf0yLIXstEenaR9I6qDNVSUW65aSp4lEqcsqtPBmakub+e8AhQOiYeaNRaSEuVwArFJVCglviDxmGJIqAKqHgLktpTk3OiTaDQGFyeBn1N0VPKwbq8UCbIlPurQcgZKqU47XTfs28xmOllRQeCYa+rRoWzWtbT4GSLO82QCD2pIWniugJH5KYfLwDVBpA0CLZ5iweEoNtTw3M1PWNtQGALR6KiX/2mIAAK8WWsEarEUuQ8auuDyCeZw2YgAgTIwoTls90DbsNO/aZlLbst6N7SrtZLIeXUXz1l7pXS03McdAhLZNPQGwpGjbhn2b+B82JmFLhea4YrviW9Y7bK5C5dlp6abtWyhtPQ0CRUQEAC/Pi2kmSU6iDeKIwwZJk1SGgCRXC3CmB5MfBmeJxWOBLnQlsumEGXcLYNw1zhDKxSoHOzDZUdnrCDOTOUWYsc8pwkyWThFmeHWKMPOxGxAwQThFmCnfKcIMEk8RZlZ5A8Lfpw87cT1FmKHuKaKh5Jd2x3WAoTaXmuoIgP46aDfETtcvLaTrADO/18qZbcnQZAGwYUiK2MOSiNBI7NdbDhA3mwtMDx4L01Eoj0jGnAYfcOpdEDhWT+8g6G0TSNqc9caGLXLhwayXG6t5Q6YdFHsnR2kBAxi21XmPw94rEi7EUmrcbq/s2Babz2iTxQCYaQTTZmq8FWfvdzWeUkObhrADMOPTO2oZAfTaXEXjE8BgQpt7dhcufx2QMd01bq0hGV49aCNbbyMOBLC4pPcd4ZoQp2f2RuVlXHjQAMNLtsqrWZNjNhB369lQ11w6FQnYVaqKdyJOzrTM/sdOy6yQyMiCTgw1YYtGyi/qnJhxW6J3OoK5cBHpJedtVLKt9/TmpUee2Dz1Mz+1eWP56jFi105rfDPurvVk//bSciGhy/Rza6RXM+z6s/OE/UiRdrIeJgJbJXu0HnomhTa7/Iz82/pML417DBBaoHH7uesS/vl6+eNy4//L0/Pz+w8G9t/jLwTko/dfF6SP/wI=);lineShape=1;strokeColor=default;fontSize=16;" vertex="1" parent="1">
          <mxGeometry x="64.58979261045351" y="369.8775743832416" width="780.1889020092876" height="16.372425602272187" as="geometry" />
        </mxCell>
        <mxCell id="O91nQu8UyTGTQkRIEwQN-59" value="" style="shape=stencil(lVrLktw2DPyauaJIgs+z4/yHq7zOTmWz61qvk/jvDWZCWWxqWvZtRkJLJJ4NUBd99+Xxw+eHS3Bf3l5f/nz45/rx7fGiv11CuD4/Prxe3+zXRd9f9N2nl9eHP15fvj5/vP3//KFL9l9/vfzdn/DvDZeCqOuo4L7drjjJ+b8Lv9/kn67PO/lYxZdJ3kuoRD5I1Ek+UHktEtokr6KRyAdJcZKPkgqRdxLm9ScJ5PmhSGsg38jz++0wyWepnsirlHk9ZVw4lveisz6rVKJP31Cf3oljAHu/nwH2SrIiv21wAwQpRKUGCHkGRPFsSRl91CfJiQLybATblQ9007HOgErdyG632WwWN47Z2Yuf/dSuxEYAUdy8aXOV/6/c9VSINAsFsiQLHYUlZboHzZJmLdk7E7F0dFJgSU0cA0SJs1otXhNLL1XcbGnbFbN0MjvM3qoqWQlAMQFoEk+cL21K3ABZCjFcKiPjboA6ktQxoKEvaZNKfCk7aWlOkp66dw7SZueLOmLwGLC52gZI4kgdyRnzXrQ8QuyQLeLgDXVE+SGgeAyg5CQygMUXlIYwMtUxwBxhdu8UR3U8BtimoZhk8UStxbY4R1yqY5GHgOrQl8z2LB6qR0ub7QNJAjVIhQIXaYWuFl/wBssjRK01Yokz27MaWs3VZkC3PdNSkjLvwWyvxPlqxjRjtk8cACFaCvXWDphdozRJJKYNEOYlmSkjyUsdAMxBh//+LCBKZmpdAXlY5h4AKlA1+kfiwQB1jodaacTZ89IcD7XRKmrPCwuAZW8DAOFrjqZKuw1pphmFJoYzQMsIaMSX7HaZI64F6q12G0K0WTywJdntORk3oyvEWw2AS4pSmZYUU2VLHBCx0WiFco1mEQdqrdxwbXj/BmjccG1xjUZD1BYA3Lu/82QPy5JYquyOkBHQWIgu8dABLC8pcr4TgOU5NBxfkqXeumiJbdqS+7oH1j+UIC4hgBnOANBldddg1EGXmG60ZBl1gDrdKk0CxgRKRUBlgDTq/g7AWtGeGMPyBh7TNS4Awu4tgv3iGo5lvnZgaU+czzuHLNEQyjJZwwGCXWEtSt/E4kyF+EZX07IJRu+7ISICGllSN/Ws150e7nlTXdTUmINnpOt9EycRURc1MW58FHOJOMcvA4x2piXmlOg1l3F7V4MKe8MyCulFi3VyCfssKwGRtU0R29eTOmpvcADgldoA0LOfcIG8UN0TtpHLsiTOZwxQIW9wxmSWxlTGOVluS4xy1lfccLWf5JXWwiCZ5szVABBxJ9zY4iHOiemEfRsgAYDz+wMA7yDKMs096VEOALwL6oBZSyd9VtfSbOmTTs4A0L6e9IqdbUCvyGfeZmmd1dr7XZKXzPnyDMicC+SFufaenQ2MlpFUnwqw+U/F9rXPHVhMZ0xkfbJBtNQT2WzpVOmwJeuYlOynM0xLHl0jRRpAyVgkjKS2mnRvNAi+1GdYbPi4nWbsp2QMoEMn+zkcGz46JHF90sdGtA0TWeTDlliQYUU/+tNjQEI7aBu58BiwcA3lrV9cRuV9pssn32A4TdQ1tGAy7nNpdlC2xdd+8s0AC4VTR10jFBxUhEbjIQScztgjMrGDr3hO008gGF2PGKL9jIMdHbkxhd4AOnq741S57NnT5B2ROPRzIHaeiFmsHzSxHSOT8YUWxK0QbPKJnuc6DJ2Tszg3vHiTD6PfvyMP7ZX3lOst9uoW5PJAemhhczhrKJSEeTx4zGNAc8e44M6JHmnEMdv5Ic4SacaaHOm5bMPmRfmpbEDNK62W5rcwLgj8ADQhaXG0R7X11wLyjFCoxxG9owzesmXB9bBjPcu3MLFxdGCjBZmpo6OLXjE8yrOSpDgb4QfQViTrsh5WwZbBnxsnp/d4QUB7sclL8qv+WQlOy4yan+aZPAyQHT2r/tUPYc7l7cePr24+XZ+ebh/t7O/jVzp26faFj77/Dg==);lineShape=1;strokeColor=default;fontSize=16;" vertex="1" parent="1">
          <mxGeometry x="262.4927901913202" y="320.86254239836467" width="18.272694482181578" height="417.3571979873989" as="geometry" />
        </mxCell>
        <mxCell id="O91nQu8UyTGTQkRIEwQN-60" value="" style="shape=stencil(lVrZchw3DPyafUXxAo9nx/kPV1mOVFEsl6xcfx8wWxwNgNme1dtqhZ4hwQbQAPeSP/18/PLj4ZLCz7fXl98f/n76+vZ4yb9cUnr6/vjw+vQmny758yV/+vby+vDb68uf379e//7xZVrOT3+8/DWf8M8VF0OgECYshX+vXwXK6f8vfr0Cnp++7wBjUNL2kQoD+041K/tEHdlXKvr5mQZaTyKOyp4pjtv2va/tLftKFTy/FwpF2XeK/bZ968TaflCPwF7WX7U/xaFgA7VS7hqQ15EcAwJFfQKx0ABv4EqpaUClXgAgU9FnEDs1BAhrARspAtV6G1AGDdYA8VuDb2iaRqlQAefGiZLmhRAjozcIMfTBCTMSYJK4NehzyBJ7gBrcKehzyJEaWNI8ac29nInBpmuhaoKNF32PAZ2GAbQV38f0zpZ8+SQemo3PkpajjwM0EusllUIZZQCmqt1aKjWwh95WhtsAgwJwq+SYZHJSXBFyK8kM7SUJqYq8NByAqSFAcUtqMETrluY2wIBvqHJMJrHGxa5jevMiwgYQtqIAijT0kipDt8oxRX1wVdgFllSaTTN1e8QtQNER1yS1oUTWbJqRAtDApgVgAkiOsgC2CiDo3NoqRbzpoN0qMVhBAE2ADiChYwJc8oC+ped7Ael0DzoZ93zqJQMoMAkcAHiR5V5AO9tD0dSQPIKkTOmrQG2AAZWAxANraoytYtyqot2Imbjk0M0qyhbQUdkt1DW9RdAhJTDTlnkDPmkpis1sulBEVbSsqrwDdLCkmVT0OQzJS+ANEsFRlyxRvYzTfTFearjGJbcH4RKqQNmdQ4chKl7V7JbGoABmJBrN2ifg1EHZPR9FTxyOeX298hAgWqq6HXcUbmwr4gQghdiXkN8vCR1zWMTcbRopROGFad4Grle+mxEAavdmVuwWwOAcRI6ZeiWAihqmvHT5DtBRQKfVsO0AA5WfYXuBXdd7zI1q688ZQrpUIzVOFhXTUiJ3blukunsB8mt0GQAfXHR5FTNDWsIPUS+yizdM7iQpzuUwFD4lOGKcBGg5imjce/OHkoxIr+LiDaUxSdzdkRvlSVEhwQFQIv4wIK75y52VIbsBCC49sh7j000I3QgE69K6Rig3Kk931RkV27RWuy//gBTRBXKBKizYfnUKGBA4bkA3FRII/OBIjSVYdKIQa7zkNCEWkW5OcqJS2e73RAazVQonOtvbYyHv7XGn4O2xQPX2uNdhp/pxM+XsT7o1tvPFk3aQlxLd9ZsB2pcPNbS8hgJ3dsy85hp3tuTVCsfZ8wP/SHbS5yX6P6H8ENa/92MLVImLG1tkWLrnyN4sKcK5n+zZ+JSxmMjJJvXZh4FDyN16lRkPFTIlPwJDzWx1g388ZBP93vwYDy/JzJvmoBAw4320uRtFopPOThPNYSduWkzxy1g1ClvN3G8ObEG2m42aATAsr7HbeJ5DZxQP1bJ1jrVRgSpWCM7BOSDf1Naa3nM0D7wkIVp0jkzbLcuxiLLj15PbhW4j+uT6QjKQuVsI8NSixLu54+mwSE2fGkCFRJLnRe3TeYuEZFexAR0znLvIoSbzhrhS7a3oMdPaAXlUopsqLjcf229jny2t4ozk5nEMNyz5ytA0r9uVY/u8dNzGCniVKvYmbvBVLburVHwVzNleBQcsLNgyImD/dDsZCLCRqGndjr3bB7BfqdtGyeK00rJVOngmIDrLhAy2F11Z7X7RekRHN7d+dLVe7AUk9qf0Ycn5HyWtYfmG+fDh3x7cAZAP7z91+Pb0/Hz9pcT+//anEfLV9WcV+fN/);lineShape=1;strokeColor=default;fontSize=16;" vertex="1" parent="1">
          <mxGeometry x="521.428452470017" y="298.5867988482464" width="5.995120211227004" height="445.73496041838916" as="geometry" />
        </mxCell>
        <mxCell id="O91nQu8UyTGTQkRIEwQN-61" value="" style="shape=stencil(lVrZchw3DPyafWWBN/nsOP/hKsvRVhTJJcs5/j5gtkgtm5ye6E1eo2dInA1gLv7Tj8cv3x8uTn68vb78/vDX9evb48X/cnHu+vz48Hp9078u/vPFf/r28vrw2+vLz+evt39//9Ik219/vPzZnvD3DVedKbWhnPxz+0VMyf/98OtN/un6fCdfgvEW5cuxfLZGHMrXY/lYTI0gX+2xfKgmepQPRN4aNz9ffyDP92mVz+T53pk468cZ54/lXTHegXyJRN6bIpO8N5Ho0y76CSaQ59toyiwfTSD2tc7U+fzJpETkpV+vyxcjRP/VpDCJVxPI46sRsJaljy/dmEPemUTUU43Ls7yq09Hr2jQD1KGYPq0JcCL1EOEGmB1CI4BaLHQDDYAzmblEMnG+tPqEJT6tJxZ4Q6ZaVSf1cxLyYhzxar2iBYCndlZAnh3Dxx5IR4AKbygmksDXvBDnS2uqscQOCoBIDt5klipc1/oApO5dR4AKRyrdu/aA0JU4gl9odlFHSHP0R9cDdg9QRygzIJjItFSxHsREI85bTDBaUpgd1HMiHKnSkqae4+YQTWp74t5aQ8ocQMkbx+6gZpqdLwV+pNrjawASzZNBjIcjadCSeAijDA+AVhYGsPiGPELqCADxkJ0JhIoooM6Gy74Xoz3AYV7KkaaZBpjtkLW6sUtriM5aypmW8w2g0kS2Aor0Xw4Bc4gWewqYDVfc2ZF8QUBhHMxhUS/eJP6GOme+RkO5pREQjZDcqoCcEcCKYhi0bgBSZ35H3goxXTIt7C1EQa2ayBj1rP2/7wAs4rz65hwPpVLDaSKDVFm1rpI7aKpMs7dW2/noHqB5DgDqXRwQAOCppRUA1EEBiaQZBTi4dKCUXgFREJBZuh++OQCR+pK+AapoTf1WRzXOVQQUUh+0igLRrZkmY63TQHRr6cnziAmUggDWOSjAg5Yq1ZJ2IsAEFMAsrWwmOgQU9gaPMa0AVoEaq0wLgJH10rvT0Q6I0EJtIzag7RWsI/PGLmpiZENbFL/cOvOebwWwfK8ADLnKu1aLfZ8CWGVvbd7iTIxLa9dUFssJcSabN74h3Dfc+gYGcEsE8SOpf8vyBssAqbP/OwCrWRqjmGd4v64Au3hrYpdOG0tndoeAhbq5N0tMttfA+wBilq7Yl53GaMLSfpYG/MbUbCymAQFTgXZrdiTZBMTJIMctyZI1BB8HLB2EVghGHlRLHiyXqanVDiIIcMzUBZt8raOMAGlQw+ykVWpWUizO3064gGaBAEdStsEBmMkC7Ua1ynkAeN7kB2w56sl0JiBdV9ZH5z9xiYdBr/8vF5AztlFXbswsXXHQ3dg3I9OyAVhGpgVHrYV7q5I4mM5oj8JGg94h62tdEKO62jYVBLCa1YgojH95J9emM9Bn8V7RLwPyk25UybQsAOatDQCuwTvqDYD37A0wa+lkKrAB8LlDA8xqPZlsrFo6mZ14j956Mp1RAMzi2/yHD+5gFdWWTewODpNA4h2EAmA5k/i2okXcrKV0EnHSee3dpI8VdlewPqQRUocMC2aJttekwy4INkC1k4mj+gARFwvdqWmNg1lim+ny/QAMjGLgDUTGOt3m0ozNxGXMLPwNAQlWm62zOyxJ4GR6b8c2YAD4fkABYU7GbQPBmyAI0ZMdR+ua5vpwskWxywC17WlIElDO55ZNkKf7wTp7RtswEK2WvjwY8rG3v1v5hDp1jrYb63JNKDHxS+9QaD20y8Iy0Y5MOhcc8sEE4kSCad7yhY7sFq70PNgg0o2UXcoUnWUsXDjR5VJYMl3vOLbiGZ050ApYMctpvWIJYqHZjm6VNMcBf7R0pNc+vADX4Ry74lxIaLumuQO2XCeLidI7p3d55jm7L0OY/O7LE5Z6dl+2CHHN3ZczVD4gN5BeEfbyCftloQNVbV2hSArNbNpMA3cX2ga2bh3vyzLz3RDkHRA+CmD0bHcixmF3N04f1CjL/TuLFabRjUewCK7LwI9/q3X+bZf+8f5h2Lfr09Ptu7L7/8cPyfSn20do/vO/);lineShape=1;strokeColor=default;fontSize=16;" vertex="1" parent="1">
          <mxGeometry x="22.184667281684597" y="159.54545865310502" width="31.022356259887147" height="537.3839964487536" as="geometry" />
        </mxCell>
        <mxCell id="O91nQu8UyTGTQkRIEwQN-62" value="" style="shape=stencil(lZ3ZkiS3DUW/Zl4ruDP5LNv/oQiNrAnLGsVI3v7eZExkLfdmH3a/9QJUJTfg4gJEfso//PHLj79//pTCH39++/qPz//58tOfv3zKf/mU0pfffvn87cuf86dP+a+f8g8/f/32+e/fvv7rt5++//77j0ty/fTPr/9en/Df73rhVsZSSuF/3/8w0i19/8vfvsv/+uW3F/maVb4fJN/Kq3y+Vfz8Hl/lyy1Ekj9MvnSSH0HlR0F5mZ96yzDeeItR5Ts8T7yl+irfbhHlS1b5Gkj+aK/y/Rby2/LplrvKl0byPal8g/nJt2jPM2B9863L/jluEZ5/rn5U+Zzelq+3eKh8gedvt2DP0+Dz52wHle+w345bsOc5YLzjlprKD3ieOA+wTdCAAxnnDpIRjFuooDCXuKhCpC1azKZMBfqGaodyKtAYug16zhvsujjn5DAFmNZpJ7INOsGg58GsPksw6HnSav3ItM6jo0d5nJv3WqGc6/q8NcAWTYVmm/uAwzNPm5+eA9ZhKhQ/PmS+6vnv5/NJ9qudk/ikQA5qKtRkCjSt/XRgzwo06LlbuyoUeqS7SXynEZsKzb+BZul+vp4VaNDj1lwBFi6HK0MMJ24qNNuthTxJvNjeBQ7QVNADdJx/eUuhmTHOMEtTYfg30BiSmZnjlsjdTv9sj5RgpXM+7dyzAtilqdDtACUadDHIs1U4bGskWod6nuB3goDcbtkXjr6hf3S3Hhc4gHDqVDjczNDWGIa0pwKsdJnQ39ahwXko8fSZ78Q+U2E4WCLwls5/PyvA1ij5DFber3DxSKRw5eNQYcYHH1OYkNKMwEbBrQYqXG0+VBhnDPKsAEaghtN9PCvA9q4TVfo3gI+r+eKIdjgPtRhIZOhQ24WppNCt3nf/O7F6u8LeBwy6pYtoZsCZbuW0c+/EfK3Zbp1rD2e6TcNoMJSgdA8nUHhSIB/X04ldnhTIsfdihmwgXurtDOGfFMhU9uPE8s8K4Hb7MDPDCke8QPcVNt+RDVWO8yOuFebWsCiLmIOjGtAd6OOOdg7xeaXhPBz9nPXnvUTB8WFsFe/WYz6AKQQY9Agnsng+orA1RrRolwOOkW7BrEaBhZsKh2M+OA8jm8vqZzh7rVBODPmk0GkM5TRbTwq0+UY1I9Bxa0yFkVUh0CM5hJv2HIzA+ndXBUJkwzFfwwB8zYlxh+Tj5rrqma63RLN0mH8oyL4tjzZUIdCgh/GZGYOmdeRlWhNCh2WFZKXvjNNbCgp0w1bhddDTLBDQnQpCQk/DE2nz+TcwK+tjmOaZWIeHN7grJLYaQ03lEZBfWgqvVqP3k9t9S0Gwd69sl4xEmK6eYOiy1a9neoKJSN9wKLvf+q2xgtBFrSKT+OB67gp38/yWgiCyhQI3RuDVzFTmZqaZOV6hw0SyBH8WQ/866ImVCUqvFMDreZhoHK1GVxJh4n2CP8u4v07rjCjQ8jUd9IxZAu3WpnRR6bxwTUOaGXehY2/Ka5SKHNlUCK/rMINN3HxVOYEZMA8yM1URWdmsQ1UvWgLy3lMhvg56ERc06KLBa+YE01QQl5XnvNEsFQ3LcmFDZvFDzkjbOV5aRB7Z1nKi1LtCYLyUdZYSZzimgmyN1M8I+02QKN/Q2FRmtXyLnKdpzepQUkHabirItK5sIQ9aEFlKOwWxrSv/SuchKYmwEuY06HRmM0+FuMEahu7jnfl7S6EfqoDIOKmPixvsnRTNxIY831J4tRorQ7dRSKqA5j4plF5JQzqili2Lme1SOgHbk0JkBQlpYmJzn5Q5iZGjrHTOyZMCwp+kTGIMbFujMeuYjpvyCr2xWGHKy5A5VTaBvKRdO+8jI9Q68vwT9ys+xIBsyktirSHIeIQJdxhz0mtvMSZi5gtzOEbJZIxxj3zykQ95YgOPeLKLd3OH87loLrFFGOvNiEI+nzf0DCjEmgYEqt3GGzAP2q22ga17G2qsA4Z5M/oQ9xGQgm5NI6SIpRatqIuNGBTOWKWJd0L8OEMVYekTAqM6lD1LaOFq9/1JxT0zsBGrntHk1qrVUvdk5Vs5A6GeMxYnVQNRBV1xTbr/C8bk1dK9BYtKZpTV9XmIT53yAqAK5npnUKbxBMoXo8G38sk+nzKSh8ICns8Z8on9LxhKFKP8Ctr/GSFqJIHFhcWqVTKSzVM+2H4G+zbjScnuZKQHS/bzhRnhZLEZ5qinvIT5GTM7M1oV8iRj6mgGqxr6ISOVDQ9kZHSnfNTnp2xCPvT8Jsz3zVBYYyz07zMSlurLxMWXVfFeQjpgygshnZBZmoG2FFOlM/9yLZ81z5wQL+WkFEvi9TX8mRDTZ0tjJ+S5knHXCe1DMnsVucDOmLqIePgBZx/yRAKsarmq8lSZZlxMPD/gWj5brIp4e213xSdUL7KKKCXgwTzuA9494SUq5jaKO6K9mpG42IeIeClaaWDE4vtoWbGI/n0GycpGoD+d8kHxJOU9YtaKoIjna0bIVZ+f8F60AqKtvK0vPo/Fm5vxGv6JXKwftG4gMj+lcDtyQsV3P5IomniOSMcdxm9wbH2x9amkQvn7iGnFroFFPCPh68BF4+qIOZfmZpbCWKuZiVyJpEFgRKdeNaaIiAmr5lvZRRTjiTFisaKRdCLiawd60uDv9OdaqJC4IFetccKEvTGrDHaSJkwTF44rNZTQFVp9T8JK+aiHL6Ejv8A55MejXhpJuIGt7pMnMiqJkbDyO6qNTGiW7MJUYpegEQQjtKiZTk7sROXj4umg3xB3OIefbuierm5FBWcMdqMfj4Sreui886qaneE90404wh3ZdKi836uJ8x07jZL4rGYT5/2uD8OGI+lEUi7m6vB97KySk4+akWB3cDFUcjY2kRwd2TLtDt+HxK1ML2JaLmmhYcRrfkn3e8Ry6ayFMBFztdkyTRgWGYsZkdUuSkJFJM3v93GfgCFxvB6CEAauHqEho+oBOBGAVfmhiN6j6fEIaN+blr8GtDNNiy4D7siufjVgNXvX/Ocm1eKZE0JLhxJDAQN7q2sMXJuge2ZTYqVx0+7TDxMnG2lBX8AqNw8qeSo9aA1I+nlQHDAJ4kE37wQP6jfyRhoELM+JRUmSgKZ1kR42XpofI1X4XC3SRj8f0cShJVKBb2gPDS8DXtBOdsEiopd1NMQkiV/xZ4u8chhmwfkWsckTabZIS3WGFDVOu9n18ylJukhXnU9yh+nQKHZDQg4rTcEkyyKlDSvQhcyoNXwRz1dOzq1g0iF7kprcVrbiN4Z12ZJcTMJnKxJISOKtpIklEfiuZ9XYBO+GHsrIMARfSSWNxjEpM9ReJSTVi12U5qRSuSITSN6qjjgpVpK2bMmchM06/1wVWIyzynjjeSVVNelJzGUx+8NFCKXp+c3IXRYDbpskbFd/lzGWKIcWgWQsSimWBOGiI0/6Z4yHV1GBzg/KW9HCVt7Wi8iCVXTxkST7KuoweXqerP4l893aov49oz+qVUPRjEml2hT5Z6SZatekHnM1dTiDkSkqCkodcaDekoZREZPU646s+t/NFVnDb4TnV9GXxgtUtLCKyhR/hg8WrZG9XUVx+vyED1fRncrT/umH42GKL46g9paTmIcVjUQsyjqy2sPEsWb1ohEqWjj66a5O+YJ44zgUzxd+frO3FZ9/BC1qb8jhjaB4vuGd8mGkX+eKdisS5gYiw4pOuYPVKot+ff7B0X7SIsDIG/qi2DwgYh0eIcXdHWCBQJEx5UiWGWbQtO4hJFXAS5JJT/2qsOdic82dVywuGNmYvYrAcmQjGhuvtNOknVc661GOB3YbHNbbbCpgDX+2CoDBJfB+CSYgHB3W5uuRMnhLQYucOIW2bv6IQsZb9+tukfD+ZXdjXbNFFTHCuh8lj9T4QlXRe8yLwaRHsi5FafAsWS12DnwNs+i0Zq7WWjfhBAhmvlBVrLyx8IXbaqFc4/NQdZZmtEztMb0RQN4coKreZMazuPmqmsrCRV7DOsAVziaOpjnlwmXEq0WnXPSsfMGw6UrPIJK6gUwFLbTuSJKuZgbySBuv23XQdXOf3HourjvAfMtYeLrKRMKjc+hdoTBSshqldVOaBm1UTuWWccO4wHZvmPuWgoD/xuzMsCquVnf3+oWua5330tD4qHNAsjoHyK0tzlE/euHcFSrmkb2/Qu8YY6wODq/fsLof0DoM7ZN7cH3DMBZudXDgaRW8tOkREUNQwLTul22+whtdfGgQg3MZa5ped9/gcrO1ctLXaNMvwfuHZMbSQ1HidHuIpQ+7xFiR8FjtdpIq4P7u1mWl8cXNftG8Bs1Gs4Vr3AmgWeekzpDMmhOsLhA0rd4uqiMPttCJt4LmTgDe/BLPQ77qx7mJmrxRHq20cd/vaBflDaloDOGiQRuW7Q7rCbRp23VcNEemEGW17bI+X8RgTkOnDakG1jyte67Wq4ysxmVzsw1JpF24Bsb4lw3aKC3rLeCeDPpbRJrGijuNdtHimUbRjUvezFNPmrx4uIBrhWAN6gffebU7Ums3wTe0Zj0/eb8uwtdPBHVRTNZ1emBU04JS6JsehxetIwffvPTmlNwQ5KL9JfcXv2iwyQFv9VcLDPRyF01CB2f+vA0pG8uLRqeDy9u9lepWQQ3+RsHbwW4UvOHsRsFb2m4V/AChgrfl3Sh449+tgrYW5pcMlKuuogTi8rhoLUz2Ox/2ZhHuvZrtsv/mVQyribTBE7we2qz36nHmdq4V6kUnecqVrlbbrkBjKBfvn0CFbC8MOTDkWByXLxxfEpXYb7cO6aK1MNVtrm5PvtK0NeJZofeswJ3ktUPtVuHi3Q30SFft83HQVw36SeHyFQAbBe2yu1E4rqaV33vgryYhgJW8hefmHRrWyG7j45K1tBiDy/Ha1etV+KUb2uiUOzYn65qxASfJaONNjJLKhUMhvJTKxTcQInvkcN+J+ZJVESxUCVbDb3RtOjavPI4pYCHx1UtosJLYargH8z+XL9KhUuiVEzTcSoOO2V5NMpDZiHaLadPMO15hb2Tu7PUTA/miQ5OKj8an18HA1auDqP7jopE3wuiLGaUcjZW7bF7SY+VJmzdWeSPyzQt0Lprg41HW8tEHjX+9Iex9VR3xQjSuofMpM8TD7fSixSRcbxEMvjQ0RNbzZDQMkvyNfxXrOYJZ0orz74QV96QOBv256U+w/Z+xvtnKYwbXwwXz4Hxb0Fj6wbUcV/Kb54kmj29E9OenON7nh+utff75Sm0wxjNi4BXOarBnedw/ut92n69of/f8yqfu5kffRrGbf2XYduv70Td27uTnD4/Xg/785ddfv79d9Pn/+jrR+afvryLNf/0/);lineShape=1;strokeColor=default;fontSize=16;" vertex="1" parent="1">
          <mxGeometry x="22.89742302445029" y="144.5206823749736" width="861.0309314052547" height="598.3639356875769" as="geometry" />
        </mxCell>
        <mxCell id="O91nQu8UyTGTQkRIEwQN-63" value="" style="shape=stencil(lVnZThwxEPyafW35ah/PCfkPpJCwCgEE5Pr7tLPyZF1makHiYdntGrvv6p5D/PB8e/14cwju+eXp4dvNr+Pnl9tD/HgI4Xh/e/N0fLFPh3h1iB++PDzdfH16+HH/+fT/43WX7J++P/zsT/h9wjkxRP9zf05f1CxB/33z6SR/d7yf5Eua5aNo2pf3EvwsH8RlJp/bLO8lun35ICHO8nZDKl8V5R3Rd9NuyJcmvu7LJ4nzfUqR6vflVUKd5VVy2JfPkuD5YXzzqrydnif5XKUQ+ze0f07jhq/7y0tzE0AbvZBPogBI1GO+oMrqJBITWYxqmQApiyM6mJMhKNKm1euAglEdixSidHSSZx1ikFYIIEqb/RCqBOI3u0CYA7VrRQDJjDgr7ZtoI4CIoe1VIgNYJZn9YMFSiVlTW4qFFGIkDVi8MtVAdZhwiySJxERaUYEkldS67PE+SRzLZfsZokIc0TfnkSibQal9chulc8jzxCkW9QryjvirJMkJ5BOxp5XC6OH+LKat1LZZPtD4sdaS5vsrfX7V4Z7/8ebZ84vkJaATATQ3eukGSEOl1wFBFACW1ySkW5I0u8BXfoJKm3U2p3l2Qhk2OQMUkgWtiksIYLXOAGUBsLhubdz4XAfSxA1QllpXOaBGPCEwTzdsgxbbjCd0wFyLLLgLc1xbOkKiTMG7LXs3RL54xExGwgWyYIDZc9bolAPqfEL0Ix53AdBpA2UL3dVLp2UEzABZERBYfFubXHRglLYDIL4bbZwdAHWvvBegvGysV4qUZq9Kd6ZOGM9q1t4cLuQo0AvzPdcBQqO3K+5pCL5eZ/gJEN6WoxfqDCZQHC31HTl6QYmVGLKmtRaayLv6WsosvpW7ui4pp1yHsqTchXL8bgB0CAMk5uq6lA3PY2PpcgagOVrENQR4VjYU2U+fIphZEw5Kvc4wx4WlChTeIBxO251Bk/LdGRNUARsBGEAxH4zPsFjqnA8IkA6Wtksq4YQ4aPsuawXAtqR4Iy32jlaylXcbgM3Qndh7BDBOlrfGvwEC5TPraGJWUgZYZh+juqzer8OVOS6waW+Z3gzAUlSX3ZCRaTaP9flzaUGBBF+fcKEYb2fuztCQD0rzoU/ps5V69Sae7nsAKPeJpqj97KDMVBpLvQrBtiRKYuuVgmZNle6U+uZiVtpcyYKvb3xmP2geHWN3pzTrYPHLVkR9azXrkJXuGvpeDBaHjncgbECFH1CwO1R7PonVPHy0ySe6uFXc9tRKn29RNj+/efr8iITS2hcrwwHJm/XHSlIt4OjdMq0WHitkH3zpohryzORZ+XJIkkye3d9hiW+NDvYO939n3HIH4CsekEkKmPxc4I0CNSrvKircSEA4JFTmMDbfOqxbFhAshRem3eKgDm+U59s2h8uk5ugGwI2h8SzB2LDtcA9j5Eq5v+D5me6o3/8m6JK8ffj/2unL8e7u9Nbq/Hd8TWVfnV5xxau/);lineShape=1;strokeColor=default;fontSize=16;" vertex="1" parent="1">
          <mxGeometry x="312.33937352825114" y="-77.31881535454454" width="632.1558824522403" height="23.977618173810924" as="geometry" />
        </mxCell>
        <mxCell id="O91nQu8UyTGTQkRIEwQN-64" value="" style="shape=stencil(lVjZbtswEPwavS5ILrkkn9P0PwLEqY26ceC41993WYO2uJLH8JvizIh7zB7UxE+f25ePzRTc5+l4+L75vXs9bSf+MoWwe99ujruTPk38PPHT2+G4+XY8/Hx/Pf/98dKQ7enH4Vd7w58zz5HPjRTc3/MPtZIP/3/5esbvd+8zfKCSRrxQcbfxiYIb8ZEy38YXCsYeT7XcxvvQze2EUiiCA7xQHk8okTzwQF12IyFriCIg5B6RC4H7masEZiqjD1L6meuESlVGQqAAnI5CjgdCEgogzUmjHkfCRSnrhEwyEqKGFSROuEe9E7gQAx/kktcLIVACJ2jUZTwhCNUKCHqCHwmesgCxBsqj0x6fUIRSHQlaUCCspVIpYz1AdddgfRYS4EGrxlHckZIHeOk5uoSoC2UdnymaCFEGuqvF2u96Q7iFz2LwHsWnUM0G75D9lYK3eNAsFB+TxSN/K4m1BzUjxRf7flT4ddEpHDEQqHcX/64EVGRrB6CSaQ5Eg693AjS+35NLOAFWcGietQQ7i0eCKNZfjxOmAk3WfoxfFEBB8Sy9Xq94AQlu+EV+sT3JChR16eavfT+aGy2eFu+wfjxbPGpYlXhR8Bgvi4JH9lc77B0ce61erP0M9LZekNiBWgw+3+ko1eDRRHoYrwIaCzJAh3Vi8LgMMfY32QmQyKEELLaCjDuos/5WPOKzFZBniqADFbYj2GdKwKJc7SLUQgpSnCPJGNKAT5DFFNMVFY1ViXYL12UOqSJpmxtP0HUxA1kk3TNGgi6kiBBzH7yzlRfdVKKzK68u1QUkjqMtfV1RBTitl5s8Skkzw4jAvRfOrh7IaVWOKQa93GRQPapNe32qeL4u7mehi2tdGXZ/0npFCwgv9l3dINH9j8KYtNafgD06rb3FVxAgZ8d9w4OUOauJWQO/QRB+kBAftIgf9NiXRURB7bvebmd4tOI7W5dt5EJ/zfxrKx70d/l+Bopesx8NhEe/mNzH68P188zbbr8/f92Z/99+ztGfzp+C+Pkf);lineShape=1;strokeColor=default;fontSize=16;" vertex="1" parent="1">
          <mxGeometry x="908.5849961124236" y="185.63905224967266" width="200.72209679305342" height="264.7674865635256" as="geometry" />
        </mxCell>
        <mxCell id="O91nQu8UyTGTQkRIEwQN-65" value="" style="shape=stencil(lVdJchsxDHyNrigCBLez4/zDVZZjVRTJJTvb74OJipMhRtN2biOKTSyNdRfvXp8fXvY7Ca9vl/PX/c/D49vzLn7aiRxOz/vL4c2+dvF+F++ezpf9l8v5++nx+vvlYbo5fX07/5he+HXFCaUwgST8vh6okMa/J5+v94+H0+I+Z6o8AKJSatsAaVTKAJBCXLcBsVBsI0CI0zZAE5URMCkZtgEpUq0jgCnxNiAzhTgAMjUgIJv8PDqJuGzfL5l4dGqgAN6vSjqyVigAD9VMmkaDI+UMAJWm/5YcMEVAWm3URkAM1ACgsWdZGZLWxLOcLHYVANTbkCMFwEKzONLRq0IZSSiURrdWSx6QC828NPLcIgky2gBjIJmSiGkD6BjazWJRAKBSGr1kJxEUADOaRx4mmUhCohw9oIHgM5+0lYSGJJjX1QMEBx9nbzQjCaG/t3BrQgnUfImxcCzIaMt4FxrSg2ULkMfgM6sEAZiKi1ZTEjE9F60ZULFK6lPUAMhL5kRlD4BFoHi3mg0Z2dAouNCwuoQBpXoeUH/jMNfqBdWohZqI7OI7k6CkNqc4gPkBVbJCeWTOZDJiLq8SwmIDqWRNf0zqhR+2krStkhQGB/vq2t6JprAqZQVm9dS0nIT0bpf7P0ClMKpU5xzZ6tRhlFCUMrJBe8eZu5zC2cRaVB1VSgrrd+XeNedObfMTaIul+WIZY6fyNqD48US0n9wGJJ8QXEhAyhUr+GPwsfTSc3uCS/29GZAgD6l64hhXV22eB0m9BdwGrCYmG7EEqGRe15G4mHo43h7Vgx+AjGkGNuReI+ZQYliXVoO6jXARKKR9SF3cV/B+9EVpeh+4VLyDJv1B3HEfOBf3UYEJK3tDr7Mb98VlWoOErTqPlr5sffB+hvPqauqxVUtA5ge/G6rCtmP+XFUWtOlJ39I+uKy+v9zax7/N+OlwPF4X6+X/fpO2o+sWHu//AA==);lineShape=1;strokeColor=default;fontSize=16;" vertex="1" parent="1">
          <mxGeometry x="1106.0923030293911" y="142.99124125205162" width="40.78151960018795" height="36.07417658852705" as="geometry" />
        </mxCell>
        <mxCell id="O91nQu8UyTGTQkRIEwQN-66" value="" style="shape=stencil(lVjLctswDPwaXzEgAb7OafofmYnTeOrGGSd9/X2hOpRNyFpPbo6ClYjFLgBpI3dvzw+v203kt/fj4fv29+7x/XkjXzYx7l6et8fdu/3ayP1G7p4Ox+234+Hny+Pp79eHKXL69ePwa7rDnxNOKaUJFPnv6QKTlv8Xvp7C97uXi/AQKbYhPpFEEF+p8RBfqbb1+Fgo5CE+CEVZB0imJiOg9ltcBWglHgFRKOs6IDWfcmwU0jqgMPHIqSgJOFJpnZMZ0IgBq7X2A3SACjEoW1PSkVbNpBUAKunIkjYqIIfAlvVY6SRUGD5CHKBQA1lbEh9S64Acb9FUdARkElC5auoeeS2BOIDKJS8mu9KAvvOc4uyHQAGwlAPFsXI1wyMlpVAGQAskQBuavDaa6RtoQ9XTaoCMLCdUF09owHIavSEmAKBVA7XFEyqQhgHCIgdFR2JKDoA7mQEiewDqZAb4YH0GFEooB14ULlNFOYRulwtARIULVMMISFSBgaxwRTwANVeTRm4LADqSUmYPaMAPJm9JPmnUBAxQiwc0BMgUHEuFMqp09l1j6oWIJeMkeQD0Q/LN2OQNtaR+7k4GQl3DxvKopYsJsKaNuOwCCBBIl0lgy5XgAXzDo9Xzqkh97AevlbogbTCJeADjJ3jL5VuN6XOAxH7I2ZxEcrWxHMccqvTueX1m2eAfHVQqHHK2MeWxDiXCbaMU3/pssCYws+zEaTyS7Q4FAYyTUd+pdqKvbyfShTADFC6ibTGCbMVKAFDTYiezRgJyMJacR82DaE00EmXUkhjRoG2kTGm0qEQ85BIFt0xnWGlbnV0ni6Fb6vobhHbLz43J/AAsGpJ/BbKXHCTv2kfg+ZUGNW+mNmpb+gRbCU/iwiO8u9syIlQp+w0g3ji7Iz/A8c9e0Xjz5N6nzu+eDVSW/VzmXrjrdSUNLhztOtHPZIZWiX5vwcNP/BIyvyOuhDd/94h2nM+9xN8Mtx/n7wVPu/3+9Lnh8v/++4JdOn2bkPt/);lineShape=1;strokeColor=default;fontSize=16;" vertex="1" parent="1">
          <mxGeometry x="949.5727567342574" y="-112.43281864368964" width="51.60175092808868" height="70.31338013739582" as="geometry" />
        </mxCell>
        <mxCell id="O91nQu8UyTGTQkRIEwQN-67" value="" style="shape=stencil(lVjbUlsxDPyavGpsy9dn2v4HM4SSKSUM0Nvfd9PUh0jJ2QxvwWiPZWklrb3Rm9eH2+ftJoXXt5f9t+2v3d3bw0Y/bVLaPT1sX3Zv+LXRzxu9ud+/bL++7H883R3/fr49WB5+fd//PHzh9xEXJJcDKIU/xwWsBP238uVo/7h7OrFPUrOxj1lqX7evkpuxH9LDunmMUpKxr6KR2DdJ3dgr/T7+Xao9rwTyfQ0SrT9BGvm+Vh8fhJPY5yR9OPtYiX2XHG38JbZ1+6IS7fcz9adUafa8XUYm9vAnWH+KjEQBagmBlNRBAE3UeqRROnOpSLOUyMgBcwmUsTFFlJXUQAFJbdEgbJWwKA9Ry7qa58plQJNqw9qiJA74X7VL3oIUEla4lKxLvUpkzMiS7KH7kFA4NaoHNBKlCiKoBxSyQx2zNyyAPlN5EdCyNLdDk0wy3eCxLedepJB21xElS++ukhmgS7AF2uNsaRcBA/S2YW0gH6H3qNKbBxQSpdFkFA9gNT26b2Kt0S48xgziAgCXSBsDwLl0hd4HgMtDksRd8uTTSZa1Qw9H70InJwCheMAg9Ebiho0SSjSzxBXpZzWtbIcsPXmXGsuDnh0aJcV2UN/uEVZl9MbAcjUdaU0DkBwgzJU1QHX10GeVr0Up2yiB3qwvIQ9uKKKAGjs0CvIMkBm9z+dDvcZWD2izPa/Vg3YfJTbjAPDkw9glO8SwSKOTVFfuk5vsIFNimcOQc/zOs8zXwuROjYJg6gSJUFfUXLB+HBDOFHSYiujyRKkzJgsgSSGHRtTdocF4duhWfDcGgVkFNWTaudTp3IUU6M4ljAymc9vZvSRw5Q0RN9T7NJhiqlMJn5w6kURk9Vp9oJWRU+d4pmcqF3FggpMngfZvAIrdAZKIaQG41GyN1kWwrB26WLrWyG9Axbdj6HFlO7RJzkWuFzoWIXVdO9ZGW1kJ/hKkC4HXuFRtWHGpUU4+J+JwjW5c37sJMWi/x73St0qpZGQhItHJHzqAcAfzFU2bEq6d3baMGObK5ekwJDpAog8NCGDsPqSdANq8RS72V1rMbKJLjjNnkQTrD1Yyaxc+w6nS+5V6/9/fWlbsXYbT8lax8tLjuhfsC5vnvmhSpcM5eqGH+LAEB69gEDH2NBH8GDw8fVB7d4NGxJieP1MvOBGbH0Gi8yfMO8qK/cde5q7b48f7M+D97vHx+Ip4+n//bIil45Ojfv4L);lineShape=1;strokeColor=default;fontSize=16;" vertex="1" parent="1">
          <mxGeometry x="551.0904370666476" y="-147.87768859752805" width="63.857845492734214" height="44.2575705543818" as="geometry" />
        </mxCell>
        <mxCell id="O91nQu8UyTGTQkRIEwQN-68" value="" style="shape=stencil(lVjLbhsxDPwaXwlJ1IM6p+1/BIjTGE3jwElff19uDW2X3N0xcnNsTUSRw9FQB757e7p/PR5SeHu/nL8df50e3p8O/OmQ0unl6Xg5veunA38+8N3j+XL8ejn/eHm4/v16P62cPn0//5z+w+8rrjBxmlAp/Ll+04njvy++XNc/n14W63OikM36yNT6PoALZbtBFMpghyQkbAApU2QASMRiAByohX1ArFSDBQiFBgCRWjOAXCnIPqBTsmcumQKISEYKx/oaiTMIKJDYE9RGDeQoZsrVABrjHZQGNqQm45vtKhQqdgdJ1AsgRqIWLWCuyzb1AhVbZ+kUEFeFarHcDhTSPqBUKsHvwIAYlUncoRtMawu+DqLMqACgIdluaJ0aOINEqparLVMF1JAymDNzSaiDkET717FVKw2ooUl0lS5xJHobUH1IWnsBlZa54eeOjtRBllqi5ERGdQpkqebR8DNAlRAASvN1SHoGTL682qEgQCax9E4MqVHSqOtCWRMonJYpBA+IQPdyHz8vQmIE0Cz1VVqRCKhGiE9rBGxVQLKHjljsFZBt4WKBQqZnSPYMqrYf06WYKIMdSvA3nN5IEJD8ra6ACEJSLqWy2gGktZTR8sszIIAKI6+yhNgqo67LOqAdZGj1stKI3o269TITlwA1tEW7U40EK11mUVn2AwqJqVqpvNFx2qKOSzd6Wlu0VR8SUg1la8z+0EiXtIF68WlF6q0ATw01REg11oA60rAbkuOSXoo3zvAhgDqBaMknty4gcT46QR1T+xVXsoRaWtjfuurpkNWY3JTTYqUSMDOdqdiQ1Hgj99Or97mseQZn6HMSZyOARSOG4K8s7RABPd27dzOlQzfTVe5tXtUvobxqmpJV71ZGl28XonltFXw/TJ7PWWn1aOAWVUuYbF471qWq846z0g0OZaqtTjU6ttKTE7CFW9Rye4AQb8mULg2kaRqzbJp6Gf59GxC8nelxTLPb9EtDt+ZClLHndl69/dE2F3SE0fLz+jDou7l+1Q01wGEg+qqp9Wioat6N5QhdcQxexXh+UNid1d2FyFBY9efqhLVCAdBJwcmeBlkBK3ieOuckjS33blzXzmFcX7uum916aJSUFMGvB32jHsMVOQyLvOcNV/8f3c663ol2HDPsnkkqzmCMSWjXetr1PJ4e9lybK3DGY9LK2qpK4HiqG6Cp4/XuCa3B+WLtzVXHAN8++qR3e71++P9++Hh6fr4+Py5/9++N+tX1rZI//wU=);lineShape=1;strokeColor=default;fontSize=16;" vertex="1" parent="1">
          <mxGeometry x="604.2689692319996" y="-153.85927779341569" width="42.070729585994286" height="38.58867228336089" as="geometry" />
        </mxCell>
        <mxCell id="O91nQu8UyTGTQkRIEwQN-69" value="" style="shape=stencil(lZfLctswDEW/RlsMQfC5TtP/yEycWlPXzjhum/x9oaqUTEi9ne5kiccEwIsHB3l4Oz69Hgbv3m7Xy9fDz/H5dhzk0+D9eD4eruNNnwZ5HOTh5XI9fLlevp+f59+vT9PK6enb5cf0D+8zJ44CT5R3H3/eEOffLz7P60/j+W59SMT9ei6UARAjBekAX8kBIAlFY1GlUP8OZGeBUKkmACSKtQOSgyYVpmqAQtUDQHcoHTDtCXaorgWxAcVTdgCo5Hunq0CAnfroeiKSD3AL1ztRE+UCAPUx9EAhjgDwlGIPLG7txzVTYQsU4ING0ZpU21nuayOTZAsksEP2VLJ1ugBtJFWzCWumhIBsxaSBZqBvBST1QKAEtKFqLiZK0tJ832neOM3QaZU/91VAFV+BSZpynC0QcMqFLSBAfLwDVKTWuFGr1gUQJRVCzDasSN6TNk2UAmXgtAJ2h0QepahqyfiQ8Q6hVcY7ecODU5NMmdEEAiaVQGI6ylqq9sWkhWmT1AXJNZBPFmCU1CqdZL12QBuaQU7sQSTU5crGBwzE2sK+dIhADOIas+0QWtsKKBtRj9r3gCOPZgE96j5KacmpfUAo9X00cqvPu4BoTExrZxKQ1L7YaUOYPNA319ahlvFEdwAmuZYui8/kgPQ2TTfAwcG1I12nMSRstrrWoQGoVGxN1aIN8iy2r+ty5GqxQxIu2Oxt7XJt3thfn0i8XQ+snz6LWc+g82t0TF92lJDUNg1HhYPsWcaC9bDQpP2/k/m/1+vDeg14GU+n+RZx/91eG/TVfOWQx18=);lineShape=1;strokeColor=default;fontSize=16;" vertex="1" parent="1">
          <mxGeometry x="663.1266229374241" y="-154.87606082673233" width="12.035701032215457" height="40.89071149008328" as="geometry" />
        </mxCell>
        <mxCell id="O91nQu8UyTGTQkRIEwQN-70" value="" style="shape=stencil(lVjLbhsxDPwaXwlR1IvnNP2PAHEao2kcOO7r78utIXdFeafIzd7lrERySI60k7v354e3/S6G9/Pp+HX/8/B4ft7Jp12Mh9fn/elwtl87ud/J3dPxtP9yOn5/fbz8f3tYLJdf344/li/8uuAC1bqAYvh9eVCVlP8++Xyxfzm8DvYhDPYlU07Ifnm1ss+ZtG7bM5Uy2KdCkrftk/++FKrAvlFog32slAvYjxDzAGAlAQHiRm2MKEdKcRtgLrRxS+aBbttLoDy6HCkj+9IT2u2vObwd0eRTbAs2YK9UR/sEI5qFootoIAUbyslz1GKcQY6NYnEELCEFKTCAjKwTewJYaoDsfE7EeEsiYx0YsfAKadxSYYoCAIWCA1yZeBtQiUcfaqYCVigT8VqCzC5WWqPTrVICtWMbCCM1mvRU3q5mi0kafagUAfmaFYP6KMEVmk9cKZRAuWnoeV11yAiipJFkDGtJVECUNHX2rwCI3lp6XtdNG2RazenknVYQVlXK7MOKyMdhGiSVKYBBYkv4SSUw1eZEG8Nk9Iooc9UnoprXKK5T2zD2KWiVajXvAK1/YotMmj0gAG4YXbVOPoAtLRUpPkqo9VkFpSkPaEIbwI1oyzQD9hmguIHYehi2fGiugioFtIL6TrYUBEoc99frkkNsFWrsAQUMOc0+cbYlRlsyp+fGhNiqxFPrY1QP6oVDDSTIBwM4LkXcZ7SPtCvAogQy/WFAm8TPUlKA3lbB4gCVChpyadJ7AQssm/xlLGrr6BWEKdmkHtuxjcWGANlPiGUsIg03jxRrtwggPq4mTxLS6dJH1EoABZCIBTBJrAxanwFkBJiIQ9wwgFMbdhaAPsQ+l6+AACe1aJ8fK6mLyCQ8kQm3DRO22QG0H1huA9hn2uQ62hJPMtE2mfCJqTiAdjlxG8BeMRnh0YFA/Xww7QunaG+k6+YNyofDNERbl42bACd0AxTrCw3GGJmShc3by9YWsQrtp5FVxxBg3/wp16R9ACG1tpq8PSJFpjp9P6Pq796t7AX0o6sEWfmLKBS9cmv4OMa+zCz+SNRz1x+r/KKy/Pg1zP/s7ce/O5+nw8vL5cpo/d7fEdmjy/2S3P8B);lineShape=1;strokeColor=default;fontSize=16;" vertex="1" parent="1">
          <mxGeometry x="935.7438710507636" y="288.4522508801638" width="38.4184720491603" height="38.44858496460347" as="geometry" />
        </mxCell>
        <mxCell id="O91nQu8UyTGTQkRIEwQN-71" value="" style="shape=stencil(lVjbUlsxDPyavGpsy9dnSv+DGULJlBImhF7+vpsGH2L5ZJm+JSdnY0urXcne6M3r493LdhPc6/Gw/779tbs/Pm70yyaE3fPj9rA74tNGbzd687A/bL8d9m/P9+fvL3enN0+ffux/nv7h9xkXVbSdUMH9OT/xUXL69+TrGfC0e74AaJLqB0CIkhwBeGlhAOBJCNcBoYovI6BKyQQQJYyAWCQwgBdXB0DKEkgMvomLAyBHqY0D0gAoQUohW3LSRh5Kk0y2hCyVMejaxNfrgOj7/y2ALJVkKUXLdClS9Doge4kj0wVRkRUy/m8MOgdpZIWilmlskhGHHfuRuJhECQ/Iehy3pFkaW6FJG5kOrUtqHVAlGYCKY1vyoiMPkGgjAkIxv2d9AfguqfXSKJY476SSFWKVMKbVB8kkaKxQphgSA6SurwWQRQkPEZUzloYvkknxaesesQDADCk+OJ+pJQAqdz5jAgBE5kvgwdkY2JbgfEbTyJJn3hqsGYMHpgcATLWC6cgAKmmqpewJIHVT6QB4Jzc+I7jFRdZZCFLt+yxFWsQZ2+s0XvNV58z7tLKjJbly6SwufZHQd/VdE6c3WgviSNkBYLqbV+rb2FIeKfOJdmjEbJXAO3R0kiZxMvnDpZNaQCHtEGWh1QIySStoStHGwDoDCtu6auYrYBYzK8DoSQz/DUBtW1ftk9B6J5m06ag2S+yWu/S2PkOsvt+mqQe1nYg4W5oAiZLQmlUztsQKyTtn9QxDKiwINJKxuJFmxkKDoYyFgfboiM03tWpIiwJXAbVagWb0BWJiFTZvTA/djk1iqZvo4mKYzdhwmPvPi80j0cT3UHumVYH8yAZc7b67AFrv2OtqcJN8HK9vPzll4yMxKse8r3wS6za6ZLWIEt68JHMIcLT5TLV9OpaQgF3XylJH2gW47kh9txfzeSXxJmvCmPvYdDHNbPB9tn80MtMWPs5N1xg2YkaO2SkpTKckDNss5DAdoE/DNsspWmW1ADaRIEt+zBI/kWBOVaNl2v5V+w3Bx/u01WZbdZWmVKfTRaOHPAwL1loox5jY6pTQxEa85YB2wfEnVlSm8xHrawCYIdUrnyJX723YRPX5RQ8+fFwTPeyens63TJe/22slPDpfSentXw==);lineShape=1;strokeColor=default;fontSize=16;" vertex="1" parent="1">
          <mxGeometry x="967.2648197344834" y="266.28920443954894" width="19.751517283596513" height="43.06269031254078" as="geometry" />
        </mxCell>
        <mxCell id="O91nQu8UyTGTQkRIEwQN-72" value="" style="shape=stencil(rVddb9swDPw1fiUkUV987rr/UaDpEixLijTd1n9fep5cU46vGLA3x9GJpO54oge+e9k/PO+G4F6ul/P33a/D43U/8JchhMNpv7scrvo08P3Ad0/ny+7b5fx6epx+Pz+MK8enH+ef4w6/J5wPxGlEBfc2vQmU/J8XX6f1x8NpsT4wRTHrfSGftgHsKbINkEgqAAilbAAcKQNALFSiAUQml7cBSROwgOQhIDNJsIBKMWwDiu9ryIlcBIBKXA2gOMqyDaiVgk1JtygAIKsIukUGTIvyUAxANCXeBnjnyDmLCFQBcxribwYzIJEHx6RFRKtWUfUVAMiULdW6RQFUSyS2zGmSBVQtnqoFLM7hNnVC0fUhEghRCwXui2BQRE2UbJOO54AixNUxRWgDCohWTUp1QBFmYhdqcqCFam5nstCrRylVSrYjdIsCImgCYnnQJAWJiVvTLwHA+1TN1fcpZaS+QnVVtEPqEwpWfaouQUVLy3hBnMeALiWVRgTyVm12ZikZyluL5q4f1NyQlamWVj0akc8EKquOExTBUVgBkG1oi4rva6hY3q5z19Ko/D+AUnr/Hg0fEJf17+5KEdgP2ZNYHgq3lrp98aq52lPKuanr9tWee0AScoA41nax8k6OCqghSKNpHh60H0ANwbcOnscThg3kuTdjnaEqIM4Td04JWXDNqGeaocW4NunMnLVBYmu5bYREBZiw63OPFMB97nu28LwQ2gUwX7XQ4LmfPB1sydir2cHcc0/rJ7d+2+xjuUem2N8cDg5r3lPojwYNqP869n++Xh8+vjGeDsfj9Imy/L//JtFX0/cM378D);lineShape=1;strokeColor=default;fontSize=16;" vertex="1" parent="1">
          <mxGeometry x="985.0299529505542" y="249.02421903353252" width="28.78849245434185" height="31.66828693075354" as="geometry" />
        </mxCell>
        <mxCell id="O91nQu8UyTGTQkRIEwQN-74" value="" style="shape=stencil(rVfbbtswDP0avxKSKInic9f9R4GmS7AsKdJsa/9+zDLFEZ2cYcDebJnHvB1eNPHD2/rpdTWl8HY87L+ufm6ej+uJP00pbXbr1WFztKeJHyd+eNkfVl8O+++75/P769NJ8vT0bf/j9If3My4qaTuhUvj4c0Kafx98PstvN7sreWaKdZRPFAAgJ6pOgVIM9wHF/pcGQBIK9T6gBu8CV4oCAEpJBkCuxMAHqaSj06VS0fuAxlRGk6ppiACgVOMAkALDqpl41GA6FZgUQ6AQBoSaEwWoUJI8AqS7dRvQKDsNjUoCAMsTjwBLDXBCF+wzQANkapfPF/bNcbiNqJTjQgVgk8WdswdklGvj6yJMFXgtSiw+EQJMkkZNfaoFlJBpKM7pQgK40SLFkX5GyIYATJI8IAKTLA/NpZqhSRp8VRugAg32uagHKKCGBTGr9yEjkyyv2Yc14ZJrDlApAS4ZQIunRkJ9o/lWZicJ16jrrqYTtWOLSVoUEMxD6BPnCqCo4qR3lWsAIp81y7AwCTWBSDX5KCkuIBEPQFPOSlSdBvnPgOIbmYWhIR+spsc82NyLgEu1UB2drkIZAErrXegyR4UamCglUB4HRDYAqIcciUcNLJBLnDqZL9uG9qF0E5DYtxnbmNBoj9lXnJ0k4HQgcT539t4RD6M9DIf0YgtI1IC7gUp24gFtGb7hRcqguXDvhl089P53mw49brN4RhXQa3wWjyhRFhr/e7Qp2OJbFvKAaiciZCfPIDhR+gY4ywtIVWx9Ps7BRzz719X/7/L2MN8zXjbb7fmacv3d30vs6Hyn4cdf);lineShape=1;strokeColor=default;fontSize=16;" vertex="1" parent="1">
          <mxGeometry x="1160.5989176430448" y="-273.74293544684565" width="19.97140856893505" height="66.53802173845345" as="geometry" />
        </mxCell>
        <mxCell id="O91nQu8UyTGTQkRIEwQN-75" value="" style="shape=stencil(lVjLctswDPwaXzEk+D6n6X9kJk7jaRpnkvT1913VpSxC0mZ6syVAJIDFcsFDuHl7vHs5HtS9vb+evx5/nu7fHw/h00H19Px4fD2949ch3B7CzcP59fjl9fz9+f7y/+Vuspx+fTv/mL7w6+LnJYbJSd3vfw+y5Pb3yeeL/dPpeWHfpOlo78XHfXufpLrBofQHm/aqEstgH6WR/WBD2gZ7lZz27UMWP37f0f3EIC0ae0fsk5fsjH3wxL6Jy2NCJYd9+4x8+sE+SM779sVLGePNkpTYZ9E67sdJIgGXKtUEkPqTbYcmYYQcQq6FOBS7woQh5pBEx5hDkMiCRhek0aHyKhRxowNwoiRLWcWPMI2lP9nGRZE81jk5iSStAF4cV0hRfCUOTsrYyrHSVkvVQiMCvCStOfasL2JgzYA6+BEaSUVJNwMaKdugEylcDZ3dZociStJamy1cdnSFFqSMW5rSQKDRymqFKoVkqYHyxiyVIIFkCQ5t7Ac0LSMx72aS6x41UZppgM4I15YpvuEQxg5qcy330qQjEeMThRUiSRljQB7oCqD6lUMjHdRUnF85sC25VQytn7/b6KuWvRE0xXex6EPeWMvV+fXskPoRv+cQRxZosT/Zi8HAFYn2hL7RcsnUAezJOmiWILOD5y0XLLzbzDzbDrEfOAuHwByyJSY4UCzhSKs2S6xHJ/SrrYPyjmtmS4nzTLVSZqIqAg28zmYFdDmpNLKkhgQaTyvYfdVxlQWt/Ry/yhku4JqzghVLMEUJuKraqJk8QUO4aPNaiIaeWs5sKUsgUU9NbfIKFc1i2HRgx2K1tDEdlB8w2YiNqj0New5pPBYh6wpLa7K0kRuXibXro+VJzRzUnqNXWbcnEw2+IR6Y2sgrIQrRxcaxlDpyFnomkUpD45l5I2UqE6NaFoAmY/QNYWtGypgpG0OyGWhEPhAgJ4YrwwyWPfVtxHTAmswBasesALVMsgSouREamEM9IVdoPB23hLHJsRXQLmM/YDBjaEVdi2nRHtTePNDspM6+H2dKudqzhg7N0h6+TzIU1I59tW9w+yYgd+AvEtTIApjMTYJ8oDVDhdKqZoUciKUfHItJl1FYto0AEDG6WDU/7BPr5dV+tGvk7RJYETNdrpB4tV8tLOwDuxyy1DLdBJC2xNG8yqeSfGLaNPvB7Eb2A2VgxEKjB/NqSvIcoiv5D3vW86sJ3Rcqj/73Mu9je/y43hw+nJ6eLhePy/f2phGPLreU4fYP);lineShape=1;strokeColor=default;fontSize=16;" vertex="1" parent="1">
          <mxGeometry x="1151.9920944991568" y="-291.8884657944984" width="58.94263890408062" height="77.41857366444901" as="geometry" />
        </mxCell>
        <mxCell id="O91nQu8UyTGTQkRIEwQN-76" value="" style="shape=stencil(rVjbblpBDPwaXq312nt7TtP/iBTSoKYhIqSXv68pWsCGM1WlvpETz1lfxmPvWcnd+/PD23qV0/t+t/26/rF53D+v5NMq583r83q32duvldyv5O5pu1t/2W0/Xh+Pf789HCwPv75tvx/e8POI40GaD6icfh2fDGr658Hno/3L5vXSvlAdzj4zcQIAJS4OIEqV4Qm9O4B20rIMyJmGP6Ey9QEAjYZ4QKcMghah4k9oSqkDwKDOHtCpyzKgCHFzgF5IAKAKNY4AFHRjytUDEgaYx+qzNGCWOs8QL+rACCDUfdAlzzTcBhRKnqwqlAA1DJD9CUY+qQCg0aVcSUCWLIbq08p9PrkNSDEGyzMIoVk/evtKFRDD3p9Djkhx1dQHkKmA9rSAxb+fKaH3m2AkZ5+IQev0TqkG+wTiHWmKw9m+Aj0ap/DO/qPOHDqPP1GICiCE2XfvT6GG/NEod6ZOIJ9mz94ftgSBprGAI0N5knwpozWcIFPDl0oWuswADfdxTxFQESks5wGQZ9qWWF1GDFpxW2YPGFSA/aEtfZIaCXDI7IevQsE5TTSCchGjtrQqe7W2eFEJNE6ohHWuTe2/aEtA6z5mQS/ej9qMo/AyCcjPkFjgPBO81DahC3Qm+P/Y91n+k/+VegYAS1CYNNYVIAJOp4xfblLIJ+NoiEHhJmVBBJ+KUkOASiUMp4JPyJHWrUC5Nt71sLacmLvU+UEf7UwBhWgS1Ws0UuBStSQGbUm4GUqZWnI6wuQA+KSVBkefUNRi9PPcOMwtwA2xKRzWkDEH79KWLT6vJjkd3xTC/tgK1Gy+4ret5UgjbbnzSSoDjnKmGiZzmheBm/ZX/ijTAGW2ERL6UyC3OZbAIqqAFVe9ww2yqMZNsJKiK8X14oIWuzbl7TygEB2MXVGv0RJiZChBHmc0t+3t5hCaEtaKJbKT4dplbFYJ/giyr3GeCexHuzUkb6/4Wt0jGQqcl3bPj0oNVzS+Gk993h+X7P/tO8Jf7e3H+aPF0+bl5fjN4/L/8SOHPTp+IJH73w==);lineShape=1;strokeColor=default;fontSize=16;" vertex="1" parent="1">
          <mxGeometry x="1224.0979580118874" y="-260.64140985728045" width="40.836073698431086" height="45.049260010434104" as="geometry" />
        </mxCell>
        <mxCell id="O91nQu8UyTGTQkRIEwQN-77" value="" style="shape=stencil(lVbbUhsxDP2afdXYsmVbzxT+gxlCs0OaMCHQ8vdou7Mh8qaH8rZr61i3o2MP6eZle/+8GTi8nI6Hp83v8eG0HdKPgXncbzfH8WRfQ7od0s3j4bj5eTy87h/m/+f7yXL6+nV4m074M+OyUJEJxeF9XqmU2t+Fu9l+N+4v7CWSFGfPSoEBoJJGB8iRtP4bUDKpOoAkEgCoTJkdwI6IEQAy1ewAjSmApG07rwBJAUApVw9IVEBIKhSDB1hjAgC0VQ6NIqhSDIGCd6GRQsIufKs1kaKYLAkfkxbKBZZJfOfMJwQwSZeDUgGds1Y3D7iow3X6VeLcu0ATUcLSqDOgUgPkECFpHiAwCWGqnQcmxQD29NMACS6ZUscmKwMCNCodwa3SqEq2nfqJiEA3bKpj58FWQFmr9kLzBWBKUVYhoSFNvdBMSYOZMyLUtiorAii1buSscWAgDJB9DhM1EKCQeHWdyIcAccXWCpO2mmgXkg0Q0u+6aOn/zuj3EdwoeERp8NriuEjd+RYqS2+u62vp5TVnEkGCvKjEAkiRGOhxoOgnSGFAK7k/k/F6OMRdvlRB9GkhzTl4qHkrUbX7E7QrRqo+1wj1y4rfvFgEeP7kvnT2kD51fT4D+5T66zzA8qTa3+YMr2Z7Qknsyi+AC0bFVXfRnfbdV+HX9vbx+QR9HHe7+QV7ud8/WW1pfu6m2w8=);lineShape=1;strokeColor=default;fontSize=16;" vertex="1" parent="1">
          <mxGeometry x="1274.6245307827771" y="-259.72099595548957" width="11.833646896197024" height="31.569902628912434" as="geometry" />
        </mxCell>
        <mxCell id="O91nQu8UyTGTQkRIEwQN-78" value="" style="shape=stencil(lVfLbhsxDPwaXwmJep/T9D8CxKmNunbguK+/7wiLdSxudtzc1jJHFMnhiNqEh7fd0+t2o+7tcj593/7eP192m/Blo7o/7rbn/QVfm/C4CQ8vp/P22/n08/g8/X596pb968fpV9/hz4QLklsHqfs7LfgobVr5Otkf9scbe58k+hHgxOs6QKOUMgCyRLduH4JoHOyDBLJ/VHFpsHc0gOTFN2PvyHlSsxlykol9LpLVnJ/FW4K08fxVSiL2RWoeC5Ck1HVARXx1APSiewLwEsYTBZ1ztgaoY8kir0HVOeVXQJtptQoYk5qKNJJVAAyLchaXKaCOHlCYyADJ8rreSWuzHmqmhWs6E+cGkCIBoHXDCCiU262IH7lUq/hAANVWukfFPODvUS4ayMI8NGnjkRCVI/0PgI51aFk8y1KxdcBKI5VuqLQ5EnwSejcolrMA1g/NSbGiylUJddJkXQTGPiSlLqJmsgHd1kVeCwWYHu2VYx0UxZsYwA3mIYkf09TZR8j03mC3/Cbiiv2MMPUOYuzzkkzL3e1RG0OeheRjAK7LYo+UGZmqlW9ExeQbzEnF1oGpwA05r4jAOwIuxksUTcXUtQexoCu7RpGmZI5UpZGGaEv2cTJ9GlCWACg6IVNu9qbGzcqCxqxhBB8+lZAJAMMNXIvs4gXAjR5SpQ2B/cx4gqu9MA8o3Bh09JJZDNnqDEbGSpQsR3tp9RGUsDU7O8JhKGZNnVSSAeict4+H3CoxWg8U4CSMPeohG4QauhCmPueSjvPLMTFJYEOcjRn2tAyWGFhxRIuTqFvsT3iB6Ssuzk/s1c4NeKkkliA7K8FjIhVwc/au9jrf2Sv2RlOxwuKFvZkZGpVUt3i4oZPZS8++k8C4SppA5/njP98ln3153rfHx/sz92V/OEyv5Nv/7bMYS9OTOjz+Aw==);lineShape=1;strokeColor=default;fontSize=16;" vertex="1" parent="1">
          <mxGeometry x="1278.4867067307096" y="-268.2026236143922" width="41.352322022393004" height="48.88858556837704" as="geometry" />
        </mxCell>
        <mxCell id="O91nQu8UyTGTQkRIEwQN-79" value="" style="shape=stencil(lVjbbtswDP2avBISdeVz1/1HgaZLsCwp0uz296NhyIko+wx9cxwdUSQPDynvwtPH4eV9v2P3cbtevu9/H19vh134smM+ng/76/GmT7vwvAtPb5fr/tv18vP8Ov9+f5lWTk8/Lr+mHf7MuEo+TCB2f+cXTHF+8XVefjqeH5Z7ptSv977tsA4oFFJvwJHINoA9OekBlUIGgGQthELVA4BQqR0gVkq8DQiRfA9IQq4AQKXsOkDWNwAQh7AWjRsIa0wtiA1QI0W3DUiOuLcgjgoCRHK5txDIIUBtzFl8yM3mKiCHdoAlSoUKyEOWRoQlD4UkbQNKJDGZVmrEbUB15LnnUm1v1gGJkqG3+gDYKp5K7AtIcw+oIVqQvdNacYwAYShRRwEkTiJVQ412xvX1mlZv1iNyS7Ex0gM5IAGixSIWICioMrjMrWS3AGKCGiiDPE8A40MiD6ingGh8yJTQkdRpQwxlEopSodiT2+sWoN40b95YUBlDTkcqyVoQZCFQLBYQUJSU3GydRmI/lY+3YXXIgh8sRErYQjKJC9gC2+6gBQrrIQx5cJgakUJvQaii9cnmTRq3tphkVE/ZjgRDkzo4AJknxGJDBCVGHRzqE44ZzrXm9JBn6LQMIpOh1H8ewHYKCAzrrRYr9ToXIB8qt7llaYgMmTRNFT1AmzCS4sJ2CiihebXeo7MVSj0kaoiZiXsy6WDiwZG055uwTsIGLCQ/thMHRxmdrkw/0eQ7kIjoh5YYmzpvTYhspisVb+BESG3iXAC+bbEOUOHrj6S5zEDHONua09SgYUmvCtynOi1yvnUXSGYcW+i1DghtCH6ooIq0mKTnkl4OIjCg86HpJiqdQGZUp/v9Cyxo10aEJUBwXB0kTAczvLuRF8qAco6imVRhIes1zIxUkD2ean8YRxX0QLZt3DVhWidzuxfcl6O469xS7HJ0c2lz1n05A1fzeBgkcMVqtA4Y4DCfvJD/d7k+3O/+b8fTaf508Pi//Vagr+bvDOH5Hw==);lineShape=1;strokeColor=default;fontSize=16;" vertex="1" parent="1">
          <mxGeometry x="1322.9105509361484" y="-279.41118810612807" width="55.901416059108065" height="51.05961865690703" as="geometry" />
        </mxCell>
        <mxCell id="O91nQu8UyTGTQkRIEwQN-80" value="" style="shape=stencil(lVbLctswDPwaXTF8ACR4TtP/yEycWlPXzjhum/x9qWqoiLC0nd5kGSsAC2CBIT68HZ9eD0Nwb7fr5fvh9/h8Ow7xyxDCeD4eruOtPg3xcYgPL5fr4dv18vP8PP9+fZosp6cfl1/TF95nXCmkcUIF9zG/yZTc3xdfZ/vTeF7Za6HQ2wdPKQKAI/UdIGZywENWiqUDcCafAUDIawcQpVD2AanmEPqcAzkFgEySOkCJFEEOSUh6looQo5BcS3EBZOKwD5AasfQApeL3AVwBfdJT6UEO0ZOPFlAAS8GReAtg2Qd4T0FtDiGBHIiNg9R43rR3lIw9w4Bca5vFPrRO2aaI2BStlhFQejdrihvVK6U+IE1UAKB6MDWrgAgYYkcu3QFAkcVR5B5Qp5MBQEnVJo2KlphysawyGrbciroqm4A2SrVrjIfqEyhMCm3aV42naDqFnOk8JQa0smzMjgBArBH3tHrnoK7Wbi1sXWSgGJ7vBEApg6yXzllpmEfzT2JYFSj0S36rOhdQ50178H22BGVPDnRqsZ0tGW6FSmjpA+LUVteeogazO6X53AZIa8ulK0qbpr02Kr2ECSzxtLt7BwxLVvVFe04DZaTwiUJPkYdjUNegEQtHGWmFs+dLVWwkFUrOfh8eL9KW8Kd9QNdRpMDGXpF9ocSGH6Rck7CJ4R8tkGkB9/1QNyaIZyU6DZAgQf97b/7bvj58Hrcv4+k038br/+0xXF/Nh3R8/AM=);lineShape=1;strokeColor=default;fontSize=16;" vertex="1" parent="1">
          <mxGeometry x="1381.4339649990793" y="-276.87627137244795" width="7.763582885712822" height="38.185350689731116" as="geometry" />
        </mxCell>
        <mxCell id="O91nQu8UyTGTQkRIEwQN-81" value="" style="shape=stencil(lVjLbhsxDPwaXwlKlETpnKb/ESBOY9SNAyd9/X25NeRYlHeM3JyNZsXHkBzuRu7enh9et5vIb+/Hw/ft793j+/NGvmxi3L08b4+7d/u1kfuN3D0djttvx8PPl8fT368Py8nl14/Dr+UNf044Ja0LKPLf04NAmv4/+Ho6vt+9XBwPkWIbzp9fcP18pjaetzeksg6ITJJHgFIFFsVMIQyAKFQzADSqZQTYk7YOkERpvEEySQCASpVHgN0AopRyd7EDklABJqVGcYzSx51XATl5gDmtAgBKPCYuWhiAD4WJR6eDGRkBIHYDzgAzEoS1VOIRYOTS9fNqBo/nGTKpij8vpOD9VSkn7wAjQKXimMdUgMe1URljGi0GwIXGkwuFBJjUAoUxzcbFDNLcoudFztgkoaADoCQKoD7bVG5qTQfdkEnHsGqDRGrG7fGGWkhBubUzkzvAwiDIh+YL2sIA+yRP5WNuCWiUdkUZE9EKNdACWqXmbKoU0Q3WeEcyLXFAYSq9Q1wAUN8zFzl6ACppi2IJHpBRImzasHe64ILIziTtfFwD8NhZzat2A+DykEhAK15Mck7Hnpk1p8XlwV6BMi2UHZcYRylPbGVco0aN7AECpsNCvuABMKxG7+idbihKVkAuSkLxkzWacCLmNlA6H1cbjQNg9bOU8FTUDddoc4loUPFZqh37LuKw1sBZpytwkerUNxiXkOoUJkTwzwJsVLu+sTxB4kH9iKgBi4Hs27EKJFNNlN0gzbCqTc+E0YdsYgBwwyzOYx4SHimVvdOi3avrkmwqUpOhDbQBtfXCKaBIDTitZ71zsXCggtDJ6YBNKpO6N2XcAL3LlGlhCugG8QVkCwcin2nvONZo4q4c19R9HG9YZB8CmHwZb8jc5971DaVOAKMj2oFi79YXALhlqdcCZhKqaYlerxu9ESDqtJYFqOJsYQijEjX5HcANofpJvVADsDVMk9rIF9GkJnbsNv0D8namwfk8XoJsKI/vVzhN2Gv7cuPtzvrcZ/ba8dH41DO+ctxtJgKVHk+hhztAoOjWW1jD0ctIJgU9Qryr3K+7Xl1ec+IRnv2Sh4u9+E8wDJdO9aqfYf/85Ceqm8ftx8fXsKfdfn/6mHb5f//1zB6dvrzJ/T8=);lineShape=1;strokeColor=default;fontSize=16;" vertex="1" parent="1">
          <mxGeometry x="1382.574405878347" y="-278.4196934679378" width="63.01058009158078" height="58.06881538331405" as="geometry" />
        </mxCell>
        <mxCell id="O91nQu8UyTGTQkRIEwQN-88" value="" style="shape=stencil(lVjLctswDPwaXzEEAb7OafofmYnTeJrGGcd9/X2heiibkLRtbraEJUFgFwC1k7v354e3/S6G9/Pp+HX/8/B4ft7Jp12Mh9fn/elwtl87ud/J3dPxtP9yOn5/fbz8f3uYLKdf344/phV+XXA1UigTKobflycsFOTvk88XwMvh9QZQlLSNAKbG24BcSaoHsG4DUqaWB0CjVLbtNZPqYF9J07a9FErJ2QuyrxTVh6g04FAhDgMgMoUITjyvNwMSKThyZkqjSxJg1nLzO4hSriDNhaoDNAogzTWRjIdWIQaAxpRH5k1xywCQqYy8SBYGsAMHC8roU5q5sr5F61TugBwpokNkCiO58xy49TA10jgAioUJAQIVGQHGRxCmEiiNgCqdj+vsa1SdHgplsIO2nthZoAzJZApyLrUE6WqK5zFKzUQLdjCB8ZgHS6UAybH2I86ivrJlPUyUR0G0SgVoNPgi0CyTYH17OwbVqIKCylRc1ipVwG3x/ph9RFWMsnr7APzJnca364MMGMcW/hRUYFbio8B/e8s+/tg+O45adYH2Msanxc6QDf+TY6hAlRVfKJp1XsjPVr19BW1NV9ZvwD5SC94e89OfVymA+ATPB4sP4o+pNfn4M/Bn0QssvwHqV936uD4wyVhQjJ/ovNHzzfiPepP6kmj2qL+mnp1bezTYES/qCequi7HOzgtbJUXx8URjoOlx0WQQH5qfS40PAs77UXsOvbzeEDQhwLJNStfQOiPyQjJGEnBkSZSyj6kADWjqk/RNq0dFPRmLHCtin87Xu8DCJRtXkCztPpHGPPxrIOJepuaRq8LCaLxso3JsfBbAvInIo0vXMGzNvq5WpAiH5dJ889ba5bEOiH6CUiVBt6652M4Akxsod3ZEGdlq7KpoCjS2jmEVhpcWmwJdxTPCNwSIfdCdAbEXhXUBFV+DufYn6wD1TcHmwgCocXXgejdVoFDzqIyCi72Mb91N3RSFm47RJmRnr4BHaUFtporUGXyVFzjEluzVrDBjVf3cnuD60y3T2zfgf7X73hifDDlq5VDcbQvmy+xbcfaoxFtPFdfF4SVish/Xb/3WvGXveo61rYRKV/EdgblvuRVRx2iOnYNbKXPXdsYqrouOwLjn2P1WFh9o0I33wx+9/gNgP67f2J4OLy+XT3S37/03OXt0+Z4n938A);lineShape=1;strokeColor=default;fontSize=16;" vertex="1" parent="1">
          <mxGeometry x="1508.4700796327606" y="-297.6465193609522" width="55.572725493908365" height="78.09116568702105" as="geometry" />
        </mxCell>
        <mxCell id="O91nQu8UyTGTQkRIEwQN-89" value="" style="shape=stencil(lVfLctswEPsaXXf45vKcpv+RmTi1p26ccZw+/r5QNbLFlYVpbooshFwsFgSH+PC+f3rbDcG9X86n77tfh+fLfohfhhAOr/vd+XDB0xAfh/jwcjrvvp1PH6/P099vT+OX49OP08/xP/yecCVKqCMquD/TGx+l5n9vvk6A4+F1AchR1PWAItlvA1KS2jpA8BIJIGZJvgNEJy5tA0K1NaQgWQnASQodIBepZRvgVXJfdFGpbIUiJXeAihVY0U1UO4A6KWSFccepB6CVBFCdtBXAxW0Afs6xr+FKw31AkdDTWqs4UrQ2idGyFIn4WpiltgDkSgDQUrZbKgxQRc2WmuRAAE1SLw310git3kHNBpGkEH1jidzrW6vERgAqvq8aTCvRN2gy6mtelFUN6fStHt+Qzo0byBaQyAp6nZcrIEhj6osz7YsaMqEVfTJOhk0mog1MZDYTVGirAQhmqJN4toKfSVyIKZFOa5htaCFXTzqt2XolBoL2QVeAQlkC66msAKRxLc0DtthSILaBGfXGBXSe2q15aGppdcQrMXGtXwHqqtwFjG1AGqxx2FLti4b4HAMUCwDRgbnGZwFQjtESNsnMFdnBnIoLb9sKD63PAiCukM4hPPhm98TEFJNEUwSOYiKmkCQZADZJqvZZ/Mo2GABiXtk9k7e3Pob5YRytjhNkE2Yybo461/DT5sB1n1KJvetlTy2mzGxc0xjPGR6y7E0PCZAtgMDp+paB40QOH1BqspJHywgAGzDKVp5x1R5WYT5Q78/BylSdRGIvxdkx4HNWwkzg4ntiLiXNAfv2PQvQJUvtNQrTJ9ZS4NjR8MMkfVPwVUPUr8c03n+PDTJ+1Po7D1RFbQKDWTNnrNZKveMFI8b2DcZUNN4BkxRwb2OXpE9f9P4DgIfbvfLlcDxO19Ll7/YeilfTHTY+/gU=);lineShape=1;strokeColor=default;fontSize=16;" vertex="1" parent="1">
          <mxGeometry x="1572.9707884694853" y="-262.56901685332355" width="35.70324917578" height="41.23774331096047" as="geometry" />
        </mxCell>
        <mxCell id="O91nQu8UyTGTQkRIEwQN-90" value="" style="shape=stencil(lVZBctswDHyNrhiCIAnynKb/yEycWlPXzjhO2/w+UFWlImRvJzdZ5orAYhfAIHcv+4fn3RDDy+V8+r77NT5e9oN8GWIcj/vdebzY0yD3g9w9nc67b+fT6/Fx/v38MJ2cnn6cfk5f+D3jSqLWJlQMb/MbpaJ/Xnydzx/G4+q8MrXUnWel3G4DaqAoHUAS1QQAmUruAJkp5duAFihrByiZktwGcAgUQoeolTKDKyqVPusWKUQAEErcAzJFAKhGSp9EU1LAqwq12AMaJcBrYSp9pVc8XEUk+6BurgBJiLEomyQKAFgA4mlikHU0mnpxNBNkBQCh3FfOSp1ASLF4vZogA9CGRCoOwIunrtNq0nGWa6SgDlmo9GJSywEATP9/OVkBkPpUqbEPiUEbMBI5+6QZ0Gp19SwJLJxJLZceoCTA1RPAaSksnroVUnZaShRBpS1pr1aFXUA/1L8yEHKcFa5uTN2AqU0aKXuAAkAybTpAxZ6OG1oLMaiDGYhd0kIMkp4s6qTRlnb7CQCYEGye7kMqCkNi2cygSBV4mgOpm3IFhmQR9RMoMlRG8K2YGXal7YSDjZiX0fFB0NI2r6vIj5JECbDT/ICOpCB2Nhf0wTN0vukh9K4JsD3a1HHfx3PQxppLNxAjdjYjxC4E+Zq23A6GZ1qunk8zBDhf4kbNcNv57E74//P28G8BfRoPh3l/Xf/vF1Z7NS+7cv8O);lineShape=1;strokeColor=default;fontSize=16;" vertex="1" parent="1">
          <mxGeometry x="1605.0338162433118" y="-250.63336090424764" width="9.063115803275045" height="31.76570664420463" as="geometry" />
        </mxCell>
        <mxCell id="O91nQu8UyTGTQkRIEwQN-91" value="" style="shape=stencil(lVbLctswDPwaXTEkwRfOafofmYlTe+raGcdpm78PVFWKAVubyY2iAJK7WDwGvnvZPjxvhhRezqfjz82f3eN5O/C3IaXdYbs57c66Gvh+4Lun42nz43R8PTxO388Po+W4+nX8PZ7wd/ILFMLolMLbtNEz1f5v5/tkv98djH209i3Q+LlmHymKsc9CBdh3yvZ83am8bp+YajEOMVEv6w45UU72RfBBNVJq9gIKDQAolCyCheLb9kJdnP3/jZv2kn0ElAFwvjTPaKMOCBWhnC1eplhBhMOVhqJQAJTqFYFtkDN1hKHOGlgcBJPEFKoliakBEF1VZqPMFYeNSbJ3YPCkJsTuSQoaCKkVytE6RKqA1paouNypJAC0pq7DoNqGGFSa3UZaHwmqhT6JbXbKZ5ijvUA3gFiV1OCTs6Hk5JnBj2RD56ssXNACMcAriZp9v8YkQmFnK+xKCZ3fSawmokYMZY6QuIg1CqA8ylKeFwSJBCVzo+IgK2kIc75KhEQ1A4fgewir6lAyF49BczPjml34Kw6lzqwvDlpVAWj97QKnfYgBaBVCsaBLhtIb25iltWnnQjewbzxKQwWg1cF1Bu1dqPerctjSqvlRUDMPPj1lKYK3e8/VuKBybCAftF51GwcVfELdTdVvWbrodyv9kOLVFR0VyVkIi/2S5bcnmLl/X2BGRUxrkjs/wzhHX4MlzjPWykiYbI3Xqpmg/VdHzs/sdfEx3z7t9vtpPL787+dh3Zpmab5/Bw==);lineShape=1;strokeColor=default;fontSize=16;" vertex="1" parent="1">
          <mxGeometry x="1602.3743151838662" y="-256.6162414412438" width="24.775246126997445" height="19.898919297072705" as="geometry" />
        </mxCell>
        <mxCell id="O91nQu8UyTGTQkRIEwQN-92" value="" style="shape=stencil(lVbbcuMgDP0av2pACAHP3fY/OtN049ls0knT29+vWA+uRR21fnMIB3GkcySGcPO8v3/aDeieL+fTn93b+HDZD+HXgDge97vzeJGvIdwO4ebxdN79Pp9ejg/T76f7urN+/T291hPeJ5x3DpyrMHQfbQmo/F+5mxCH8bhAlAIYFABzO+IagKMCEAJFA5Ch6AiRW8x1AEPWEVKCjNcBXzhnIWVw9uBJ748QjfMZkiaQERwZ5zP4ognIhYwAkvIYesaBrwM+Uz4DGNi4kqQ8uj6CN6rGcuMOkCEbVUtfhJQ9RH8dUJPeAQiKobycgFgDctPiOoAg6ToUhJAMDrPOZkAENurACTBrQG61X68DAWoO1U8GgBx4naWFx9fFxI3jIoSz7EBAHesEzsirFE77pxB440auSXPe7yAa5ztALe4sDrTcAOT1/tAcvk4YgXWGsqTU0IVE8LrMVSnGjULqW4b4M1n+9E36C0A2ABwBNWnxp2VoOa9TnpC2up4ksbuSrCTL0NKzOkPLSrYBuAXgQ5tliyxZPcYXCFpKMbbar1fa99r7ZroJgLU0vpmfou6yaUIjNjPOpKEY2hN7krab+NVIanD9uJUsW/slvC6Cb2123Z0MpGUh/cCoWa1Q6fZbCa1OwA37EzV6P7uPDPuCG/hKc3O8IZ8yYkh3I7teMmH655Gph+1vwp8g5OPzEfo4Hg7TG3b5f/9olaXpwRtu/wE=);lineShape=1;strokeColor=default;fontSize=16;" vertex="1" parent="1">
          <mxGeometry x="1636.9161697961272" y="-255.86862811164042" width="7.306844604415043" height="27.356467854070313" as="geometry" />
        </mxCell>
        <mxCell id="O91nQu8UyTGTQkRIEwQN-93" value="" style="shape=stencil(fZbdcgIhDIWfZm8zQAg/17Z9j85U606tdqz9e/tmZ0c0uJ47xP0I5JwEBl59bp8/1kNwn6fj4W39M76ctgM/DCGM++36OJ50NPDjwKvN4bh+PR6+9i/z74/n6ctp9H74nlb4nbmSKZeJCu5vngmZ6jzzNAO7cX8FVKEsBuBKrgKg9oAE8gkCbLeUhEoEQKSUDZDLeWYRKIl8MEDRmHwfyBrBG6Amyu4+kDxxMoB3jhwgYu7TVAsVkFcWCs4CTBEoF4RctKeOxHIf8IXYpikHikAIf+MNUW94AGSSaoAoFIE3AlOyeWU+p2E5S9yfQZcQILVuQOwZdJNoS9Ls3wA5u2XZTIHECqeJ9kDpSaauRiNVcAY1QhdBzeLBli5WazpkSsBLV25uRaqWRyFawTQzRRIQYirJzq5atkBqLfouwqUxLBepthWb10vrWZY6UOAeyKCCtDV625mm9gmUC4Wc3VLJMMIE1BsA2FW9JraVlQB7n3c9oMKhCLEvIM1zBPZ25/umNQ1tVEC2G+fFCC8g398O2hNQuQlVu752DBfA+q0ptnqO5JFmeuIuo9DY7KjY71UxdJV4EntifPWorW++R/dC4t7V3DlIB5cHx2bc7eb3yvX//QNFp+bHDT/+Aw==);lineShape=1;strokeColor=default;fontSize=16;" vertex="1" parent="1">
          <mxGeometry x="1643.8239477899679" y="-301.1662500553077" width="6.230053029486953" height="6.220314955143749" as="geometry" />
        </mxCell>
        <mxCell id="O91nQu8UyTGTQkRIEwQN-94" value="" style="shape=stencil(nVddU9tADPw1ftXc90nPFP4HM4TGQ5owIdDy75HrOfDJyTb07XK+9WlXK1kZ4s3L9v55MwT3cjoenja/x4fTdog/hhDG/XZzHE+6GuLtEG8eD8fNz+Phdf8w/36+n05Oq1+Ht+kNf2ZcycRuQgX3Pu9kSunvxt18fjful+cj1dKd90w5A0CmzB0gKCACQCHpb4jSds4DhFLsKXgSdxlQg+U8sQKka6WQOkBNlOplAIemSQNwpMSXAdET1w4gGlIAgES1l1WUNOCQHEkfkjhKHgCkafLJQSgADsVRCD2AqQBA9RTdCoBkVZXCKiRgPqVY2JKOwEtSmogLWRlwELFu1cQVdIO6tecgWiHArfo4GmvUJvR5ldi6VVRWUHGVqZobhLKATFdL2jtHDpDIa12FGLmvEBcLcMDfkVcFUdvOeUCkbEIq5IGZtEaL9IBEEeiqN5jGJNoXAGnlkE0iHHSfqmSaqxZEwXko3pYcAzNpqsu6qAEHNVPKNiRkDVYzrTigTqYF4U0etJEggLTHixp1INMLNy9SzaAi/gOh/u/NwQm2V1+o9sJWFQJkwivJPnVFb0Dt1V6QA0UgU2oV3M4nBxtTsPUz3QjyFlqSrhw1VinAo4yzTSyRR9Vsm2SA+eUm9WfwsN95TU0vpoYHotHXmSavHzakPdsGjBt2LHYgwedTsq0Lx6MjWpZv8M21DY3X6VlC+1pcly4tDe7Nht3w7bn5n+d18TWkP4673TzjL5/boV635j8E8fYD);lineShape=1;strokeColor=default;fontSize=16;" vertex="1" parent="1">
          <mxGeometry x="1658.770129188265" y="-254.21119642458893" width="7.7906055680699255" height="46.77347622648691" as="geometry" />
        </mxCell>
        <mxCell id="O91nQu8UyTGTQkRIEwQN-95" value="" style="shape=stencil(rVfZbttADPwavxK7S+71nLb/ESBOYzSNAye9/r5U3VVESpqgQN9kmaPlMRxyD3zz8nD7fDyk8PJ6OX85/jjdvT4c+MMhpdPTw/FyetWnA3888M39+XL8fDl/e7q7/n6+nSynp6/n79MXfl5xkVKYQCn8ur7gQF3+vPl0tX88PS3sCwUx9ilRCfv2MRF3A4hCve8DUqBoPWrUwQGpU7YeCeW0b8+dGluHYAA5UKnGPlCoIEGRavP24PtVEyTOnxr37VukZu0zFd6373p8tN9PlAsAZGrFljiSAI96p5Qth5RV4IQY5pTMNdOgAet6WwUd3wuiWp+0LgLK1iOxLXMNlAGgZRKbptopNFDoRtGe0AolUDl1QCyg46CLUsm6pGlAQUuhbrO0KM12t2mzRH8Eas/YR2FnAA8vtwGNquWGMjgBwVBAcYJRKQAFUJfEutSYGkiTBh1tmtosm9sApmwByo2ETigr9jVKgEyqeswewBnIXqIYvUsC6sBCwj7oDILm1WhoMoRhD+CUUgsnSLrLoP+CGgVQg/MQrgX5kLgyk9jC9TK6dhsQqNkYeqWGqFGpO0AbdNwGZJ9WBSB660Dm5mPIiEthcHMGCCSfdlx3LkVIPgX8Hclzpdug416LBltp5VLDMWQnAum9LBW7l2g/NOCS1kHsCdpxqB/S3JDLnkbki2McLAAdBK1sra5Fw3jznwDdN5ACMmCrrHWpQ/JNY9llSeBAqbr/uMle4UI2OWDJl2UsB9uTPfmpKNpSeCXrlktaSpSlmv3OqnSMgK3TUum26Aq3vqz0TisAOEGYilsFGhay5jcsnXpooEwiID5LHYmAfs8Kmcy77O5dw5JP18qMACv11koXtFZSslnVtDHa+fyO+Jbm7bJ5UZJ5IG1XbWjcwv+KZHJ1V9J9Din9KqEBrqzBV4yxRmo97fenEQ8G+ureoFsKYnXwmq1rUEXb6j/eht+314e3q/f96fHxenNf/u+v6vrqes3nj78B);lineShape=1;strokeColor=default;fontSize=16;" vertex="1" parent="1">
          <mxGeometry x="1659.8221830367065" y="-273.4078337306671" width="38.74573135347782" height="34.97414207609139" as="geometry" />
        </mxCell>
        <mxCell id="O91nQu8UyTGTQkRIEwQN-96" value="" style="shape=stencil(lVfZctswDPwavWJIggf4nKb/kZk4taeunXHc6+8LVUNVhKRN8yZbXOFaLMCBH96OT6+HIbi3++369fDz9Hw/DvxpCOF0OR5up7s+Dfw48MPL9Xb4crt+vzxPv1+fxpPj07frj/ELvyZczBTiiAru9/SPp1L//vF5On8+XRbnk1BI3flMEvfPF0cu9N9ncghQKfYGvJqUfYAUitIBQqIQ9gGVKXAHYKbIAKAW+hzFQCnvA7zTqF2HSAEGUSuV3kR+ByDEfZqKp4qiThR9BxBHxQOAfq+PQYRcAoBV0JrpggHFAEqzuQmInoQtgAsAcHs9AzIlUOpYKPd10LwVUIcUyYsFBBCD1pX7OtRIArKkdfXFAgoIWjtIkgVUQNexg4KNISJqMHlv0+qAS/qanQUIcElfZ5PWgtmqdag9QGClpZI3LtWmC9sA7YdkAQUpmapKX7iFLmxzI1Iq1kRFapzJ55VPIE1Ro44W4AG/Y7RiqXmNqOXWadKeAvwetdS4pNxAKpCorgAOBJ3mkbbgN5KNVO1IGTsIlDpL6/n/7dHShuBSBQBAErm1zgCXVL4N+xQgaMqljTokQL6xTMZCwXP0owClRq0WgFpOt5lissSUAJd0LPue3iqGgjpOs967pGM0IwvK/l4rVdChBbE9Pa4CCFDaprBYNpB8J7YWNNFo6YvzjrfYmARYYO2H3oLuZAgQVg3ka1sctwE6FVd7paCFiXLPvQIb1DVizgFQBvNqtfrMvNo5Xvuve8ghrZdZidvs2lYjSv1x12Lf2VatN44YOO9Vbe15j2rr1/6gKaiVMQuPg1TgYKemgyONV+u8a1eOvYlmpoEjAf7oyLRzH67yH72CvX9eH/7d915O5/N0XVy+t/dD/Wu6W/LjHw==);lineShape=1;strokeColor=default;fontSize=16;" vertex="1" parent="1">
          <mxGeometry x="1715.3141025918767" y="-329.68196481314385" width="8.653976631347177" height="90.50679578286493" as="geometry" />
        </mxCell>
        <mxCell id="O91nQu8UyTGTQkRIEwQN-97" value="" style="shape=stencil(rVdJchsxDHzNXFHcwOXsOP9wleVoKorkkuUsvw+YKY4FSNO+5EaN0MTWWDjFh7f90+tuCu7tcj593/2any/7KX6ZQpiP+915vshpio9TfHg5nXffzqf34/Py+/WpS/bTj9PPfsPvBZcpcAcF92f54Mi5fx++LuKH+Xgl7iPFouQDFSDfr0tKnqk1IJ8pVyXfiNO2fIxWvlsYtgHJW4N8Jc8AUKl47XGkBDRwpmYAjZzfBmQmp3MQE+W4DSiBvPYhNvIgCzWR01FKibhsA5q4qE1KmTgDABNrp1OhCqLUiiUSeyog061SjRpQqCENbdw3ABJoxFXvVu4PREkUKlTBTQGqlAMKUx1sXuntKCCvhUw6TBLpBujabsgkRkIfwo2GRhWUqFjcjIZCBSSiigE6rF0nMKkWW0E1k8eAoAGljjLfAnhdELlRBE4LoGoN2cO2IU6bPHCCPkhYiym5NrzaSpwFZEy+RFWTT2rUoUzLfZre7MhjeiedaWbKiK3Nto2MqSGApk0qfujcAlRtUnWwG4sPht4fdNzqZLampWugsLKdKD1uKKwy5LICXLWq/4SQxhU0QrIfAaA4W3P1kzEXx4xaAWnUyP1ByuO+q6pGDbzz3wDWOXZ/e7gp0izLAJiL0Vv6da8AICTLJq6DkPeHkMx2M+YcbANs95k+qZHPNkaJKSAPiHXWUhg33HeAkh4nPchgmXF2gZPlB61XznZu2a5QBm5mukSAQYdxo62vlVPGgNyyX8dTMpiBvLd7T4ENL1A0mxucIqtvqzUjffcrZkz6q+0f2J5tj8A95dO3hRw+3iUv8+GwPGuu/7fvGPm0vIHi418=);lineShape=1;strokeColor=default;fontSize=16;" vertex="1" parent="1">
          <mxGeometry x="1702.513588017533" y="-279.8036510257955" width="49.92877547014117" height="12.046471809113731" as="geometry" />
        </mxCell>
        <mxCell id="O91nQu8UyTGTQkRIEwQN-98" value="" style="shape=stencil(lVnJblsxDPwaXwnty7nLfwRo2hhNkyJNt7/vqIZeTMpvnNwcm4woLsMhdYjvftzdfL89BPfj+enx6+3v46fnu0N8fwjh+HB3+3R8xqdD/HCI7z4/Pt1+eXr8+fDp9Pf3myE5Pn17/DX+w5+TnpPkhlJwf09fFCc1/P/m40n+/vhwJu/FRSsfI5PPdZF3+/JBStfyXlLel48Ss5aPEtK+fBJn7MmSiT1JWtPybd7oonyWWpR8DeKJf4pUfd+apRH5Kj1p+TZPvCjfJQQl3xBf4h/vpOiEaJ4HOIgr9oTGToiStUm1c4Ukvdg7e6ZQJCbr1NKIQrVZVyO/dLeXrigMltZOsjYJecTyFIVgAodEZYWJTPUms4MkpgAv6dTOSCWS2gE/61rLSTLxUvTizQmAG3JCjFI0uqRCqzMWC0cJ5UYuHZtNjVglk/pJCJy+QwzSyQkwoOo4wG+BIFhKtqQBagxiUp2IMhWQjpGZ1GcybwqANaKQgbm6HgALgcQhw2KtkKV3Io969NqrEpg8gqRTz9PqyV2y/v/oOsSlaDIGkxwtZzSZ0ow8Q1XUbtf2ozY9kW8zoFte08Kp2/Fb8Usl9gPevLanTXy6LJ8nlJwnBGtTdd5vUwi076MHeN13PAcXdBkTYp9pYaKPNV2Y6BOdOLVFSaZsqjSCFS1LNCa12VguK9QZ1bNKTkyhL+CCOJDO1pfuDIVCvNTThRMowaizLZ0pMHDpuENcFAhAQqGZE1D9zKQuXefSKDd+gi3PRPFoKGi8Q8FlouDdBiibxpbxu0eYxuNnK9pVMK0tzoa961cd6ogE5rc2ZBX9lzWeoeCsQuKRK8GaVPmlTWOISSI/IRuTwqQEewqmRsPm6NcqVAr2q0nonu6KgknXQNvt6taXueyVgRs1+qbUeJkUX5l8UGBovKY3OEPhXjIFFHguXarRdhVoTEG4a+lqgAY16rhCMyeALvJbG7BEyV3BGQPHUMj8hDcqLB1ioAC79NKDhgLDmaXLQYG1xdFHjUKmRT069aLgCbgOLmBwJs1VxS7bMF6K1K2DzxiTAm3tYEyG1UeOAuBkzrQgN4fMPdYXDQrUmfC7vHKBvkYCN4irQYFEJ5PBjA3bCDQOg3prEgfoYyPl4PaGJra5ZNodHhYimti0sUwnoLqF4NI6/vhC0XjMV4tJDO/HALdcurMTltEeeM/gGzNoNgqZ8sox5Zp6QMKzVSDmaKOQaLaOSd3UAzgc8VIK0nQcUqTpnZydi1Oj64mxz9CBg6NZPYyNib40Ys9a1tjJaIUS5lpnb+sT9B1KmY7e3Stpt1Y+XIJrm+GyJgqVLxhxtkFkXhrbNzMfexqHsKyJWuI7SmCrhkq0GEb6/NJF0cRYF/XLfm+0SbbUXNJ7NGJ2QrRLzV4mq9vdFets7Y1OHOs2elBZxjVsoM9I3d4+fTmAbopsFHADurmyWA8XsSXrQn0Qg8R2rEvMAiWUcRLaTd7RZhUsbLfGi1mcKZzC3xvsAhd1w4bW5b2q8XnPWRoGeVZmzoIXeBnLH2d3seO5hOSDsxUAksW2w5DX+VbLJDR78gbp4nw9eaW8p2xnsWfwJW7/8t7G3rcWfw62RP1pmw3P/yUfQK5Y/r/1ffS6PD68PMZ+Pt7fn95yz3+3j7f46vTwGz/8Aw==);lineShape=1;strokeColor=default;fontSize=16;" vertex="1" parent="1">
          <mxGeometry x="1169.5027395962666" y="-193.7752778236279" width="624.84363598864" height="21.287317962928682" as="geometry" />
        </mxCell>
        <mxCell id="O91nQu8UyTGTQkRIEwQN-99" value="&lt;h1&gt;&lt;ul&gt;&lt;li&gt;get inputs from db by id&lt;/li&gt;&lt;li&gt;download the input file from s3 [BucketName]/[InputFile].txt to the VM&lt;/li&gt;&lt;li&gt;Append the input text to the downloaded input file and save it as [OutputFile].txt&lt;/li&gt;&lt;li&gt;upload the output file to s3 [BucketName]/[OutputFile].txt&lt;/li&gt;&lt;li&gt;save the outputs and s3 path in db FileTable: id : [1], output_file_path : [BucketName]/[OutputFile].txt&lt;/li&gt;&lt;li&gt;terminate vm&lt;/li&gt;&lt;/ul&gt;&lt;/h1&gt;" style="text;html=1;strokeColor=none;fillColor=none;spacing=5;spacingTop=-20;whiteSpace=wrap;overflow=hidden;rounded=0;fontSize=16;" vertex="1" parent="1">
          <mxGeometry x="1209.93" y="-139.5" width="547" height="627.5" as="geometry" />
        </mxCell>
      </root>
    </mxGraphModel>
  </diagram>
</mxfile>
